<?xml version="1.0" encoding="UTF-8"?>
<svg version="1.1" xmlns="http://www.w3.org/2000/svg" width="200" height="200">
<path d="M0 0 C66 0 132 0 200 0 C200 66 200 132 200 200 C134 200 68 200 0 200 C0 134 0 68 0 0 Z " fill="#662F62" transform="translate(0,0)"/>
<path d="M0 0 C66 0 132 0 200 0 C200 17.16 200 34.32 200 52 C134 52 68 52 0 52 C0 34.84 0 17.68 0 0 Z " fill="#FEFEFE" transform="translate(0,148)"/>
<path d="M0 0 C66 0 132 0 200 0 C200 16.83 200 33.66 200 51 C134 51 68 51 0 51 C0 34.17 0 17.34 0 0 Z " fill="#FEFEFE" transform="translate(0,0)"/>
<path d="M0 0 C1.32 0 2.64 0 4 0 C4.99 0.33 5.98 0.66 7 1 C7 12.88 7 24.76 7 37 C9.03653993 33.94519011 9.25025666 33.3435522 9.23046875 29.91015625 C9.22853516 29.12576172 9.22660156 28.34136719 9.22460938 27.53320312 C9.21236328 26.71787109 9.20011719 25.90253906 9.1875 25.0625 C9.18685547 24.25103516 9.18621094 23.43957031 9.18554688 22.60351562 C9.15806161 18.88078859 9.01551881 15.60167296 8 12 C11.21451269 10.39274365 14.43612536 10.94251815 18 11 C17.67 11.99 17.34 12.98 17 14 C16.87566595 15.57926978 16.7990886 17.16258165 16.75390625 18.74609375 C16.72103516 19.66583984 16.68816406 20.58558594 16.65429688 21.53320312 C16.59322608 23.46537904 16.53591844 25.39767767 16.48242188 27.33007812 C16.44826172 28.25111328 16.41410156 29.17214844 16.37890625 30.12109375 C16.34132202 31.38070923 16.34132202 31.38070923 16.30297852 32.66577148 C15.97952752 35.15772556 15.24683832 36.8352592 14 39 C13.34 39 12.68 39 12 39 C12 39.66 12 40.32 12 41 C12.99 41.33 13.98 41.66 15 42 C15 43.98 15 45.96 15 48 C11.7 48 8.4 48 5 48 C3.5216774 45.04335481 3.93967217 42.25770263 4 39 C3.01 39.33 2.02 39.66 1 40 C0.01 39.67 -0.98 39.34 -2 39 C-2.33 39.66 -2.66 40.32 -3 41 C-5.31 38.36 -7.62 35.72 -10 33 C-13.9714169 33.62841973 -13.9714169 33.62841973 -16 36 C-20.77737198 36.7271752 -24.79537259 36.70269932 -29 34.25 C-31.37939973 31.57317531 -32.84869633 29.4599477 -33.22265625 25.8515625 C-32.89887876 21.35026562 -32.21842893 18.60060917 -28.875 15.4375 C-26.20440288 13.48087884 -24.86400694 12.97571553 -21.5 12.375 C-17.19210153 13.14426758 -14.64857868 14.61725474 -11 17 C-11 16.01 -11 15.02 -11 14 C-11.66 14 -12.32 14 -13 14 C-12.67 12.68 -12.34 11.36 -12 10 C-11.34 10 -10.68 10 -10 10 C-10.33 7.69 -10.66 5.38 -11 3 C-7.46196917 -0.3965096 -4.76893155 -0.25547848 0 0 Z " fill="#713769" transform="translate(76,80)"/>
<path d="M0 0 C0.7940625 0.07863281 1.588125 0.15726562 2.40625 0.23828125 C4.5 0.6875 4.5 0.6875 6.5 2.6875 C6.83 2.0275 7.16 1.3675 7.5 0.6875 C11.5 0.6875 15.5 0.6875 19.5 0.6875 C19.5 1.6775 19.5 2.6675 19.5 3.6875 C20.345625 3.006875 21.19125 2.32625 22.0625 1.625 C25.5 -0.3125 25.5 -0.3125 29.125 -0.375 C33.28224598 0.93376262 34.25786087 1.97972015 36.5 5.6875 C36.96826412 8.64607784 36.88013917 11.51430705 36.75 14.5 C36.73195312 15.28826172 36.71390625 16.07652344 36.6953125 16.88867188 C36.64844048 18.82214261 36.5767041 20.75498285 36.5 22.6875 C35.51 22.6875 34.52 22.6875 33.5 22.6875 C33.45101562 21.48351562 33.40203125 20.27953125 33.3515625 19.0390625 C33.27653657 17.46351802 33.20098867 15.88799834 33.125 14.3125 C33.0940625 13.5184375 33.063125 12.724375 33.03125 11.90625 C32.98183579 7.32082625 32.98183579 7.32082625 30.5 3.6875 C26.49461442 3.24678403 26.49461442 3.24678403 22.8515625 4.6953125 C20.7310803 7.82087875 20.92438807 11.2146618 20.8125 14.875 C20.77833984 15.62458984 20.74417969 16.37417969 20.70898438 17.14648438 C20.62665706 18.99296838 20.56164719 20.84020994 20.5 22.6875 C17.125 22.375 17.125 22.375 13.5 21.6875 C12.84 20.6975 12.18 19.7075 11.5 18.6875 C11.5 20.3375 11.5 21.9875 11.5 23.6875 C9.5625 23.3125 9.5625 23.3125 7.5 22.6875 C7.17 22.0275 6.84 21.3675 6.5 20.6875 C6.005 21.0175 5.51 21.3475 5 21.6875 C1.48648276 23.0929069 -1.80992379 23.42111356 -5.5 22.6875 C-9.41521974 19.53830152 -12.22190418 16.49512284 -13 11.4375 C-12.33894429 6.47958219 -10.12006558 4.00745652 -6.5 0.6875 C-4.02756353 -0.54871824 -2.72682061 -0.29658601 0 0 Z " fill="#7C4D75" transform="translate(107.5,93.3125)"/>
<path d="M0 0 C0.99 0 1.98 0 3 0 C3.33 10.56 3.66 21.12 4 32 C6.03653993 28.94519011 6.25025666 28.3435522 6.23046875 24.91015625 C6.22756836 23.73356445 6.22756836 23.73356445 6.22460938 22.53320312 C6.21236328 21.71787109 6.20011719 20.90253906 6.1875 20.0625 C6.18685547 19.25103516 6.18621094 18.43957031 6.18554688 17.60351562 C6.15806161 13.88078859 6.01551881 10.60167296 5 7 C8.21451269 5.39274365 11.43612536 5.94251815 15 6 C14.67 6.99 14.34 7.98 14 9 C13.87566595 10.57926978 13.7990886 12.16258165 13.75390625 13.74609375 C13.72103516 14.66583984 13.68816406 15.58558594 13.65429688 16.53320312 C13.59322608 18.46537904 13.53591844 20.39767767 13.48242188 22.33007812 C13.44826172 23.25111328 13.41410156 24.17214844 13.37890625 25.12109375 C13.3538501 25.9608374 13.32879395 26.80058105 13.30297852 27.66577148 C12.97952752 30.15772556 12.24683832 31.8352592 11 34 C10.34 34 9.68 34 9 34 C9 34.66 9 35.32 9 36 C10.485 36.495 10.485 36.495 12 37 C12 38.98 12 40.96 12 43 C8.7 43 5.4 43 2 43 C0.5216774 40.04335481 0.93967217 37.25770263 1 34 C-0.485 34.495 -0.485 34.495 -2 35 C-2.99 34.67 -3.98 34.34 -5 34 C-5.33 34.66 -5.66 35.32 -6 36 C-8.56715917 33.85922021 -9.88098889 32.69640696 -10.45410156 29.34277344 C-10.4331543 28.35825195 -10.41220703 27.37373047 -10.390625 26.359375 C-10.37773438 25.28945312 -10.36484375 24.21953125 -10.3515625 23.1171875 C-10.31804687 22.00601563 -10.28453125 20.89484375 -10.25 19.75 C-10.23195313 18.62335938 -10.21390625 17.49671875 -10.1953125 16.3359375 C-10.14820222 13.55643104 -10.08243361 10.7786466 -10 8 C-7.69 8 -5.38 8 -3 8 C-2.01 5.36 -1.02 2.72 0 0 Z " fill="#743565" transform="translate(79,85)"/>
<path d="M0 0 C3.84252895 2.0300153 6.66948642 3.74235653 8 8 C8 9.32 8 10.64 8 12 C1.4 12 -5.2 12 -12 12 C-10.34922098 15.75170424 -10.34922098 15.75170424 -8 19 C-5.96729438 19.23820921 -5.96729438 19.23820921 -3.625 19.25 C-2.83351563 19.27578125 -2.04203125 19.3015625 -1.2265625 19.328125 C1.50801121 18.92513519 2.15167603 17.96190813 4 16 C4.99 16 5.98 16 7 16 C5.70306699 18.89315824 4.48459203 21.00335268 2 23 C-2.74666278 23.89301622 -6.81932155 23.6887291 -11 21.25 C-13.37939973 18.57317531 -14.84869633 16.4599477 -15.22265625 12.8515625 C-14.89887876 8.35026562 -14.21842893 5.60060917 -10.875 2.4375 C-7.20206674 -0.25898884 -4.56871519 -0.83067549 0 0 Z " fill="#E7D3E7" transform="translate(58,93)"/>
<path d="M0 0 C0.33 0.66 0.66 1.32 1 2 C-43.22 2 -87.44 2 -133 2 C-132.67 1.34 -132.34 0.68 -132 0 C-87.96148242 -1.24425027 -44.03960275 -1.17773049 0 0 Z " fill="#762E69" transform="translate(149,145)"/>
<path d="M0 0 C2.875 1.4375 2.875 1.4375 5 4 C5.90187251 8.27409147 5.70695207 11.7397811 3.5625 15.5625 C-0.26444822 17.70932461 -3.72887703 18.02475661 -8 17 C-10.625 14.4375 -10.625 14.4375 -12 11 C-11.93831434 7.36054607 -11.80109293 5.04490382 -9.5625 2.125 C-6.3051698 -0.22027774 -3.99152467 -0.39132595 0 0 Z " fill="#713867" transform="translate(110,96)"/>
<path d="M0 0 C0.7940625 0.07863281 1.588125 0.15726562 2.40625 0.23828125 C4.5 0.6875 4.5 0.6875 6.5 2.6875 C6.83 2.0275 7.16 1.3675 7.5 0.6875 C8.49 0.6875 9.48 0.6875 10.5 0.6875 C10.5 7.9475 10.5 15.2075 10.5 22.6875 C9.51 22.6875 8.52 22.6875 7.5 22.6875 C7.17 22.0275 6.84 21.3675 6.5 20.6875 C6.005 21.0175 5.51 21.3475 5 21.6875 C1.48648276 23.0929069 -1.80992379 23.42111356 -5.5 22.6875 C-9.41521974 19.53830152 -12.22190418 16.49512284 -13 11.4375 C-12.33894429 6.47958219 -10.12006558 4.00745652 -6.5 0.6875 C-4.02756353 -0.54871824 -2.72682061 -0.29658601 0 0 Z M-8.8125 6.375 C-10.04894743 10.53395952 -9.11559981 14.18697547 -7.5 18.125 C-4.63349058 20.36446048 -2.22683919 20.25007849 1.3359375 20.05859375 C3.66349588 19.78377251 3.66349588 19.78377251 6.0625 18.25 C8.20695207 14.4272811 8.40187251 10.96159147 7.5 6.6875 C4.91771029 3.5735624 3.43864009 2.80243552 -0.5625 2.3125 C-4.30754451 2.79059079 -6.46041965 3.3508967 -8.8125 6.375 Z " fill="#E1D0E1" transform="translate(107.5,93.3125)"/>
<path d="M0 0 C1.65 0.33 3.3 0.66 5 1 C5.07089844 1.62390625 5.14179687 2.2478125 5.21484375 2.890625 C5.80004532 5.19229321 5.80004532 5.19229321 8.06640625 6.046875 C8.89011719 6.27890625 9.71382812 6.5109375 10.5625 6.75 C11.38878906 6.99234375 12.21507813 7.2346875 13.06640625 7.484375 C13.70449219 7.65453125 14.34257813 7.8246875 15 8 C15 8.66 15 9.32 15 10 C14.01 10 13.02 10 12 10 C12.66 10.66 13.32 11.32 14 12 C13.175 12.845625 12.35 13.69125 11.5 14.5625 C9.38343792 17.12528884 8.99229167 18.04796296 8.4375 21.5 C9.08972784 25.55830654 10.56971174 27.73430015 13 31 C13 31.66 13 32.32 13 33 C12.38125 33.28875 11.7625 33.5775 11.125 33.875 C8.86674235 34.93720042 8.86674235 34.93720042 7 37 C5.68001175 34.36002351 5.87043968 32.35922683 5.8671875 29.40625 C5.86589844 28.29378906 5.86460938 27.18132812 5.86328125 26.03515625 C5.86714844 24.86855469 5.87101562 23.70195313 5.875 22.5 C5.87113281 21.33339844 5.86726563 20.16679688 5.86328125 18.96484375 C5.86457031 17.85238281 5.86585937 16.73992187 5.8671875 15.59375 C5.86831543 14.56958984 5.86944336 13.54542969 5.87060547 12.49023438 C6 10 6 10 7 8 C4.36 8 1.72 8 -1 8 C-1.33 6.02 -1.66 4.04 -2 2 C-1.34 2 -0.68 2 0 2 C0 1.34 0 0.68 0 0 Z " fill="#723760" transform="translate(87,83)"/>
<path d="M0 0 C1.32 0 2.64 0 4 0 C4.99 0.33 5.98 0.66 7 1 C6.6875 2.9375 6.6875 2.9375 6 5 C5.01 5.33 4.02 5.66 3 6 C2.29508733 8.32206525 1.62787571 10.65593068 1 13 C-1.6666419 14.33332095 -3.16680303 13.67102033 -6 13 C-6.33 11.68 -6.66 10.36 -7 9 C-7.99 9.33 -8.98 9.66 -10 10 C-10.33 7.69 -10.66 5.38 -11 3 C-7.46196917 -0.3965096 -4.76893155 -0.25547848 0 0 Z M-1 9 C-1 9.66 -1 10.32 -1 11 C-0.34 11 0.32 11 1 11 C1 10.34 1 9.68 1 9 C0.34 9 -0.32 9 -1 9 Z " fill="#713064" transform="translate(76,80)"/>
<path d="M0 0 C1.98 0 3.96 0 6 0 C6.02893932 3.62498334 6.04677792 7.24993713 6.0625 10.875 C6.07087891 11.90753906 6.07925781 12.94007812 6.08789062 14.00390625 C6.09111328 14.99003906 6.09433594 15.97617188 6.09765625 16.9921875 C6.10289307 17.90339355 6.10812988 18.81459961 6.11352539 19.75341797 C6 22 6 22 5 24 C3.35 24 1.7 24 0 24 C0 16.08 0 8.16 0 0 Z " fill="#81403B" transform="translate(69,93)"/>
<path d="M0 0 C4.15724598 1.30876262 5.13286087 2.35472015 7.375 6.0625 C7.84326412 9.02107784 7.75513917 11.88930705 7.625 14.875 C7.60695312 15.66326172 7.58890625 16.45152344 7.5703125 17.26367188 C7.52344048 19.19714261 7.4517041 21.12998285 7.375 23.0625 C6.385 23.0625 5.395 23.0625 4.375 23.0625 C4.32601562 21.85851562 4.27703125 20.65453125 4.2265625 19.4140625 C4.15153657 17.83851802 4.07598867 16.26299834 4 14.6875 C3.9690625 13.8934375 3.938125 13.099375 3.90625 12.28125 C3.85683579 7.69582625 3.85683579 7.69582625 1.375 4.0625 C-2.82161382 3.57926783 -2.82161382 3.57926783 -6.4375 5.4375 C-8.88783517 8.79059023 -8.90574858 11.58197929 -9.1875 15.6875 C-9.27128906 16.87601563 -9.35507813 18.06453125 -9.44140625 19.2890625 C-9.50199219 20.20429687 -9.56257813 21.11953125 -9.625 22.0625 C-10.285 22.0625 -10.945 22.0625 -11.625 22.0625 C-11.625 15.1325 -11.625 8.2025 -11.625 1.0625 C-10.965 1.0625 -10.305 1.0625 -9.625 1.0625 C-9.625 2.0525 -9.625 3.0425 -9.625 4.0625 C-8.779375 3.381875 -7.93375 2.70125 -7.0625 2 C-3.625 0.0625 -3.625 0.0625 0 0 Z " fill="#EEDCEE" transform="translate(136.625,92.9375)"/>
<path d="M0 0 C0.66 0 1.32 0 2 0 C2 7.92 2 15.84 2 24 C3.98 23.34 5.96 22.68 8 22 C8.33 21.34 8.66 20.68 9 20 C9.33 20.33 9.66 20.66 10 21 C16.08468557 21.23376923 16.08468557 21.23376923 22 20 C22 20.99 22 21.98 22 23 C21.34 23 20.68 23 20 23 C20 24.65 20 26.3 20 28 C19.34 28 18.68 28 18 28 C18 27.34 18 26.68 18 26 C14.25785814 24.3071263 12.68588602 23.7493878 8.75 25.1875 C5.80274396 26.87396008 5.80274396 26.87396008 4 30 C3.01 30.33 2.02 30.66 1 31 C0.34 31.66 -0.32 32.32 -1 33 C-1.12375 32.195625 -1.2475 31.39125 -1.375 30.5625 C-1.58125 29.716875 -1.7875 28.87125 -2 28 C-2.66 27.67 -3.32 27.34 -4 27 C-4 26.34 -4 25.68 -4 25 C-3.34 25 -2.68 25 -2 25 C-1.13888484 21.97230685 -0.81769107 19.15733363 -0.68359375 16.015625 C-0.64169922 15.08105469 -0.59980469 14.14648438 -0.55664062 13.18359375 C-0.49766602 11.73146484 -0.49766602 11.73146484 -0.4375 10.25 C-0.39431641 9.26644531 -0.35113281 8.28289062 -0.30664062 7.26953125 C-0.20077948 4.84648725 -0.09869829 2.4233446 0 0 Z " fill="#76316C" transform="translate(92,94)"/>
<path d="M0 0 C0.99 0 1.98 0 3 0 C3 2.64 3 5.28 3 8 C4.32 8 5.64 8 7 8 C7 8.66 7 9.32 7 10 C5.68 10 4.36 10 3 10 C3 16.6 3 23.2 3 30 C2.01 30 1.02 30 0 30 C0 23.4 0 16.8 0 10 C-0.99 10 -1.98 10 -3 10 C-3 9.34 -3 8.68 -3 8 C-2.01 8 -1.02 8 0 8 C0 5.36 0 2.72 0 0 Z " fill="#E7D7E9" transform="translate(152,86)"/>
<path d="M0 0 C7.92 0 15.84 0 24 0 C24 1.32 24 2.64 24 4 C5.52 4 -12.96 4 -32 4 C-32 3.67 -32 3.34 -32 3 C-18.8 2.67 -5.6 2.34 8 2 C5.36 1.67 2.72 1.34 0 1 C0 0.67 0 0.34 0 0 Z " fill="#5A2F5B" transform="translate(176,144)"/>
<path d="M0 0 C0.99 0 1.98 0 3 0 C3 10.23 3 20.46 3 31 C2.01 31 1.02 31 0 31 C0 20.77 0 10.54 0 0 Z " fill="#EBD5E6" transform="translate(79,85)"/>
<path d="M0 0 C0.226875 0.515625 0.45375 1.03125 0.6875 1.5625 C1.120625 2.366875 1.55375 3.17125 2 4 C2.30679688 4.60199219 2.61359375 5.20398438 2.9296875 5.82421875 C4.14153968 7.88436746 5.19947594 9.41968392 7 11 C10.11279768 11.77683176 12.89229917 11.8031137 16 11 C18.86688629 8.83203858 18.9932327 8.03629734 19.6875 4.3125 C19.790625 3.219375 19.89375 2.12625 20 1 C20.33 1 20.66 1 21 1 C21.19551338 2.60320974 21.38111983 4.20762986 21.5625 5.8125 C21.66691406 6.70582031 21.77132812 7.59914063 21.87890625 8.51953125 C22 11 22 11 21 14 C21.66 14.33 22.32 14.66 23 15 C22.01 15 21.02 15 20 15 C19.67 14.34 19.34 13.68 19 13 C18.505 13.33 18.01 13.66 17.5 14 C13.98648276 15.4054069 10.69007621 15.73361356 7 15 C3.96277803 12.55701712 2.15575567 10.2336335 0 7 C-0.07905064 4.66800612 -0.08798769 2.33167378 0 0 Z " fill="#E2CFE1" transform="translate(95,101)"/>
<path d="M0 0 C1.32 0 2.64 0 4 0 C4 7.26 4 14.52 4 22 C2.68 22.33 1.36 22.66 0 23 C0 15.41 0 7.82 0 0 Z " fill="#D19431" transform="translate(87,93)"/>
<path d="M0 0 C20.46 0 40.92 0 62 0 C62 0.66 62 1.32 62 2 C60.07942708 1.96744792 58.15885417 1.93489583 56.23828125 1.90234375 C53.97775222 1.9311902 53.97775222 1.9311902 51.74536133 2.53125 C48.62272277 3.06441728 45.98977633 2.88894339 42.8359375 2.59765625 C34.10466231 1.88734227 25.38026885 1.65891215 16.625 1.4375 C15.00259655 1.39416449 13.38020062 1.3505463 11.7578125 1.30664062 C7.83862046 1.20117994 3.91934763 1.09950344 0 1 C0 0.67 0 0.34 0 0 Z " fill="#4F3152" transform="translate(138,51)"/>
<path d="M0 0 C-0.33 0.99 -0.66 1.98 -1 3 C-1.12436298 4.59100661 -1.20092018 6.18602978 -1.24609375 7.78125 C-1.27896484 8.70550781 -1.31183594 9.62976563 -1.34570312 10.58203125 C-1.4068973 12.5272249 -1.46418966 14.47254522 -1.51757812 16.41796875 C-1.55173828 17.34222656 -1.58589844 18.26648438 -1.62109375 19.21875 C-1.6461499 20.06373047 -1.67120605 20.90871094 -1.69702148 21.77929688 C-2 24 -2 24 -4 27 C-5.9375 26.6875 -5.9375 26.6875 -8 26 C-8.9159592 23.25212241 -9.10834932 21.72766042 -9.0625 18.91015625 C-9.05476563 18.12576172 -9.04703125 17.34136719 -9.0390625 16.53320312 C-9.01308258 14.88997298 -8.9870412 13.24674381 -8.9609375 11.60351562 C-8.95320313 10.81783203 -8.94546875 10.03214844 -8.9375 9.22265625 C-8.92589844 8.50859619 -8.91429688 7.79453613 -8.90234375 7.05883789 C-9.00379907 4.91990615 -9.4129204 3.05448969 -10 1 C-6.78548731 -0.60725635 -3.56387464 -0.05748185 0 0 Z M-7 2 C-7 9.59 -7 17.18 -7 25 C-5.68 24.67 -4.36 24.34 -3 24 C-3 16.74 -3 9.48 -3 2 C-4.32 2 -5.64 2 -7 2 Z " fill="#753254" transform="translate(94,91)"/>
<path d="M0 0 C3.70543535 0.31943408 5.1286282 0.61641846 7.625 3.3125 C7.625 4.3025 7.625 5.2925 7.625 6.3125 C2.675 6.3125 -2.275 6.3125 -7.375 6.3125 C-4.42354369 0.40958738 -4.42354369 0.40958738 0 0 Z " fill="#6F3A65" transform="translate(54.375,95.6875)"/>
<path d="M0 0 C0.99 0 1.98 0 3 0 C3 7.26 3 14.52 3 22 C2.01 22 1.02 22 0 22 C0 14.74 0 7.48 0 0 Z " fill="#E9AB37" transform="translate(71,94)"/>
<path d="M0 0 C4.22488728 1.50888831 5.65504658 4.32623964 8 8 C10.64458379 9.32229189 12.67761301 9.09677194 15.625 9.0625 C16.62789062 9.05347656 17.63078125 9.04445313 18.6640625 9.03515625 C19.82035156 9.01775391 19.82035156 9.01775391 21 9 C21 9.99 21 10.98 21 12 C20.34 12 19.68 12 19 12 C19 12.66 19 13.32 19 14 C18.0925 13.649375 17.185 13.29875 16.25 12.9375 C13.01993526 12.00575056 12.04934395 12.01985373 9 13 C5.53013825 11.26506912 3.23719842 8.11633211 1 5 C0.125 2.0625 0.125 2.0625 0 0 Z " fill="#723867" transform="translate(40,106)"/>
<path d="M0 0 C2.01322497 1.52203685 2.89097308 2.39140311 3.34057617 4.90112305 C3.32486572 5.59761963 3.30915527 6.29411621 3.29296875 7.01171875 C3.28330078 7.76904297 3.27363281 8.52636719 3.26367188 9.30664062 C3.23853516 10.09232422 3.21339844 10.87800781 3.1875 11.6875 C3.17396484 12.48478516 3.16042969 13.28207031 3.14648438 14.10351562 C3.11117089 16.06929967 3.05736447 18.03473582 3 20 C2.67 20 2.34 20 2 20 C1.96261719 19.09636719 1.92523438 18.19273438 1.88671875 17.26171875 C1.82097656 16.08222656 1.75523437 14.90273437 1.6875 13.6875 C1.62949219 12.51574219 1.57148438 11.34398438 1.51171875 10.13671875 C1.23860062 7.04740853 1.23860062 7.04740853 -0.34375 5.0625 C-2.12289901 3.67977432 -2.12289901 3.67977432 -5.1875 4.3125 C-6.5796875 4.6528125 -6.5796875 4.6528125 -8 5 C-8 3.68 -8 2.36 -8 1 C-5.20129973 -0.39935013 -3.09501208 -0.25265405 0 0 Z " fill="#6E4269" transform="translate(138,96)"/>
<path d="M0 0 C0.99 0 1.98 0 3 0 C3 5.61 3 11.22 3 17 C2.01 17 1.02 17 0 17 C0 11.39 0 5.78 0 0 Z " fill="#E2CFDF" transform="translate(141,99)"/>
<path d="M0 0 C5.68154235 -0.45452339 8.60036521 0.33363768 13 4 C13.33 4.99 13.66 5.98 14 7 C13.34 7 12.68 7 12 7 C12 7.99 12 8.98 12 10 C6.39 10 0.78 10 -5 10 C-4.67 9.34 -4.34 8.68 -4 8 C0.95 8.33 5.9 8.66 11 9 C9.0687278 4.91154738 9.0687278 4.91154738 6 2 C2.89160979 1.2730774 2.89160979 1.2730774 0 1 C0 0.67 0 0.34 0 0 Z " fill="#D0B6CC" transform="translate(51,93)"/>
<path d="M0 0 C0.226875 0.515625 0.45375 1.03125 0.6875 1.5625 C3.67976817 7.87367319 3.67976817 7.87367319 9.10546875 11.671875 C11.55232776 12.0046695 11.55232776 12.0046695 15 12 C15 12.33 15 12.66 15 13 C13.02 13 11.04 13 9 13 C9 13.66 9 14.32 9 15 C5.53371274 14.03714243 4.06582992 13.07650505 1.6875 10.3125 C-0.22487823 6.55857236 -0.33242149 4.15526857 0 0 Z " fill="#DCC4DB" transform="translate(95,101)"/>
<path d="M0 0 C0.66 0 1.32 0 2 0 C2 6.93 2 13.86 2 21 C1.34 21 0.68 21 0 21 C0.04125 19.845 0.0825 18.69 0.125 17.5 C0.14087433 13.05518699 -0.78206895 9.26275869 -2 5 C-1.01 4.67 -0.02 4.34 1 4 C0.67 2.68 0.34 1.36 0 0 Z " fill="#F9E7F8" transform="translate(116,94)"/>
<path d="M0 0 C0.99 0.495 0.99 0.495 2 1 C8.08516056 1.23333287 8.08516056 1.23333287 14 0 C14 0.99 14 1.98 14 3 C13.34 3 12.68 3 12 3 C12 4.65 12 6.3 12 8 C11.34 8 10.68 8 10 8 C10 7.34 10 6.68 10 6 C6.7 5.01 3.4 4.02 0 3 C0 2.01 0 1.02 0 0 Z " fill="#733F6B" transform="translate(100,114)"/>
<path d="M0 0 C0.33 0.99 0.66 1.98 1 3 C-0.32 3.33 -1.64 3.66 -3 4 C-3.66 7.3 -4.32 10.6 -5 14 C-7.34549674 10.48175489 -7.57991403 9.14224306 -7 5 C-2.86956522 0 -2.86956522 0 0 0 Z " fill="#EBDBEB" transform="translate(103,94)"/>
<path d="M0 0 C-0.38597015 2.79828356 -0.80136573 3.8205884 -2.9375 5.75 C-5 7 -5 7 -7 7 C-7 6.01 -7 5.02 -7 4 C-7.66 3.67 -8.32 3.34 -9 3 C-8.01 3 -7.02 3 -6 3 C-6 2.01 -6 1.02 -6 0 C-3 -1 -3 -1 0 0 Z " fill="#74456E" transform="translate(134,90)"/>
<path d="M0 0 C1.66611905 -0.042721 3.33382885 -0.04063832 5 0 C6 1 6 1 6.0625 3.5625 C6.041875 4.366875 6.02125 5.17125 6 6 C4.02 6 2.04 6 0 6 C0 4.02 0 2.04 0 0 Z " fill="#B17340" transform="translate(69,85)"/>
<path d="M0 0 C2.475 0.495 2.475 0.495 5 1 C5 2.98 5 4.96 5 7 C3.35 6.67 1.7 6.34 0 6 C0 4.02 0 2.04 0 0 Z " fill="#B17540" transform="translate(87,83)"/>
<path d="M0 0 C0.33 0 0.66 0 1 0 C1 2.64 1 5.28 1 8 C-0.32 8 -1.64 8 -3 8 C-3.33 8.99 -3.66 9.98 -4 11 C-4.8125 8.875 -4.8125 8.875 -5 6 C-3.57113621 3.64430565 -1.94938716 1.99580114 0 0 Z " fill="#612D58" transform="translate(151,85)"/>
<path d="M0 0 C2.31 0 4.62 0 7 0 C7 2.31 7 4.62 7 7 C4.625 6.3125 4.625 6.3125 2 5 C0.6875 2.375 0.6875 2.375 0 0 Z " fill="#733758" transform="translate(69,80)"/>
<path d="M0 0 C0.33 0.66 0.66 1.32 1 2 C1.66 2.33 2.32 2.66 3 3 C2.67 3.33 2.34 3.66 2 4 C1.76807135 5.51469448 1.58784762 7.03754562 1.4375 8.5625 C1.35371094 9.38878906 1.26992187 10.21507813 1.18359375 11.06640625 C1.12300781 11.70449219 1.06242188 12.34257813 1 13 C0.67 13 0.34 13 0 13 C0 10.69 0 8.38 0 6 C-0.99 5.67 -1.98 5.34 -3 5 C-2.625 3.0625 -2.625 3.0625 -2 1 C-1.34 0.67 -0.68 0.34 0 0 Z " fill="#6C446A" transform="translate(155,80)"/>
<path d="M0 0 C0.99 0 1.98 0 3 0 C3.66 1.32 4.32 2.64 5 4 C4.34 4 3.68 4 3 4 C2.67 5.32 2.34 6.64 2 8 C1.34 8 0.68 8 0 8 C0 5.36 0 2.72 0 0 Z " fill="#783C6A" transform="translate(93,108)"/>
<path d="M0 0 C1.9453125 -0.29296875 1.9453125 -0.29296875 4.125 -0.1875 C5.40375 -0.125625 6.6825 -0.06375 8 0 C8.33 0.66 8.66 1.32 9 2 C5.37 2.33 1.74 2.66 -2 3 C-1.34 2.01 -0.68 1.02 0 0 Z " fill="#EDDEED" transform="translate(49,94)"/>
<path d="M0 0 C0.66 0 1.32 0 2 0 C1.125 5.75 1.125 5.75 0 8 C-0.66 8 -1.32 8 -2 8 C-1.125 1.125 -1.125 1.125 0 0 Z " fill="#783173" transform="translate(83,120)"/>
<path d="M0 0 C1.65 0 3.3 0 5 0 C4.67 1.32 4.34 2.64 4 4 C2.68 3.67 1.36 3.34 0 3 C0 2.01 0 1.02 0 0 Z " fill="#6A3668" transform="translate(99,119)"/>
<path d="M0 0 C1.98 0.66 3.96 1.32 6 2 C6 2.99 6 3.98 6 5 C3.08482708 3.92598892 1.22189824 3.22189824 -1 1 C-0.67 0.67 -0.34 0.34 0 0 Z " fill="#6C3D62" transform="translate(59,92)"/>
</svg>
