<?xml version="1.0" standalone="no"?>
<!DOCTYPE svg PUBLIC "-//W3C//DTD SVG 20010904//EN"
 "http://www.w3.org/TR/2001/REC-SVG-20010904/DTD/svg10.dtd">
<svg version="1.0" xmlns="http://www.w3.org/2000/svg"
 width="420.000000pt" height="420.000000pt" viewBox="0 0 420.000000 420.000000"
 preserveAspectRatio="xMidYMid meet">

<g transform="translate(0.000000,420.000000) scale(0.100000,-0.100000)"
fill="#000000" stroke="none">
<path d="M1893 3633 l-153 -4 0 -275 0 -275 650 1 c358 1 650 2 650 4 0 1
-125 126 -277 279 l-278 277 -220 -2 c-121 -1 -289 -4 -372 -5z"/>
<path d="M1408 3345 l-278 -275 0 -108 c0 -59 3 -225 7 -370 l6 -263 273 1
c151 1 275 4 277 8 2 4 1 294 -2 645 l-6 638 -277 -276z"/>
<path d="M2490 2792 c0 -131 3 -422 7 -646 l6 -408 274 274 273 273 0 372 0
373 -280 0 -280 0 0 -238z"/>
<path d="M1152 2273 c0 -5 123 -129 273 -276 l271 -268 374 1 c206 0 375 2
378 4 2 2 0 126 -4 275 l-7 271 -644 0 c-353 0 -642 -3 -641 -7z"/>
<path d="M260 1370 c0 -5 18 -10 40 -10 l40 0 0 -212 c0 -117 -5 -231 -10
-252 -11 -49 -37 -75 -81 -82 -43 -7 -69 14 -69 56 0 15 -9 38 -19 51 -16 19
-23 22 -37 13 -46 -28 -42 -80 9 -118 39 -28 142 -34 203 -11 37 14 50 25 65
59 16 36 19 68 19 269 l0 227 40 0 c22 0 40 5 40 10 0 6 -47 10 -120 10 -73 0
-120 -4 -120 -10z"/>
<path d="M650 1370 c0 -5 14 -10 30 -10 l30 0 0 -249 c0 -247 0 -250 -22 -265
-12 -9 -31 -16 -41 -16 -10 0 -17 -5 -15 -12 3 -9 40 -14 126 -16 104 -2 122
0 122 13 0 8 -8 15 -18 15 -10 0 -28 7 -40 16 -20 14 -22 23 -22 109 l0 93 88
4 c146 5 202 53 202 169 0 76 -28 118 -95 141 -38 13 -85 17 -197 18 -92 0
-148 -4 -148 -10z m270 -23 c60 -16 90 -60 90 -131 0 -97 -52 -146 -151 -146
l-59 0 0 145 0 145 38 -1 c20 0 57 -6 82 -12z"/>
<path d="M1180 1370 c0 -5 16 -10 35 -10 l35 0 0 -245 c0 -232 -1 -246 -20
-265 -11 -11 -27 -20 -35 -20 -8 0 -15 -7 -15 -15 0 -12 16 -15 80 -15 62 0
80 3 80 14 0 8 -11 17 -24 20 -13 3 -26 13 -30 21 -6 16 -10 434 -4 440 2 2
44 -89 93 -203 49 -114 98 -227 108 -251 16 -36 21 -41 32 -30 7 8 54 119 106
248 l94 234 3 -213 c2 -188 0 -215 -14 -231 -10 -11 -26 -19 -36 -19 -11 0
-18 -5 -15 -12 5 -17 219 -18 224 -2 2 6 -9 14 -25 17 -16 3 -33 14 -36 24 -4
10 -7 126 -7 258 l0 240 33 6 c52 9 11 21 -62 17 l-63 -3 -84 -210 c-47 -115
-88 -214 -92 -218 -8 -8 -51 85 -147 315 l-49 118 -82 0 c-49 0 -83 -4 -83
-10z"/>
<path d="M3128 1239 c-10 -5 -18 -16 -18 -23 0 -8 -7 -19 -16 -26 -13 -11 -23
-10 -60 8 -63 31 -158 30 -205 -1 -49 -33 -71 -80 -66 -145 4 -63 29 -101 77
-117 36 -12 33 -18 -15 -29 -58 -14 -88 -61 -69 -111 12 -31 63 -46 176 -52
117 -6 158 -23 158 -64 0 -69 -93 -108 -205 -88 -61 11 -67 18 -74 71 -5 38
-9 43 -31 43 -32 0 -49 -42 -32 -79 20 -45 66 -61 172 -61 79 0 102 4 137 23
50 26 73 65 73 124 0 47 -18 81 -53 100 -12 6 -73 14 -135 18 -64 4 -118 12
-125 19 -20 20 7 45 64 58 117 28 158 44 183 74 31 36 42 90 28 135 -10 33 -9
34 19 34 31 0 69 30 69 54 0 12 -26 47 -33 46 -1 0 -10 -5 -19 -11z m-147 -58
c22 -18 24 -27 24 -111 0 -84 -2 -93 -24 -111 -34 -28 -85 -25 -110 7 -42 54
-35 186 13 219 28 21 69 19 97 -4z"/>
<path d="M2008 1195 c-20 -13 -47 -41 -59 -62 -21 -33 -24 -51 -24 -129 0 -81
3 -94 27 -131 66 -100 220 -112 303 -24 40 41 53 83 54 161 1 84 -24 139 -80
179 -37 28 -50 31 -113 31 -59 0 -77 -4 -108 -25z m157 -5 c40 -15 55 -64 55
-180 0 -147 -29 -200 -110 -200 -47 0 -77 22 -90 68 -13 48 -13 196 0 244 19
65 78 93 145 68z"/>
<path d="M2357 1214 c-13 -13 5 -24 39 -24 l34 0 -2 -172 -3 -173 -31 -10
c-61 -20 -35 -30 81 -33 98 -2 115 0 115 13 0 9 -9 15 -24 15 -43 0 -56 33
-56 143 0 106 14 158 48 176 31 17 51 13 84 -14 27 -23 33 -24 52 -12 28 19
31 39 9 66 -38 47 -143 32 -173 -24 -19 -35 -26 -31 -34 15 l-6 40 -63 0 c-35
0 -67 -3 -70 -6z"/>
<path d="M3262 1200 c-39 -24 -57 -63 -41 -91 12 -23 48 -22 59 1 28 62 39 76
61 84 64 22 114 -30 107 -112 l-3 -37 -64 -8 c-114 -14 -181 -65 -181 -139 0
-45 38 -92 85 -104 34 -8 103 12 132 39 l23 20 24 -26 c25 -27 72 -36 111 -21
16 6 45 54 45 74 0 18 -15 11 -25 -12 -13 -28 -29 -33 -49 -13 -13 14 -16 41
-16 161 l0 146 -29 29 c-28 28 -33 29 -118 29 -70 0 -95 -4 -121 -20z m188
-244 c0 -63 -1 -66 -36 -92 -44 -34 -90 -36 -116 -5 -24 31 -23 62 4 96 23 30
90 64 126 65 21 0 22 -4 22 -64z"/>
<path d="M3637 1213 c-12 -12 4 -23 34 -23 l29 0 0 -162 c0 -90 -4 -168 -8
-175 -4 -6 -20 -17 -36 -23 -51 -19 -15 -31 84 -28 96 3 121 15 75 36 -25 12
-25 12 -25 142 0 72 5 140 10 151 27 50 118 61 141 17 15 -28 23 -212 12 -263
-6 -27 -16 -43 -31 -50 -43 -19 -15 -30 78 -30 66 0 95 4 98 13 2 6 -3 12 -11
12 -39 0 -47 27 -47 161 0 89 -4 140 -14 164 -35 82 -163 87 -225 9 -22 -28
-27 -24 -33 26 -3 23 -7 25 -64 27 -33 2 -64 0 -67 -4z"/>
<path d="M482 868 c-28 -28 -7 -78 33 -78 40 0 61 50 33 78 -7 7 -21 12 -33
12 -12 0 -26 -5 -33 -12z"/>
<path d="M996 864 c-30 -30 -13 -74 29 -74 27 0 45 18 45 45 0 42 -44 59 -74
29z"/>
</g>
</svg>
