<?xml version="1.0" encoding="UTF-8"?>
<!DOCTYPE svg PUBLIC "-//W3C//DTD SVG 1.1//EN" "http://www.w3.org/Graphics/SVG/1.1/DTD/svg11.dtd">
<svg xmlns="http://www.w3.org/2000/svg" version="1.1" width="722px" height="728px" style="shape-rendering:geometricPrecision; text-rendering:geometricPrecision; image-rendering:optimizeQuality; fill-rule:evenodd; clip-rule:evenodd" xmlns:xlink="http://www.w3.org/1999/xlink">
<g><path style="opacity:1" fill="#fefdfd" d="M -0.5,-0.5 C 117.5,-0.5 235.5,-0.5 353.5,-0.5C 352.677,13.8173 352.344,28.1506 352.5,42.5C 355.167,42.5 357.833,42.5 360.5,42.5C 360.5,28.1667 360.5,13.8333 360.5,-0.5C 480.833,-0.5 601.167,-0.5 721.5,-0.5C 721.5,242.167 721.5,484.833 721.5,727.5C 480.833,727.5 240.167,727.5 -0.5,727.5C -0.5,629.5 -0.5,531.5 -0.5,433.5C 0.166667,435.167 0.833333,436.833 1.5,438.5C 3.7171,446.441 8.05043,452.941 14.5,458C 28.5877,463.372 38.7544,459.206 45,445.5C 45.9826,433.132 47.3159,420.798 49,408.5C 51.0278,404.866 54.1944,403.2 58.5,403.5C 62.5578,403.446 65.7244,405.112 68,408.5C 72.6126,416.946 73.2793,425.613 70,434.5C 67.408,437.762 64.2413,440.262 60.5,442C 60.9243,449.545 64.2576,451.212 70.5,447C 74.7837,443.712 77.9504,439.545 80,434.5C 82.1081,423.019 80.1081,412.353 74,402.5C 65.3894,392.492 55.5561,390.992 44.5,398C 42.0439,400.408 40.2106,403.241 39,406.5C 37.1162,416.4 36.1162,426.4 36,436.5C 35.0793,448.784 28.9126,452.95 17.5,449C 10.6237,442.905 7.62369,435.238 8.5,426C 8.05696,421.385 9.22362,417.218 12,413.5C 14.894,410.639 18.0607,408.139 21.5,406C 20.1328,403.699 19.4661,401.199 19.5,398.5C 10.6756,400.658 4.67561,405.991 1.5,414.5C 0.833333,416.167 0.166667,417.833 -0.5,419.5C -0.5,279.5 -0.5,139.5 -0.5,-0.5 Z"/></g>
<g><path style="opacity:1" fill="#ab3739" d="M 353.5,-0.5 C 355.833,-0.5 358.167,-0.5 360.5,-0.5C 360.5,13.8333 360.5,28.1667 360.5,42.5C 357.833,42.5 355.167,42.5 352.5,42.5C 352.344,28.1506 352.677,13.8173 353.5,-0.5 Z"/></g>
<g><path style="opacity:1" fill="#aa3538" d="M 319.5,0.5 C 322.247,0.186646 324.914,0.519979 327.5,1.5C 334.124,15.0792 340.458,28.7459 346.5,42.5C 343.813,42.6641 341.146,42.4974 338.5,42C 337.084,39.1651 335.417,36.4985 333.5,34C 328.146,33.668 322.813,34.0013 317.5,35C 315.352,37.3722 314.018,40.2055 313.5,43.5C 311.067,45.0538 308.4,45.7204 305.5,45.5C 308.696,32.7677 312.196,20.1011 316,7.5C 316.891,4.96984 318.058,2.63651 319.5,0.5 Z"/></g>
<g><path style="opacity:1" fill="#faf2f2" d="M 322.5,11.5 C 325.787,15.9009 328.454,20.7342 330.5,26C 326.605,27.2662 322.605,27.7662 318.5,27.5C 319.706,22.138 321.039,16.8046 322.5,11.5 Z"/></g>
<g><path style="opacity:1" fill="#aa3538" d="M 379.5,12.5 C 395.512,11.3443 402.346,18.6776 400,34.5C 395.204,42.9806 388.037,46.1473 378.5,44C 368.112,37.5157 365.946,29.0157 372,18.5C 374.114,15.8792 376.614,13.8792 379.5,12.5 Z"/></g>
<g><path style="opacity:1" fill="#ac3a3c" d="M 413.5,17.5 C 415.833,17.5 418.167,17.5 420.5,17.5C 420.34,19.1992 420.506,20.8659 421,22.5C 427.483,18.4496 433.483,19.1163 439,24.5C 439.667,28.1667 439.667,31.8333 439,35.5C 437.348,41.0725 436.014,46.7392 435,52.5C 432.606,53.1359 430.106,53.1359 427.5,52.5C 428.736,45.1937 430.069,37.8604 431.5,30.5C 430.182,25.9218 427.182,24.4218 422.5,26C 421.692,26.3076 421.025,26.8076 420.5,27.5C 418.358,34.4022 416.691,41.4022 415.5,48.5C 411.973,48.7366 409.306,47.4033 407.5,44.5C 409.237,35.3873 411.237,26.3873 413.5,17.5 Z"/></g>
<g><path style="opacity:1" fill="#fcf7f7" d="M 382.5,18.5 C 389.94,17.6043 393.606,20.9376 393.5,28.5C 392.643,36.877 388.31,39.7103 380.5,37C 379.299,36.0975 378.465,34.9308 378,33.5C 377.333,30.1667 377.333,26.8333 378,23.5C 379.025,21.313 380.525,19.6464 382.5,18.5 Z"/></g>
<g><path style="opacity:1" fill="#aa3638" d="M 263.5,22.5 C 274.511,21.5118 280.845,26.5118 282.5,37.5C 276.206,38.99 269.873,40.3233 263.5,41.5C 264.021,48.0049 267.355,50.0049 273.5,47.5C 275.347,42.8569 278.681,41.5236 283.5,43.5C 279.288,54.1096 271.955,57.2763 261.5,53C 252.272,44.5447 251.272,35.378 258.5,25.5C 260.145,24.3037 261.811,23.3037 263.5,22.5 Z"/></g>
<g><path style="opacity:1" fill="#faf3f3" d="M 264.5,28.5 C 269.093,27.4183 272.093,29.085 273.5,33.5C 269.737,35.4433 265.737,36.7766 261.5,37.5C 261.337,35.1432 261.503,32.8098 262,30.5C 262.995,29.9341 263.828,29.2674 264.5,28.5 Z"/></g>
<g><path style="opacity:1" fill="#aa3538" d="M 456.5,28.5 C 470.642,27.8116 476.475,34.4782 474,48.5C 473.481,49.5156 472.647,50.1822 471.5,50.5C 466.167,48.8333 460.833,47.1667 455.5,45.5C 451.751,47.9158 451.751,50.7491 455.5,54C 458.792,54.9357 461.792,54.4357 464.5,52.5C 471.912,54.3589 472.245,56.8589 465.5,60C 446.842,61.0078 441.009,52.8412 448,35.5C 450.453,32.4472 453.287,30.1139 456.5,28.5 Z"/></g>
<g><path style="opacity:1" fill="#ab373a" d="M 237.5,30.5 C 239.451,30.2267 240.951,30.8934 242,32.5C 246.511,43.0331 250.011,53.8665 252.5,65C 252.802,69.7316 250.802,73.0649 246.5,75C 241.501,77.8914 236.167,78.8914 230.5,78C 224.778,73.2555 225.778,70.7555 233.5,70.5C 244.606,71.8985 247.773,67.5652 243,57.5C 239.197,65.152 233.364,67.3187 225.5,64C 218.044,58.6846 215.21,51.5179 217,42.5C 220.997,35.3196 226.664,33.3196 234,36.5C 234.007,33.6901 235.174,31.6901 237.5,30.5 Z"/></g>
<g><path style="opacity:1" fill="#fcf7f7" d="M 458.5,34.5 C 465.167,33.8333 468.167,36.8333 467.5,43.5C 462.951,43.2641 458.951,41.7641 455.5,39C 456.315,37.3566 457.315,35.8566 458.5,34.5 Z"/></g>
<g><path style="opacity:1" fill="#aa3538" d="M 195.5,35.5 C 202.97,47.8307 210.303,60.3307 217.5,73C 215.735,74.2978 213.901,75.4645 212,76.5C 210.739,76.2409 209.739,75.5742 209,74.5C 201.788,87.0662 193.454,87.7328 184,76.5C 176.947,62.4378 181.113,54.2711 196.5,52C 194.419,47.8359 192.086,43.8359 189.5,40C 191.747,38.7225 193.747,37.2225 195.5,35.5 Z"/></g>
<g><path style="opacity:1" fill="#aa3538" d="M 512.5,36.5 C 514.969,37.5686 517.302,38.9019 519.5,40.5C 514.087,50.9937 508.421,61.327 502.5,71.5C 508.833,75.3333 515.167,79.1667 521.5,83C 520.333,84.8333 519.167,86.6667 518,88.5C 509.914,83.8731 501.747,79.3731 493.5,75C 492.978,74.4387 492.645,73.772 492.5,73C 499.045,60.7419 505.711,48.5753 512.5,36.5 Z"/></g>
<g><path style="opacity:1" fill="#fcf8f8" d="M 227.5,40.5 C 233.302,39.0056 237.136,41.0056 239,46.5C 242.228,55.9064 239.061,59.7398 229.5,58C 223.92,52.6306 223.253,46.7973 227.5,40.5 Z"/></g>
<g><path style="opacity:1" fill="#ac3a3c" d="M 546.5,56.5 C 553.144,58.1015 554.144,61.4348 549.5,66.5C 547.321,65.2433 545.321,63.7433 543.5,62C 544.639,60.2196 545.639,58.3863 546.5,56.5 Z"/></g>
<g><path style="opacity:1" fill="#fbf6f6" d="M 192.5,57.5 C 196.426,57.0466 199.592,58.3799 202,61.5C 203.167,64.3333 204.333,67.1667 205.5,70C 204.115,75.8636 200.449,77.8636 194.5,76C 189.688,71.8991 187.855,66.7324 189,60.5C 190.145,59.3636 191.312,58.3636 192.5,57.5 Z"/></g>
<g><path style="opacity:1" fill="#aa3639" d="M 430.5,64.5 C 435.232,66.2827 439.399,68.9494 443,72.5C 446.754,85.2603 449.754,98.2603 452,111.5C 453.946,112.747 455.78,114.08 457.5,115.5C 456.423,117.729 455.756,120.063 455.5,122.5C 453.063,122.244 450.729,121.577 448.5,120.5C 447.914,120.709 447.414,121.043 447,121.5C 441.52,136.279 435.853,150.945 430,165.5C 427.874,162.242 426.041,158.909 424.5,155.5C 425.095,152.048 426.095,148.714 427.5,145.5C 413.737,145.261 407.904,138.595 410,125.5C 415.148,120.618 421.314,118.618 428.5,119.5C 428.663,121.857 428.497,124.19 428,126.5C 424.924,127.288 421.758,127.788 418.5,128C 415.392,129.94 414.725,132.606 416.5,136C 420.71,136.738 424.876,136.572 429,135.5C 429.945,135.905 430.612,136.572 431,137.5C 434.075,131.11 436.241,124.443 437.5,117.5C 428.416,114.972 419.416,112.139 410.5,109C 411.554,106.618 412.221,104.118 412.5,101.5C 414.857,101.337 417.19,101.503 419.5,102C 428.462,104.823 437.462,107.156 446.5,109C 439.467,101.296 431.3,95.1296 422,90.5C 421.333,87.1667 421.333,83.8333 422,80.5C 427.966,82.7959 433.133,86.2959 437.5,91C 438.6,91.4317 439.267,90.9317 439.5,89.5C 438.877,83.5982 436.21,78.9315 431.5,75.5C 430.511,71.8927 430.177,68.226 430.5,64.5 Z"/></g>
<g><path style="opacity:1" fill="#ab393b" d="M 539.5,66.5 C 541.466,67.4412 543.466,68.4412 545.5,69.5C 546.583,70.365 546.749,71.365 546,72.5C 541.152,80.8737 535.819,88.8737 530,96.5C 527.929,95.2135 525.762,94.0468 523.5,93C 529.736,84.6924 535.069,75.8591 539.5,66.5 Z"/></g>
<g><path style="opacity:1" fill="#a93437" d="M 563.5,68.5 C 566.089,69.4194 568.089,71.086 569.5,73.5C 567.167,76.8333 564.833,80.1667 562.5,83.5C 576.147,88.1308 578.98,96.4641 571,108.5C 563.925,116.928 556.259,117.595 548,110.5C 547.457,108.369 546.624,106.369 545.5,104.5C 544.522,104.977 543.689,105.643 543,106.5C 541.255,105.044 539.422,103.711 537.5,102.5C 546.574,91.4327 555.241,80.0993 563.5,68.5 Z"/></g>
<g><path style="opacity:1" fill="#aa3638" d="M 157.5,71.5 C 165.81,70.4058 172.643,73.0725 178,79.5C 178.688,80.3317 178.521,80.9984 177.5,81.5C 172.014,84.8349 167.014,88.6682 162.5,93C 166.034,97.3269 169.867,97.4935 174,93.5C 173.702,88.9906 175.702,86.324 180,85.5C 181.518,87.6137 181.851,89.947 181,92.5C 171.923,105.973 162.257,106.64 152,94.5C 146.45,85.0351 148.283,77.3684 157.5,71.5 Z"/></g>
<g><path style="opacity:1" fill="#f9f0f0" d="M 159.5,77.5 C 163.539,76.6597 166.539,77.993 168.5,81.5C 165.554,84.3131 162.221,86.6465 158.5,88.5C 156.976,87.4729 156.309,85.9729 156.5,84C 156.391,81.2884 157.391,79.1217 159.5,77.5 Z"/></g>
<g><path style="opacity:1" fill="#ab383a" d="M 128.5,80.5 C 129.496,80.4142 130.329,80.7476 131,81.5C 139.457,92.2929 148.291,102.793 157.5,113C 155.309,114.919 152.976,116.253 150.5,117C 141.124,106.626 132.124,95.9598 123.5,85C 125.063,83.264 126.73,81.764 128.5,80.5 Z"/></g>
<g><path style="opacity:1" fill="#fcf8f8" d="M 558.5,89.5 C 565.327,88.8253 568.16,91.8253 567,98.5C 565.186,105.666 560.686,108.833 553.5,108C 550.606,105.091 549.773,101.591 551,97.5C 553.028,94.3078 555.528,91.6411 558.5,89.5 Z"/></g>
<g><path style="opacity:1" fill="#ab3739" d="M 335.5,103.5 C 332.467,103.868 329.8,103.202 327.5,101.5C 327.5,99.1667 327.5,96.8333 327.5,94.5C 343.492,93.6648 359.492,93.8315 375.5,95C 376.523,97.7742 376.523,100.607 375.5,103.5C 373.167,103.5 370.833,103.5 368.5,103.5C 368.333,119.503 368.5,135.503 369,151.5C 375.781,156.604 377.114,162.937 373,170.5C 366.529,175.209 359.696,175.709 352.5,172C 345.573,166.237 339.906,159.404 335.5,151.5C 336.723,150.386 338.056,150.219 339.5,151C 343.456,157.29 348.456,162.624 354.5,167C 359.14,169.15 363.64,168.984 368,166.5C 371.23,159.449 369.063,156.615 361.5,158C 357.29,163.068 354.29,162.401 352.5,156C 352.759,154.739 353.426,153.739 354.5,153C 357.334,151.4 360.334,150.234 363.5,149.5C 362.5,147.833 361.167,146.5 359.5,145.5C 358.502,137.528 358.169,129.528 358.5,121.5C 352.489,121.801 346.489,122.301 340.5,123C 338.813,124.913 338.313,127.08 339,129.5C 341.078,137.178 345.244,143.345 351.5,148C 350.069,148.465 348.903,149.299 348,150.5C 342.912,145.809 338.412,140.642 334.5,135C 331.422,128.98 330.922,122.813 333,116.5C 333.903,115.299 335.069,114.465 336.5,114C 343.451,112.782 350.451,111.948 357.5,111.5C 358.78,111.637 359.113,109.303 358.5,104.5C 350.858,103.737 343.191,103.403 335.5,103.5 Z"/></g>
<g><path style="opacity:1" fill="#a93336" d="M 123.5,99.5 C 129.439,108.533 134.772,118.033 139.5,128C 137.667,129.833 135.833,131.667 134,133.5C 128.74,130.119 123.24,127.119 117.5,124.5C 117.167,124.833 116.833,125.167 116.5,125.5C 119.538,130.857 122.538,136.19 125.5,141.5C 124.611,143.898 123.111,145.898 121,147.5C 111.367,142.267 101.533,137.433 91.5,133C 93.3501,130.982 95.3501,129.149 97.5,127.5C 103.008,130.755 108.675,133.755 114.5,136.5C 114.833,136.167 115.167,135.833 115.5,135.5C 112.37,130.073 109.37,124.573 106.5,119C 107.628,116.704 109.295,114.871 111.5,113.5C 116.833,116.5 122.167,119.5 127.5,122.5C 128.583,121.635 128.749,120.635 128,119.5C 125.04,114.414 122.206,109.247 119.5,104C 121.041,102.629 122.375,101.129 123.5,99.5 Z"/></g>
<g><path style="opacity:1" fill="#aa3638" d="M 292.5,101.5 C 293.5,101.5 294.5,101.5 295.5,101.5C 296.008,104.176 296.175,106.843 296,109.5C 293.798,110.402 291.632,111.402 289.5,112.5C 293.933,127.298 298.266,142.132 302.5,157C 302.167,157.5 301.833,158 301.5,158.5C 298.291,157.785 295.291,156.618 292.5,155C 291.266,151.8 289.933,148.633 288.5,145.5C 278.935,152.014 271.101,150.347 265,140.5C 263.421,131.997 266.754,126.33 275,123.5C 276.933,124.882 278.766,126.382 280.5,128C 276.102,130.729 272.769,134.396 270.5,139C 271.37,143.511 273.703,144.511 277.5,142C 281.351,139.64 284.018,136.307 285.5,132C 283.932,126.465 282.266,120.965 280.5,115.5C 280,115.167 279.5,114.833 279,114.5C 271.078,117.697 263.078,120.697 255,123.5C 254.228,123.355 253.561,123.022 253,122.5C 252.443,120.385 251.609,118.385 250.5,116.5C 256.124,113.439 261.957,110.772 268,108.5C 269.653,108.82 270.653,109.82 271,111.5C 271.49,110.207 271.657,108.873 271.5,107.5C 278.643,105.634 285.643,103.634 292.5,101.5 Z"/></g>
<g><path style="opacity:1" fill="#ce8a8c" d="M 327.5,101.5 C 329.8,103.202 332.467,103.868 335.5,103.5C 333.052,104.473 330.385,104.806 327.5,104.5C 327.5,103.5 327.5,102.5 327.5,101.5 Z"/></g>
<g><path style="opacity:1" fill="#aa3538" d="M 207.5,107.5 C 219.102,107.783 229.769,111.283 239.5,118C 245.266,116.951 248.6,119.284 249.5,125C 247.561,127.307 245.228,129.14 242.5,130.5C 245.167,135.5 247.833,140.5 250.5,145.5C 245.415,148.124 240.582,151.124 236,154.5C 235.239,164.55 239.739,168.05 249.5,165C 250.28,163.927 250.113,162.76 249,161.5C 247.833,154.667 250.667,151.833 257.5,153C 261.622,156.084 263.456,160.251 263,165.5C 265.25,166.708 267.417,168.041 269.5,169.5C 270.833,170.167 270.833,170.833 269.5,171.5C 268.452,172.383 267.285,173.05 266,173.5C 263.131,171.483 259.964,170.15 256.5,169.5C 242.354,173.95 232.521,169.284 227,155.5C 226.041,151.579 227.208,148.412 230.5,146C 233.249,144.877 235.749,143.377 238,141.5C 237.581,139.497 236.747,137.497 235.5,135.5C 234.635,134.417 233.635,134.251 232.5,135C 226.833,138.167 221.167,141.333 215.5,144.5C 213.6,142.381 211.934,140.047 210.5,137.5C 219.001,132.082 227.668,126.915 236.5,122C 233.282,119.223 229.615,117.223 225.5,116C 219.36,115.347 213.36,115.681 207.5,117C 205.024,115.691 203.024,113.858 201.5,111.5C 203.219,109.648 205.219,108.314 207.5,107.5 Z"/></g>
<g><path style="opacity:1" fill="#aa3639" d="M 584.5,108.5 C 596.24,109.407 601.74,115.74 601,127.5C 599.062,130.39 596.895,133.056 594.5,135.5C 590.71,131.208 586.71,127.042 582.5,123C 581.056,122.219 579.723,122.386 578.5,123.5C 575.997,130.837 578.663,134.337 586.5,134C 587.833,135.667 589.167,137.333 590.5,139C 585.307,141.812 580.307,141.145 575.5,137C 569.355,130.676 568.855,123.843 574,116.5C 576.855,112.789 580.355,110.123 584.5,108.5 Z"/></g>
<g><path style="opacity:1" fill="#fbf4f4" d="M 585.5,116.5 C 593.489,115.317 596.156,118.484 593.5,126C 592.5,126.667 591.5,126.667 590.5,126C 588.333,123.833 586.167,121.667 584,119.5C 583.761,118.212 584.261,117.212 585.5,116.5 Z"/></g>
<g><path style="opacity:1" fill="#aa3538" d="M 459.5,117.5 C 465.844,120.088 472.011,123.088 478,126.5C 478.239,129.697 477.072,132.364 474.5,134.5C 468.178,131.674 462.178,128.341 456.5,124.5C 457.788,122.261 458.788,119.928 459.5,117.5 Z"/></g>
<g><path style="opacity:1" fill="#a93437" d="M 613.5,131.5 C 615.479,132.812 617.145,134.479 618.5,136.5C 618.023,137.478 617.357,138.311 616.5,139C 619.973,139.319 622.806,140.819 625,143.5C 625.548,147.662 623.714,149.162 619.5,148C 618.327,144.472 615.994,143.139 612.5,144C 606.601,147.231 601.268,151.231 596.5,156C 594.255,155.805 592.422,154.638 591,152.5C 590.333,151.833 590.333,151.167 591,150.5C 598.691,144.302 606.191,137.969 613.5,131.5 Z"/></g>
<g><path style="opacity:1" fill="#a93337" d="M 445.5,134.5 C 454.186,135.356 458.519,140.189 458.5,149C 458.549,157.759 454.549,163.592 446.5,166.5C 442.5,166.337 441,164.337 442,160.5C 444.251,158.623 446.751,157.123 449.5,156C 452.347,153.429 453.013,150.429 451.5,147C 448.092,146.02 444.758,144.853 441.5,143.5C 442.84,140.471 444.173,137.471 445.5,134.5 Z"/></g>
<g><path style="opacity:1" fill="#a93236" d="M 481.5,127.5 C 487.609,130.724 493.609,134.224 499.5,138C 494.99,143.899 495.657,144.733 501.5,140.5C 516.82,150.643 530.82,162.477 543.5,176C 541.599,178.613 539.265,180.28 536.5,181C 527.862,172.02 518.362,164.187 508,157.5C 497.695,169.483 487.695,181.817 478,194.5C 476.637,191.41 475.47,188.244 474.5,185C 476.429,181.401 478.763,178.067 481.5,175C 469.721,171.279 466.221,163.779 471,152.5C 476.447,146.71 482.447,146.043 489,150.5C 489.818,153.227 489.652,155.894 488.5,158.5C 485.223,157.62 481.889,156.953 478.5,156.5C 471.451,157.641 470.785,160.308 476.5,164.5C 480.777,165.606 485.11,165.772 489.5,165C 492.926,160.152 496.592,155.485 500.5,151C 493.56,144.571 485.893,139.071 477.5,134.5C 478.592,131.976 479.926,129.643 481.5,127.5 Z"/></g>
<g><path style="opacity:1" fill="#a93336" d="M 205.5,141.5 C 208.002,143.17 210.002,145.336 211.5,148C 206.876,149.575 205.709,152.408 208,156.5C 216.927,168.016 226.094,179.35 235.5,190.5C 231.484,191.77 227.484,191.77 223.5,190.5C 216.181,181.859 209.348,172.859 203,163.5C 201.587,161.586 199.753,160.253 197.5,159.5C 193.209,162.123 189.543,165.456 186.5,169.5C 197.682,180.848 208.682,192.348 219.5,204C 215.691,205.588 211.691,205.922 207.5,205C 202.599,199.93 197.599,195.096 192.5,190.5C 189.329,193.839 186.329,197.339 183.5,201C 185.298,203.966 187.631,206.466 190.5,208.5C 190.167,208.833 189.833,209.167 189.5,209.5C 183.192,210.794 176.859,210.794 170.5,209.5C 168.721,207.807 168.221,205.807 169,203.5C 175.02,196.981 180.853,190.315 186.5,183.5C 184.5,180.833 182.167,178.5 179.5,176.5C 171.65,183.516 164.317,191.016 157.5,199C 155.721,198.956 154.055,198.289 152.5,197C 150.993,196.163 150.493,194.996 151,193.5C 167.113,173.884 185.279,156.551 205.5,141.5 Z"/></g>
<g><path style="opacity:1" fill="#aa3437" d="M 84.5,145.5 C 99.5141,144.049 107.014,150.716 107,165.5C 100.304,178.583 90.9705,180.917 79,172.5C 71.8122,161.673 73.6456,152.673 84.5,145.5 Z"/></g>
<g><path style="opacity:1" fill="#fcf7f7" d="M 85.5,152.5 C 95.3168,152.149 99.8168,156.815 99,166.5C 93.6552,171.128 88.3219,170.795 83,165.5C 80.35,160.266 81.1833,155.933 85.5,152.5 Z"/></g>
<g><path style="opacity:1" fill="#a93437" d="M 624.5,157.5 C 626.966,156.366 629.633,156.199 632.5,157C 638.749,161.662 641.583,167.828 641,175.5C 635.445,180.055 629.612,184.221 623.5,188C 620.405,193.99 617.739,193.657 615.5,187C 616.747,185.506 616.747,184.006 615.5,182.5C 608.969,179.104 606.469,173.77 608,166.5C 610.707,162.965 614.207,161.798 618.5,163C 621.797,165.295 624.797,167.962 627.5,171C 633.354,175.148 635.521,173.648 634,166.5C 632.442,164.232 630.276,163.066 627.5,163C 626.391,161.124 625.391,159.291 624.5,157.5 Z"/></g>
<g><path style="opacity:1" fill="#f8eeee" d="M 615.5,169.5 C 619.929,170.588 623.595,172.921 626.5,176.5C 623.722,179.307 620.389,180.14 616.5,179C 613.03,176.112 612.696,172.946 615.5,169.5 Z"/></g>
<g><path style="opacity:1" fill="#aa3538" d="M 509.5,175.5 C 517.207,175.873 521.207,179.873 521.5,187.5C 527.955,187.203 530.955,190.203 530.5,196.5C 533.599,196.092 535.933,197.259 537.5,200C 544.343,201.694 547.176,199.194 546,192.5C 543.923,190.924 542.423,188.924 541.5,186.5C 543.149,184.35 544.982,182.35 547,180.5C 551.977,186.978 557.144,193.312 562.5,199.5C 559.269,205.246 555.769,205.579 552,200.5C 549.463,203.372 546.63,205.872 543.5,208C 539.193,208.299 535.026,208.466 531,208.5C 530.349,210.235 530.515,211.902 531.5,213.5C 533.316,214.815 534.983,216.315 536.5,218C 539.032,218.619 541.365,219.619 543.5,221C 540.872,222.626 538.539,224.626 536.5,227C 527.117,225.113 522.95,219.279 524,209.5C 526.24,206.047 527.573,202.381 528,198.5C 526.192,196.604 524.025,196.104 521.5,197C 518.675,199.124 516.175,201.624 514,204.5C 512.456,202.532 511.289,200.365 510.5,198C 511.977,195.555 513.81,193.388 516,191.5C 516.743,189.559 516.576,187.726 515.5,186C 508.229,184.221 504.062,187.055 503,194.5C 502.114,199.47 501.448,204.47 501,209.5C 500.577,210.956 499.744,211.456 498.5,211C 497.355,204.248 497.189,197.414 498,190.5C 499.446,183.581 503.279,178.581 509.5,175.5 Z"/></g>
<g><path style="opacity:1" fill="#aa3538" d="M 62.5,177.5 C 64.8568,177.337 67.1902,177.503 69.5,178C 76.6628,181.747 83.6628,185.747 90.5,190C 89.37,192.428 87.87,194.595 86,196.5C 79.7073,192.604 73.2073,189.104 66.5,186C 60.1955,186.006 58.0288,189.172 60,195.5C 66.2455,200.041 72.7455,204.208 79.5,208C 78.1111,209.957 76.6111,211.79 75,213.5C 66.0711,208.956 57.5711,203.79 49.5,198C 49.9398,194.391 51.9398,192.891 55.5,193.5C 54.7635,186.675 57.0968,181.342 62.5,177.5 Z"/></g>
<g><path style="opacity:1" fill="#a83034" d="M 607.5,388.5 C 608.338,388.842 608.672,389.508 608.5,390.5C 594.493,473.078 551.826,535.911 480.5,579C 417.029,613.434 350.362,621.434 280.5,603C 192.705,575.206 133.872,517.706 104,430.5C 99.4903,414.774 96.4903,398.774 95,382.5C 109.92,436.088 144.42,469.255 198.5,482C 253.27,488.978 297.103,470.478 330,426.5C 335.247,417.172 340.081,407.672 344.5,398C 329.705,389.203 317.538,377.703 308,363.5C 294.956,341.122 294.29,318.455 306,295.5C 315.717,283.45 325.051,271.117 334,258.5C 342.917,244.995 347.417,230.162 347.5,214C 346.701,202.873 345.035,191.873 342.5,181C 342.833,180.167 343.167,179.333 343.5,178.5C 377.387,200.876 399.887,231.543 411,270.5C 417.219,305.156 410.219,336.823 390,365.5C 379.512,375.633 369.012,385.633 358.5,395.5C 375.805,441.665 408.471,470.498 456.5,482C 509.713,489.795 553.213,472.962 587,431.5C 596.514,418.472 603.347,404.138 607.5,388.5 Z"/></g>
<g><path style="opacity:1" fill="#a93236" d="M 646.5,181.5 C 648.484,181.383 650.15,182.05 651.5,183.5C 655.943,180.556 659.943,181.056 663.5,185C 661.083,186.626 658.583,188.126 656,189.5C 655.464,191.567 655.964,193.401 657.5,195C 654.141,198.432 651.308,197.932 649,193.5C 643.133,196.335 637.966,200.002 633.5,204.5C 636.243,208.27 635.243,210.103 630.5,210C 626.088,206.997 624.922,203.163 627,198.5C 631.916,194.957 637.083,191.79 642.5,189C 643.907,186.523 645.241,184.023 646.5,181.5 Z"/></g>
<g><path style="opacity:1" fill="#a83034" d="M 148.5,196.5 C 151.099,197.761 153.432,199.427 155.5,201.5C 154.62,203.429 153.62,205.263 152.5,207C 153.101,208.605 154.101,209.938 155.5,211C 167.167,219.333 178.833,227.667 190.5,236C 187.264,238.635 183.597,239.635 179.5,239C 168.889,232.055 158.556,224.722 148.5,217C 146.633,216.289 145.133,216.789 144,218.5C 141.793,221.078 139.96,223.911 138.5,227C 152,235.584 165.667,243.918 179.5,252C 174.189,257.591 168.522,257.924 162.5,253C 152.916,247.292 143.416,241.459 134,235.5C 132.54,237.466 130.873,239.132 129,240.5C 126.929,239.213 124.762,238.047 122.5,237C 130.564,223.019 139.231,209.519 148.5,196.5 Z"/></g>
<g><path style="opacity:1" fill="#a93437" d="M 562.5,203.5 C 565.385,204.545 567.552,206.545 569,209.5C 576.545,221.42 583.711,233.586 590.5,246C 588.083,247.626 585.583,249.126 583,250.5C 582.059,247.607 580.393,245.274 578,243.5C 574.439,245.03 570.939,246.697 567.5,248.5C 566.417,249.365 566.251,250.365 567,251.5C 568.833,254.667 570.667,257.833 572.5,261C 569.995,262.753 567.329,264.253 564.5,265.5C 561.518,262.217 559.018,258.551 557,254.5C 554.757,256.282 552.257,256.782 549.5,256C 548.941,255.275 548.608,254.442 548.5,253.5C 549.973,249.247 551.14,244.914 552,240.5C 553.389,238.773 555.056,237.439 557,236.5C 558.37,238.203 560.036,239.536 562,240.5C 566.08,238.75 569.913,236.583 573.5,234C 571.666,229.995 569.333,226.328 566.5,223C 565.5,222.333 564.5,222.333 563.5,223C 550.582,231.042 537.749,239.208 525,247.5C 524.333,243.833 524.333,240.167 525,236.5C 536.919,228.791 548.752,220.958 560.5,213C 559.5,211.333 558.5,209.667 557.5,208C 559.24,206.483 560.906,204.983 562.5,203.5 Z"/></g>
<g><path style="opacity:1" fill="#aa3639" d="M 32.5,204.5 C 35.4882,210.437 38.4882,216.437 41.5,222.5C 42.3279,223.415 43.3279,224.081 44.5,224.5C 51.2513,223.286 57.918,221.786 64.5,220C 74.5925,217.841 75.9259,220.841 68.5,229C 61.3626,230.586 54.1959,231.752 47,232.5C 46.4484,235.419 47.1151,238.086 49,240.5C 53.2582,243.38 57.7582,245.88 62.5,248C 61.3081,249.912 60.3081,251.912 59.5,254C 58.5,254.667 57.5,254.667 56.5,254C 43.6364,249.048 30.9697,243.715 18.5,238C 19.717,236.352 20.5503,234.519 21,232.5C 21.5613,231.978 22.228,231.645 23,231.5C 27.8905,233.362 32.7238,235.362 37.5,237.5C 37.8333,236.833 38.1667,236.167 38.5,235.5C 35.9591,229.047 33.1257,222.714 30,216.5C 29.3333,214.5 29.3333,212.5 30,210.5C 31.122,208.593 31.9553,206.593 32.5,204.5 Z"/></g>
<g><path style="opacity:1" fill="#aa3538" d="M 649.5,206.5 C 660.628,204.7 666.961,209.2 668.5,220C 668.733,223.459 667.899,226.626 666,229.5C 663.272,231.892 660.272,233.892 657,235.5C 654.477,229.793 651.977,224.126 649.5,218.5C 646.871,216.95 645.037,217.616 644,220.5C 643.333,222.833 643.333,225.167 644,227.5C 645.912,228.692 647.912,229.692 650,230.5C 653.918,237.219 652.085,239.053 644.5,236C 637.214,229.594 635.714,222.094 640,213.5C 643.145,211.024 646.312,208.69 649.5,206.5 Z"/></g>
<g><path style="opacity:1" fill="#f6e8e8" d="M 654.5,213.5 C 661.314,213.49 663.814,216.823 662,223.5C 660.846,224.743 659.512,225.743 658,226.5C 655.639,223.112 653.806,219.446 652.5,215.5C 653.243,214.818 653.909,214.151 654.5,213.5 Z"/></g>
<g><path style="opacity:1" fill="#aa3538" d="M 666.5,239.5 C 675.108,238.27 680.275,241.937 682,250.5C 683.688,256.311 682.188,260.978 677.5,264.5C 673.626,260.847 672.96,256.847 675.5,252.5C 675.124,248.614 673.124,246.78 669.5,247C 668.9,253.831 668.067,260.664 667,267.5C 660.023,272.327 654.356,270.994 650,263.5C 647.248,256.378 648.081,249.878 652.5,244C 653.332,243.312 653.998,243.479 654.5,244.5C 655.447,246.059 656.113,247.726 656.5,249.5C 653.082,255.335 654.249,260.001 660,263.5C 660.414,263.043 660.914,262.709 661.5,262.5C 662.33,256.528 662.83,250.528 663,244.5C 663.997,242.677 665.164,241.01 666.5,239.5 Z"/></g>
<g><path style="opacity:1" fill="#aa3639" d="M 118.5,243.5 C 122.809,243.67 125.309,245.67 126,249.5C 122.274,258.01 118.941,266.677 116,275.5C 115.439,276.022 114.772,276.355 114,276.5C 111.953,275.391 109.787,274.724 107.5,274.5C 110.884,264.066 114.551,253.732 118.5,243.5 Z"/></g>
<g><path style="opacity:1" fill="#a93336" d="M 133.5,246.5 C 136.686,246.613 139.353,247.78 141.5,250C 140.244,254.775 138.411,259.275 136,263.5C 135.333,264.833 135.333,266.167 136,267.5C 139.999,263.087 144.832,260.087 150.5,258.5C 152.912,258.406 154.745,259.406 156,261.5C 157.442,264.05 158.608,266.716 159.5,269.5C 162.446,270.321 165.446,270.321 168.5,269.5C 168.66,271.199 168.494,272.866 168,274.5C 165.184,275.662 162.35,276.829 159.5,278C 158.084,280.835 156.417,283.502 154.5,286C 149.515,287.757 146.849,286.09 146.5,281C 146.542,279.033 147.042,277.199 148,275.5C 152.809,273.738 154.309,270.571 152.5,266C 151.167,265.333 149.833,265.333 148.5,266C 143.986,269.091 139.653,272.425 135.5,276C 129.783,279.107 126.116,277.607 124.5,271.5C 127.309,263.072 130.309,254.739 133.5,246.5 Z"/></g>
<g><path style="opacity:1" fill="#a93336" d="M 590.5,250.5 C 594.28,257.409 597.613,264.743 600.5,272.5C 598.65,274.572 596.317,275.905 593.5,276.5C 591.438,274.597 590.104,272.263 589.5,269.5C 574.666,276.273 559.666,282.273 544.5,287.5C 545.167,283.5 545.833,279.5 546.5,275.5C 559.345,271.439 572.011,266.773 584.5,261.5C 584.949,258.956 584.949,256.29 584.5,253.5C 587.089,253.539 589.089,252.539 590.5,250.5 Z"/></g>
<g><path style="opacity:1" fill="#aa3739" d="M 532.5,271.5 C 539.442,274.255 542.275,279.255 541,286.5C 537.007,292.488 532.341,297.821 527,302.5C 525.941,302.37 525.108,301.87 524.5,301C 528.539,295.758 532.205,290.258 535.5,284.5C 533.36,281.939 531.027,279.605 528.5,277.5C 530.278,275.736 531.611,273.736 532.5,271.5 Z"/></g>
<g><path style="opacity:1" fill="#cf8a8c" d="M 608.5,390.5 C 608.672,389.508 608.338,388.842 607.5,388.5C 607.687,386.436 608.187,384.436 609,382.5C 609.801,385.367 609.634,388.034 608.5,390.5 Z"/></g>
<g><path style="opacity:1" fill="#aa3538" d="M 659.5,387.5 C 661.89,388.446 664.056,389.779 666,391.5C 665.561,394.43 665.061,397.43 664.5,400.5C 664.902,404.101 666.569,406.935 669.5,409C 682.544,413.261 695.877,416.261 709.5,418C 710.232,421.153 709.899,424.32 708.5,427.5C 689.736,424.262 671.069,420.595 652.5,416.5C 653.374,414.253 653.708,411.92 653.5,409.5C 662.306,412.121 663.473,410.454 657,404.5C 653.869,398.35 654.702,392.683 659.5,387.5 Z"/></g>
<g><path style="opacity:1" fill="#a93337" d="M 1.5,438.5 C 1.5,430.5 1.5,422.5 1.5,414.5C 4.67561,405.991 10.6756,400.658 19.5,398.5C 19.4661,401.199 20.1328,403.699 21.5,406C 18.0607,408.139 14.894,410.639 12,413.5C 9.22362,417.218 8.05696,421.385 8.5,426C 7.62369,435.238 10.6237,442.905 17.5,449C 28.9126,452.95 35.0793,448.784 36,436.5C 36.1162,426.4 37.1162,416.4 39,406.5C 40.2106,403.241 42.0439,400.408 44.5,398C 55.5561,390.992 65.3894,392.492 74,402.5C 80.1081,412.353 82.1081,423.019 80,434.5C 77.9504,439.545 74.7837,443.712 70.5,447C 64.2576,451.212 60.9243,449.545 60.5,442C 64.2413,440.262 67.408,437.762 70,434.5C 73.2793,425.613 72.6126,416.946 68,408.5C 65.7244,405.112 62.5578,403.446 58.5,403.5C 54.1944,403.2 51.0278,404.866 49,408.5C 47.3159,420.798 45.9826,433.132 45,445.5C 38.7544,459.206 28.5877,463.372 14.5,458C 8.05043,452.941 3.7171,446.441 1.5,438.5 Z"/></g>
<g><path style="opacity:1" fill="#c36e71" d="M 1.5,414.5 C 1.5,422.5 1.5,430.5 1.5,438.5C 0.833333,436.833 0.166667,435.167 -0.5,433.5C -0.5,428.833 -0.5,424.167 -0.5,419.5C 0.166667,417.833 0.833333,416.167 1.5,414.5 Z"/></g>
<g><path style="opacity:1" fill="#aa3538" d="M 702.5,451.5 C 700.5,451.5 698.5,451.5 696.5,451.5C 696.232,453.099 696.566,454.432 697.5,455.5C 699.661,464.932 698.494,473.932 694,482.5C 682.808,491.519 673.475,489.853 666,477.5C 665.757,467.101 666.591,456.767 668.5,446.5C 664.24,438.975 659.073,438.641 653,445.5C 650.077,451.189 649.077,457.189 650,463.5C 651.643,465.977 653.476,468.31 655.5,470.5C 654.649,472.882 653.316,474.882 651.5,476.5C 644.841,472.83 641.507,467.163 641.5,459.5C 641.753,449.497 645.42,440.997 652.5,434C 656.262,431.844 660.262,431.177 664.5,432C 678.215,436.962 692.215,440.795 706.5,443.5C 705.716,446.57 704.383,449.237 702.5,451.5 Z"/></g>
<g><path style="opacity:1" fill="#fdfafa" d="M 675.5,446.5 C 688.764,447.938 694.264,455.271 692,468.5C 688.814,479.233 682.814,481.233 674,474.5C 673.799,465.14 674.299,455.806 675.5,446.5 Z"/></g>
<g><path style="opacity:1" fill="#d19193" d="M 702.5,451.5 C 701.081,452.451 699.415,452.784 697.5,452.5C 697.5,453.5 697.5,454.5 697.5,455.5C 696.566,454.432 696.232,453.099 696.5,451.5C 698.5,451.5 700.5,451.5 702.5,451.5 Z"/></g>
<g><path style="opacity:1" fill="#a93437" d="M 50.5,461.5 C 71.15,463.333 80.3167,474.666 78,495.5C 73.674,506.931 65.5073,514.098 53.5,517C 34.7256,520.248 23.559,512.415 20,493.5C 19.8685,479.63 26.3685,470.13 39.5,465C 43.2541,463.691 46.9207,462.525 50.5,461.5 Z"/></g>
<g><path style="opacity:1" fill="#fdfbfb" d="M 49.5,471.5 C 64.2463,470.081 71.413,476.748 71,491.5C 64.3245,504.758 53.4912,510.592 38.5,509C 29.4485,504.21 25.9485,496.71 28,486.5C 33.4383,478.875 40.605,473.875 49.5,471.5 Z"/></g>
<g><path style="opacity:1" fill="#a93437" d="M 632.5,485.5 C 637.599,485.175 642.599,485.675 647.5,487C 659.698,493.596 671.698,500.429 683.5,507.5C 682.487,510.203 680.987,512.536 679,514.5C 667.075,507.581 654.908,501.081 642.5,495C 632.792,494.368 627.792,499.035 627.5,509C 628.054,516.229 631.721,521.229 638.5,524C 647.826,528.661 656.826,533.828 665.5,539.5C 664.487,542.203 662.987,544.536 661,546.5C 637.745,534.459 614.912,521.792 592.5,508.5C 593.934,505.953 595.6,503.619 597.5,501.5C 605.004,506.087 612.671,510.42 620.5,514.5C 618.666,502.493 622.666,492.826 632.5,485.5 Z"/></g>
<g><path style="opacity:1" fill="#a93337" d="M 84.5,506.5 C 87.2596,507.423 89.2596,509.256 90.5,512C 88.5,513.667 86.5,515.333 84.5,517C 100.91,519.219 107.91,528.386 105.5,544.5C 119.994,544.826 127.161,552.16 127,566.5C 125.353,571.156 122.52,574.989 118.5,578C 108.243,585.712 98.0765,593.546 88,601.5C 86.1667,599.167 84.3333,596.833 82.5,594.5C 94.1449,585.356 105.645,576.023 117,566.5C 118.455,552.305 112.288,547.139 98.5,551C 87.9892,558.848 77.4892,566.681 67,574.5C 64.2735,572.815 62.9402,570.482 63,567.5C 74.3187,558.512 85.3187,549.179 96,539.5C 98.2495,532.163 95.7495,526.996 88.5,524C 81.2247,522.98 74.8914,524.98 69.5,530C 62.5,535.667 55.5,541.333 48.5,547C 47.5,547.667 46.5,547.667 45.5,547C 44.6959,545.229 43.5292,543.729 42,542.5C 41.4926,541.004 41.9926,539.837 43.5,539C 57.6416,528.683 71.3082,517.85 84.5,506.5 Z"/></g>
<g><path style="opacity:1" fill="#ac3b3d" d="M 585.5,517.5 C 588.615,519.231 591.615,521.231 594.5,523.5C 592.667,525.833 590.833,528.167 589,530.5C 586.079,528.623 583.246,526.623 580.5,524.5C 582.422,522.313 584.088,519.98 585.5,517.5 Z"/></g>
<g><path style="opacity:1" fill="#a93337" d="M 603.5,530.5 C 619.805,540.327 635.472,551.16 650.5,563C 649.025,565.309 647.358,567.476 645.5,569.5C 629.696,558.862 614.029,548.028 598.5,537C 600.539,535.074 602.206,532.907 603.5,530.5 Z"/></g>
<g><path style="opacity:1" fill="#a93336" d="M 595.5,541.5 C 604.559,558.616 613.392,575.95 622,593.5C 622.179,597.535 620.345,600.535 616.5,602.5C 598.197,594.684 579.864,586.851 561.5,579C 562.976,576.357 564.976,574.19 567.5,572.5C 581.118,577.734 594.452,583.568 607.5,590C 608.635,590.749 609.635,590.583 610.5,589.5C 603.713,576.093 597.046,562.593 590.5,549C 592.295,546.574 593.962,544.074 595.5,541.5 Z"/></g>
<g><path style="opacity:1" fill="#aa3437" d="M 134.5,578.5 C 149.857,578.764 161.023,585.764 168,599.5C 168.823,603.738 168.156,607.738 166,611.5C 159.097,618.98 152.431,626.646 146,634.5C 142.889,638.387 140.556,642.72 139,647.5C 136.651,644.983 134.151,642.65 131.5,640.5C 132.747,638.677 133.414,636.677 133.5,634.5C 118.056,634.041 108.723,626.374 105.5,611.5C 106.399,602.127 111.566,597.127 121,596.5C 122.833,596.667 124.667,596.833 126.5,597C 135.5,602.167 144.5,607.333 153.5,612.5C 158.407,607.984 159.574,602.65 157,596.5C 154.079,592.908 150.579,590.075 146.5,588C 141.644,587.289 136.978,587.622 132.5,589C 131.044,587.255 129.711,585.422 128.5,583.5C 130.531,581.825 132.531,580.159 134.5,578.5 Z"/></g>
<g><path style="opacity:1" fill="#a93336" d="M 553.5,588.5 C 556.311,588.826 558.978,589.659 561.5,591C 569.086,598.582 575.919,606.748 582,615.5C 585.39,619.393 589.223,622.727 593.5,625.5C 591.833,627.833 589.833,629.833 587.5,631.5C 585.513,629.673 583.179,628.673 580.5,628.5C 578.036,639.805 571.369,647.639 560.5,652C 545.691,652.636 539.524,645.469 542,630.5C 543.752,627.328 545.752,624.328 548,621.5C 553.388,616.615 558.221,611.282 562.5,605.5C 558.483,598.615 552.817,596.782 545.5,600C 537.298,604.399 534.298,611.066 536.5,620C 529.709,626.609 526.376,624.942 526.5,615C 528.736,605.428 534.07,598.095 542.5,593C 546.157,591.178 549.824,589.678 553.5,588.5 Z"/></g>
<g><path style="opacity:1" fill="#a83135" d="M 194.5,589.5 C 203.155,592.486 203.821,596.82 196.5,602.5C 193.603,601.57 191.27,599.903 189.5,597.5C 191.178,594.805 192.844,592.139 194.5,589.5 Z"/></g>
<g><path style="opacity:1" fill="#fcf8f9" d="M 120.5,604.5 C 124.813,604.548 128.813,605.715 132.5,608C 137.5,610.833 142.5,613.667 147.5,616.5C 148.583,617.365 148.749,618.365 148,619.5C 137.179,630.294 126.513,629.96 116,618.5C 114.309,612.61 115.809,607.944 120.5,604.5 Z"/></g>
<g><path style="opacity:1" fill="#a83135" d="M 182.5,607.5 C 185.149,609.14 187.816,610.807 190.5,612.5C 180.497,627.843 170.497,643.176 160.5,658.5C 157.247,658.876 154.58,657.542 152.5,654.5C 162.767,638.956 172.767,623.289 182.5,607.5 Z"/></g>
<g><path style="opacity:1" fill="#fcf8f8" d="M 566.5,611.5 C 572.93,616.626 575.097,623.293 573,631.5C 569.679,640.07 563.513,643.904 554.5,643C 550.723,640.045 549.557,636.212 551,631.5C 556.382,624.958 561.548,618.291 566.5,611.5 Z"/></g>
<g><path style="opacity:1" fill="#aa3639" d="M 518.5,612.5 C 519.725,613.152 520.392,614.319 520.5,616C 523.866,638.426 526.532,660.926 528.5,683.5C 530.51,693.492 526.844,700.158 517.5,703.5C 514.755,702.538 512.755,700.705 511.5,698C 521.703,693.576 524.203,686.41 519,676.5C 504.29,662.953 489.457,649.62 474.5,636.5C 477.137,634.173 480.137,633.007 483.5,633C 494.982,642.981 506.316,653.148 517.5,663.5C 516.271,648.553 514.271,633.553 511.5,618.5C 511.608,617.558 511.941,616.725 512.5,616C 514.727,615.059 516.727,613.892 518.5,612.5 Z"/></g>
<g><path style="opacity:1" fill="#a93336" d="M 460.5,616.5 C 461.315,617.429 462.148,618.429 463,619.5C 471.094,643.387 479.261,667.22 487.5,691C 484.568,692.145 481.568,692.978 478.5,693.5C 478.769,691.571 478.269,689.905 477,688.5C 468.355,702.509 456.855,705.343 442.5,697C 429.292,684.919 425.792,670.419 432,653.5C 439.357,643.376 448.857,640.709 460.5,645.5C 460.833,645 461.167,644.5 461.5,644C 458.932,636.129 456.265,628.296 453.5,620.5C 455.643,618.79 457.977,617.457 460.5,616.5 Z"/></g>
<g><path style="opacity:1" fill="#aa3538" d="M 197.5,617.5 C 201.308,618.72 204.308,620.887 206.5,624C 203.674,639.114 201.507,654.281 200,669.5C 211.8,659.369 223.3,648.869 234.5,638C 237.542,638.327 240.209,639.66 242.5,642C 224.5,658 206.5,674 188.5,690C 181.435,696.473 174.102,696.973 166.5,691.5C 165.242,688.278 165.742,685.278 168,682.5C 177.433,688.694 184.767,686.694 190,676.5C 192.173,656.777 194.673,637.111 197.5,617.5 Z"/></g>
<g><path style="opacity:1" fill="#aa3538" d="M 405.5,632.5 C 407.167,632.5 408.833,632.5 410.5,632.5C 410.852,635.428 411.518,638.262 412.5,641C 408.631,642.456 404.797,642.956 401,642.5C 392.569,667.125 383.736,691.625 374.5,716C 371.118,716.824 367.784,716.657 364.5,715.5C 353.629,690.26 342.629,665.093 331.5,640C 335.12,638.421 338.786,638.255 342.5,639.5C 351.098,660.794 359.598,682.127 368,703.5C 368.368,704.91 369.201,705.91 370.5,706.5C 378.198,683.241 386.198,660.074 394.5,637C 396.81,636.503 399.143,636.337 401.5,636.5C 401.5,635.5 401.5,634.5 401.5,633.5C 403.099,633.768 404.432,633.434 405.5,632.5 Z"/></g>
<g><path style="opacity:1" fill="#aa3538" d="M 252.5,644.5 C 263.21,643.593 272.877,646.26 281.5,652.5C 283.499,654.493 284.999,656.827 286,659.5C 282.366,676.047 279.033,692.714 276,709.5C 273.384,708.347 270.718,707.347 268,706.5C 267.503,704.19 267.337,701.857 267.5,699.5C 259.327,702.651 250.993,703.151 242.5,701C 231.105,695.961 227.939,687.794 233,676.5C 234.873,674.291 237.04,672.458 239.5,671C 251.35,669.658 263.183,669.158 275,669.5C 277.73,663.704 276.563,658.87 271.5,655C 265.328,651.86 258.995,651.194 252.5,653C 250.615,655.222 248.449,657.056 246,658.5C 243.61,657.722 241.443,656.555 239.5,655C 242.55,649.771 246.883,646.271 252.5,644.5 Z"/></g>
<g><path style="opacity:1" fill="#fdfbfb" d="M 446.5,650.5 C 451.777,649.931 456.777,650.765 461.5,653C 472.148,663.743 474.481,675.91 468.5,689.5C 461.729,694.634 454.729,694.801 447.5,690C 438.633,680.182 436.133,669.015 440,656.5C 442.063,654.266 444.229,652.266 446.5,650.5 Z"/></g>
<g><path style="opacity:1" fill="#ac3b3c" d="M 410.5,653.5 C 412.144,653.286 413.644,653.62 415,654.5C 418.054,672.936 421.554,691.269 425.5,709.5C 422.193,710.051 418.86,710.384 415.5,710.5C 412.298,691.824 408.965,673.157 405.5,654.5C 407.415,654.784 409.081,654.451 410.5,653.5 Z"/></g>
<g><path style="opacity:1" fill="#fdfafa" d="M 243.5,677.5 C 253.206,677.245 262.873,677.579 272.5,678.5C 269.8,694.519 260.8,699.686 245.5,694C 238.447,689.284 237.78,683.784 243.5,677.5 Z"/></g>
</svg>
