<?xml version="1.0" encoding="UTF-8"?>
<!DOCTYPE svg PUBLIC "-//W3C//DTD SVG 1.1//EN" "http://www.w3.org/Graphics/SVG/1.1/DTD/svg11.dtd">
<svg xmlns="http://www.w3.org/2000/svg" version="1.1" width="1200px" height="1170px" style="shape-rendering:geometricPrecision; text-rendering:geometricPrecision; image-rendering:optimizeQuality; fill-rule:evenodd; clip-rule:evenodd" xmlns:xlink="http://www.w3.org/1999/xlink">
<g><path style="opacity:1" fill="#fefefe" d="M -0.5,-0.5 C 181.167,-0.5 362.833,-0.5 544.5,-0.5C 544.5,0.166667 544.5,0.833333 544.5,1.5C 541.626,1.62339 539.126,2.62339 537,4.5C 529.979,31.2499 522.646,57.9166 515,84.5C 514.682,86.0609 513.849,87.2276 512.5,88C 487.073,93.1484 461.907,99.315 437,106.5C 430.989,101.488 425.323,96.1547 420,90.5C 407.392,75.8838 394.725,61.2171 382,46.5C 380.561,44.552 378.728,43.2186 376.5,42.5C 359.226,48.7536 342.559,56.2536 326.5,65C 301.805,79.04 277.638,93.8733 254,109.5C 253.333,111.5 253.333,113.5 254,115.5C 257.075,121.89 259.241,128.557 260.5,135.5C 261.025,139.533 262.358,143.2 264.5,146.5C 269.428,160.783 274.261,175.116 279,189.5C 279.667,190.833 279.667,192.167 279,193.5C 259.898,209.932 241.398,227.098 223.5,245C 222.167,245.667 220.833,245.667 219.5,245C 195.086,232.569 170.42,220.736 145.5,209.5C 141.542,212.957 137.708,216.623 134,220.5C 106.096,253.058 83.0958,288.724 65,327.5C 77.4415,339.942 89.7749,352.275 102,364.5C 110.424,373.083 118.257,382.083 125.5,391.5C 115.903,414.625 107.903,438.291 101.5,462.5C 71.825,465.751 42.1583,469.084 12.5,472.5C 6.85289,497.068 2.51956,521.734 -0.5,546.5C -0.5,364.167 -0.5,181.833 -0.5,-0.5 Z"/></g>
<g><path style="opacity:1" fill="#54667a" d="M 544.5,-0.5 C 551.833,-0.5 559.167,-0.5 566.5,-0.5C 559.354,0.615891 552.02,1.28256 544.5,1.5C 544.5,0.833333 544.5,0.166667 544.5,-0.5 Z"/></g>
<g><path style="opacity:1" fill="#0750a1" d="M 566.5,-0.5 C 587.167,-0.5 607.833,-0.5 628.5,-0.5C 638.674,0.655319 649.007,1.65532 659.5,2.5C 663.747,2.88384 667.914,3.5505 672,4.5C 679.097,33.0541 686.263,61.5541 693.5,90C 717.604,94.276 741.271,100.276 764.5,108C 766.5,108.667 768.5,108.667 770.5,108C 791.402,87.428 812.569,67.2614 834,47.5C 852.53,56.1808 871.03,65.0142 889.5,74C 906.966,84.6355 924.3,95.4688 941.5,106.5C 944.716,109.219 947.716,112.052 950.5,115C 942.625,139.988 935.125,165.155 928,190.5C 927.333,192.5 927.333,194.5 928,196.5C 938.106,204.934 947.939,213.768 957.5,223C 966.484,231.321 974.817,240.321 982.5,250C 984.5,250.667 986.5,250.667 988.5,250C 1012.02,240.489 1035.69,231.156 1059.5,222C 1062.03,221.104 1064.19,221.604 1066,223.5C 1093.07,257.598 1116.57,294.098 1136.5,333C 1136.33,333.833 1136.17,334.667 1136,335.5C 1118.19,354.06 1100.19,372.393 1082,390.5C 1080.24,392.742 1078.74,395.076 1077.5,397.5C 1082.82,409.624 1087.65,421.957 1092,434.5C 1095.46,444.336 1098.29,454.336 1100.5,464.5C 1126.89,467.485 1153.23,470.985 1179.5,475C 1182.12,475.151 1184.45,475.985 1186.5,477.5C 1191.66,501.284 1195.33,525.284 1197.5,549.5C 1197.74,559.014 1198.41,568.347 1199.5,577.5C 1199.5,588.167 1199.5,598.833 1199.5,609.5C 1171.64,617.397 1144.14,626.397 1117,636.5C 1113.4,660.473 1110.07,684.473 1107,708.5C 1130.75,724.919 1153.91,742.086 1176.5,760C 1177.02,760.561 1177.36,761.228 1177.5,762C 1176.1,766.166 1174.77,770.333 1173.5,774.5C 1171.93,777.215 1170.93,780.215 1170.5,783.5C 1158.96,819.318 1143.96,853.651 1125.5,886.5C 1123.24,887.647 1120.9,887.814 1118.5,887C 1092.59,880.885 1066.59,875.552 1040.5,871C 1033.18,880.312 1026.68,890.145 1021,900.5C 1012.59,910.347 1004.92,920.68 998,931.5C 995.926,933.422 993.76,935.089 991.5,936.5C 979.103,928.279 967.103,919.446 955.5,910C 930.434,888.593 905.1,867.593 879.5,847C 877.671,845.887 876.837,844.387 877,842.5C 943.458,765.801 974.125,676.467 969,574.5C 961.036,470.739 918.203,384.906 840.5,317C 740.859,237.014 628.525,211.681 503.5,241C 404.544,270.377 329.044,329.543 277,418.5C 214.023,538.973 215.023,658.973 280,778.5C 286.333,789.167 292.667,799.833 299,810.5C 308.829,823.622 318.496,836.622 328,849.5C 289.989,880.18 251.989,910.847 214,941.5C 195.457,921.056 178.957,899.056 164.5,875.5C 163.5,874.667 162.5,873.833 161.5,873C 156.81,872.668 152.143,873.002 147.5,874C 127.191,877.746 106.857,881.246 86.5,884.5C 81.7732,884.779 77.1065,885.446 72.5,886.5C 50.5999,845.531 33.2666,802.697 20.5,758C 44.969,742.261 69.6357,726.761 94.5,711.5C 93.2933,699.226 91.46,686.892 89,674.5C 86.5139,660.599 85.0139,646.599 84.5,632.5C 56.0326,624.967 27.6993,616.967 -0.5,608.5C -0.5,587.833 -0.5,567.167 -0.5,546.5C 2.51956,521.734 6.85289,497.068 12.5,472.5C 42.1583,469.084 71.825,465.751 101.5,462.5C 107.903,438.291 115.903,414.625 125.5,391.5C 118.257,382.083 110.424,373.083 102,364.5C 89.7749,352.275 77.4415,339.942 65,327.5C 83.0958,288.724 106.096,253.058 134,220.5C 137.708,216.623 141.542,212.957 145.5,209.5C 170.42,220.736 195.086,232.569 219.5,245C 220.833,245.667 222.167,245.667 223.5,245C 241.398,227.098 259.898,209.932 279,193.5C 279.667,192.167 279.667,190.833 279,189.5C 274.261,175.116 269.428,160.783 264.5,146.5C 264.333,142.327 263,138.66 260.5,135.5C 259.241,128.557 257.075,121.89 254,115.5C 253.333,113.5 253.333,111.5 254,109.5C 277.638,93.8733 301.805,79.04 326.5,65C 342.559,56.2536 359.226,48.7536 376.5,42.5C 378.728,43.2186 380.561,44.552 382,46.5C 394.725,61.2171 407.392,75.8838 420,90.5C 425.323,96.1547 430.989,101.488 437,106.5C 461.907,99.315 487.073,93.1484 512.5,88C 513.849,87.2276 514.682,86.0609 515,84.5C 522.646,57.9166 529.979,31.2499 537,4.5C 539.126,2.62339 541.626,1.62339 544.5,1.5C 552.02,1.28256 559.354,0.615891 566.5,-0.5 Z"/></g>
<g><path style="opacity:1" fill="#5e7995" d="M 628.5,-0.5 C 637.833,-0.5 647.167,-0.5 656.5,-0.5C 657.1,0.899922 658.1,1.89992 659.5,2.5C 649.007,1.65532 638.674,0.655319 628.5,-0.5 Z"/></g>
<g><path style="opacity:1" fill="#fefefe" d="M 656.5,-0.5 C 837.5,-0.5 1018.5,-0.5 1199.5,-0.5C 1199.5,183.167 1199.5,366.833 1199.5,550.5C 1198.83,550.167 1198.17,549.833 1197.5,549.5C 1195.33,525.284 1191.66,501.284 1186.5,477.5C 1184.45,475.985 1182.12,475.151 1179.5,475C 1153.23,470.985 1126.89,467.485 1100.5,464.5C 1098.29,454.336 1095.46,444.336 1092,434.5C 1087.65,421.957 1082.82,409.624 1077.5,397.5C 1078.74,395.076 1080.24,392.742 1082,390.5C 1100.19,372.393 1118.19,354.06 1136,335.5C 1136.17,334.667 1136.33,333.833 1136.5,333C 1116.57,294.098 1093.07,257.598 1066,223.5C 1064.19,221.604 1062.03,221.104 1059.5,222C 1035.69,231.156 1012.02,240.489 988.5,250C 986.5,250.667 984.5,250.667 982.5,250C 974.817,240.321 966.484,231.321 957.5,223C 947.939,213.768 938.106,204.934 928,196.5C 927.333,194.5 927.333,192.5 928,190.5C 935.125,165.155 942.625,139.988 950.5,115C 947.716,112.052 944.716,109.219 941.5,106.5C 924.3,95.4688 906.966,84.6355 889.5,74C 871.03,65.0142 852.53,56.1808 834,47.5C 812.569,67.2614 791.402,87.428 770.5,108C 768.5,108.667 766.5,108.667 764.5,108C 741.271,100.276 717.604,94.276 693.5,90C 686.263,61.5541 679.097,33.0541 672,4.5C 667.914,3.5505 663.747,2.88384 659.5,2.5C 658.1,1.89992 657.1,0.899922 656.5,-0.5 Z"/></g>
<g><path style="opacity:1" fill="#fdfefe" d="M 556.5,22.5 C 581.169,22.3334 605.836,22.5 630.5,23C 638.881,23.4522 647.214,24.2855 655.5,25.5C 661.672,52.5207 668.005,79.5207 674.5,106.5C 674.818,107.647 675.484,108.481 676.5,109C 710.309,114.882 743.309,123.715 775.5,135.5C 794.681,116.485 814.014,97.6519 833.5,79C 835.394,77.5962 837.394,76.4295 839.5,75.5C 870.361,87.9219 899.028,103.922 925.5,123.5C 917.045,150.66 909.545,177.993 903,205.5C 930.063,226.894 954.896,250.727 977.5,277C 1004.14,268.284 1030.47,258.451 1056.5,247.5C 1076.83,273.526 1094.83,301.192 1110.5,330.5C 1090.47,350.529 1070.8,370.863 1051.5,391.5C 1063.22,418.48 1073.05,446.146 1081,474.5C 1081.83,477.793 1082.33,481.126 1082.5,484.5C 1111.11,488.602 1139.78,492.269 1168.5,495.5C 1174.14,527.915 1177.14,560.582 1177.5,593.5C 1151.04,601.487 1124.7,609.987 1098.5,619C 1097.38,619.839 1096.71,621.006 1096.5,622.5C 1093.87,654.561 1088.87,686.228 1081.5,717.5C 1105.31,734.807 1128.97,752.307 1152.5,770C 1142.47,801.563 1129.8,832.063 1114.5,861.5C 1112.58,862.641 1110.58,862.808 1108.5,862C 1083.01,856.501 1057.51,851.001 1032,845.5C 1030.11,845.785 1028.78,846.785 1028,848.5C 1016.18,868.652 1003.18,887.985 989,906.5C 961.296,885.803 934.463,863.969 908.5,841C 977.264,750.456 1003.76,648.623 988,535.5C 965.595,415.181 902.428,323.348 798.5,260C 703.866,207.004 603.866,193.67 498.5,220C 389.458,252.24 307.624,318.073 253,417.5C 189.86,546.787 194.193,673.787 266,798.5C 275.386,814.778 285.886,830.278 297.5,845C 271.582,867.589 245.082,889.422 218,910.5C 201.575,891.149 186.742,870.649 173.5,849C 167.796,848.47 162.129,848.803 156.5,850C 136.147,853.559 115.814,857.225 95.5,861C 92.1667,861.667 88.8333,861.667 85.5,861C 78.4213,849.009 72.2547,836.509 67,823.5C 59.712,805.637 53.212,787.471 47.5,769C 47.6448,768.228 47.9781,767.561 48.5,767C 72.933,752.229 97.0996,737.062 121,721.5C 116.362,699.012 112.362,676.345 109,653.5C 108.143,641.511 107.477,629.511 107,617.5C 79.0501,608.461 50.8834,600.128 22.5,592.5C 21.3726,559.023 24.7059,526.023 32.5,493.5C 61.7549,489.82 90.9216,485.82 120,481.5C 128.094,448.718 139.26,417.051 153.5,386.5C 133.349,365.182 113.015,344.015 92.5,323C 108.404,292.674 127.404,264.508 149.5,238.5C 150.723,237.386 152.056,237.219 153.5,238C 177.5,249.333 201.5,260.667 225.5,272C 226.833,272.667 228.167,272.667 229.5,272C 253.313,246.182 278.98,222.515 306.5,201C 298.211,175.132 289.711,149.298 281,123.5C 280.333,122.167 280.333,120.833 281,119.5C 309.201,100.144 339.035,83.4768 370.5,69.5C 372.937,70.8034 375.104,72.4701 377,74.5C 393.996,94.8263 411.663,114.493 430,133.5C 463.271,121.474 497.438,113.141 532.5,108.5C 540.192,79.7291 548.192,51.0624 556.5,22.5 Z"/></g>
<g><path style="opacity:1" fill="#0c51a2" d="M 569.5,139.5 C 571.39,139.297 572.89,139.963 574,141.5C 577.94,148.436 582.273,155.103 587,161.5C 587.372,154.16 587.205,146.827 586.5,139.5C 589.167,139.5 591.833,139.5 594.5,139.5C 595.179,151.822 595.513,164.155 595.5,176.5C 591.808,177.029 588.642,176.029 586,173.5C 581.667,166.833 577.333,160.167 573,153.5C 573.098,161.483 573.265,169.483 573.5,177.5C 570.728,177.78 568.228,177.113 566,175.5C 565.204,163.844 564.704,152.177 564.5,140.5C 566.415,140.784 568.081,140.451 569.5,139.5 Z"/></g>
<g><path style="opacity:1" fill="#1253a3" d="M 614.5,139.5 C 617.5,139.5 620.5,139.5 623.5,139.5C 623.325,151.839 622.992,164.172 622.5,176.5C 619.833,176.5 617.167,176.5 614.5,176.5C 614.5,164.167 614.5,151.833 614.5,139.5 Z"/></g>
<g><path style="opacity:1" fill="#1153a2" d="M 630.5,139.5 C 633.562,139.844 636.562,140.511 639.5,141.5C 643.531,148.898 647.031,156.564 650,164.5C 652.028,157.314 652.861,149.98 652.5,142.5C 655.167,142.5 657.833,142.5 660.5,142.5C 660.219,154.534 659.386,166.534 658,178.5C 654.882,179.748 651.882,179.414 649,177.5C 645.606,169.712 641.939,162.045 638,154.5C 636.508,162.091 635.674,169.758 635.5,177.5C 633.139,177.326 630.806,176.993 628.5,176.5C 628.467,164.123 629.134,151.789 630.5,139.5 Z"/></g>
<g><path style="opacity:1" fill="#a7c3e5" d="M 260.5,135.5 C 263,138.66 264.333,142.327 264.5,146.5C 262.358,143.2 261.025,139.533 260.5,135.5 Z"/></g>
<g><path style="opacity:1" fill="#0f52a2" d="M 541.5,142.5 C 543.288,142.215 544.955,142.548 546.5,143.5C 551.911,154.657 557.578,165.657 563.5,176.5C 560.416,178.357 557.249,178.69 554,177.5C 553.598,176.128 553.098,174.795 552.5,173.5C 548.541,172.34 544.541,172.173 540.5,173C 538.516,175.134 537.182,177.634 536.5,180.5C 534.187,181.273 531.854,181.94 529.5,182.5C 530.668,169.807 532.834,157.141 536,144.5C 537.948,143.891 539.782,143.224 541.5,142.5 Z"/></g>
<g><path style="opacity:1" fill="#0c52a2" d="M 675.5,144.5 C 687.295,143.38 694.295,148.547 696.5,160C 694.029,160.706 691.695,160.373 689.5,159C 686.874,155.538 683.54,153.038 679.5,151.5C 677.641,153.192 675.641,154.692 673.5,156C 679.748,159.373 685.915,162.873 692,166.5C 695.374,174.913 692.874,180.746 684.5,184C 672.35,185.441 665.017,180.274 662.5,168.5C 665.32,168.248 667.986,168.748 670.5,170C 673.408,175.874 677.908,177.707 684,175.5C 684.798,173.741 684.631,172.074 683.5,170.5C 679.167,168.333 674.833,166.167 670.5,164C 666.329,160.146 665.496,155.646 668,150.5C 670.114,147.879 672.614,145.879 675.5,144.5 Z"/></g>
<g><path style="opacity:1" fill="#1152a2" d="M 515.5,146.5 C 516.833,146.5 518.167,146.5 519.5,146.5C 521.576,158.546 523.909,170.546 526.5,182.5C 523.572,183.484 520.572,183.817 517.5,183.5C 515.18,171.554 513.18,159.554 511.5,147.5C 513.099,147.768 514.432,147.434 515.5,146.5 Z"/></g>
<g><path style="opacity:1" fill="#0d52a2" d="M 700.5,149.5 C 710.424,152.148 720.424,154.481 730.5,156.5C 730.007,158.806 729.674,161.139 729.5,163.5C 725.864,163.406 722.364,162.739 719,161.5C 715.728,170.921 713.228,180.588 711.5,190.5C 707.801,190.568 705.135,189.068 703.5,186C 705.9,176.901 707.9,167.735 709.5,158.5C 706.482,158.296 703.482,157.963 700.5,157.5C 700.5,154.833 700.5,152.167 700.5,149.5 Z"/></g>
<g><path style="opacity:1" fill="#0b51a2" d="M 488.5,152.5 C 500.056,150.523 507.223,155.19 510,166.5C 512.263,174.938 510.096,181.771 503.5,187C 497.002,189.458 490.335,191.291 483.5,192.5C 480.971,180.718 477.971,169.052 474.5,157.5C 479.124,155.517 483.79,153.851 488.5,152.5 Z"/></g>
<g><path style="opacity:1" fill="#eef3f8" d="M 541.5,154.5 C 542.376,154.369 543.043,154.702 543.5,155.5C 544.833,158.5 546.167,161.5 547.5,164.5C 545.257,165.474 542.924,165.808 540.5,165.5C 540.724,161.821 541.058,158.154 541.5,154.5 Z"/></g>
<g><path style="opacity:1" fill="#0d52a2" d="M 734.5,158.5 C 737.067,159.475 739.733,160.142 742.5,160.5C 738.978,172.586 735.144,184.586 731,196.5C 728.423,195.729 725.923,194.729 723.5,193.5C 727.373,181.882 731.04,170.215 734.5,158.5 Z"/></g>
<g><path style="opacity:1" fill="#0b51a2" d="M 464.5,159.5 C 465.496,159.414 466.329,159.748 467,160.5C 470.638,171.747 474.471,182.914 478.5,194C 475.621,195.471 472.621,196.138 469.5,196C 463.293,190.125 456.793,184.625 450,179.5C 451.926,186.285 454.093,193.118 456.5,200C 456.355,200.772 456.022,201.439 455.5,202C 453.649,202.837 451.816,203.671 450,204.5C 445.735,193.205 441.568,181.872 437.5,170.5C 439.153,168.879 441.153,167.712 443.5,167C 444.5,166.333 445.5,166.333 446.5,167C 452.353,172.354 458.353,177.52 464.5,182.5C 463.49,175.609 461.49,168.776 458.5,162C 460.611,161.155 462.611,160.322 464.5,159.5 Z"/></g>
<g><path style="opacity:1" fill="#f8fafc" d="M 489.5,159.5 C 495.308,158.652 499.142,160.985 501,166.5C 504.577,177.216 500.91,182.549 490,182.5C 488.162,175.148 486.329,167.814 484.5,160.5C 486.415,160.784 488.081,160.451 489.5,159.5 Z"/></g>
<g><path style="opacity:1" fill="#0c52a2" d="M 746.5,162.5 C 754.91,165.026 763.243,167.859 771.5,171C 773.18,171.347 774.18,172.347 774.5,174C 773.804,175.893 772.97,177.726 772,179.5C 769,178.167 766,176.833 763,175.5C 759.467,184.589 755.634,193.589 751.5,202.5C 751.167,202.833 750.833,203.167 750.5,203.5C 748.677,202.253 746.677,201.586 744.5,201.5C 746.897,192.308 749.897,183.308 753.5,174.5C 753.392,173.558 753.059,172.725 752.5,172C 749.904,170.864 747.237,170.031 744.5,169.5C 744.767,167.035 745.434,164.701 746.5,162.5 Z"/></g>
<g><path style="opacity:1" fill="#0e52a2" d="M 423.5,173.5 C 426.247,173.187 428.914,173.52 431.5,174.5C 436.028,184.752 440.362,195.085 444.5,205.5C 442.267,208.129 439.6,209.129 436.5,208.5C 431.302,197.114 426.969,185.447 423.5,173.5 Z"/></g>
<g><path style="opacity:1" fill="#0e52a2" d="M 355.5,219.5 C 354.443,217.059 353.11,214.725 351.5,212.5C 344.795,217.512 338.128,222.512 331.5,227.5C 336.976,234.81 342.643,241.977 348.5,249C 351.76,248.518 355.093,248.518 358.5,249C 364.466,251.448 365.966,255.615 363,261.5C 358.39,268.553 351.89,271.386 343.5,270C 342.62,268.644 342.286,267.144 342.5,265.5C 349.94,265.622 355.274,262.456 358.5,256C 354.412,255.289 350.912,256.456 348,259.5C 343.43,254.687 339.097,249.687 335,244.5C 332.926,246.452 330.759,248.285 328.5,250C 329.867,252.301 330.534,254.801 330.5,257.5C 325.833,257.5 321.167,257.5 316.5,257.5C 317.135,254.507 317.301,251.507 317,248.5C 315.315,246.983 313.815,245.316 312.5,243.5C 310.33,245.086 307.996,246.42 305.5,247.5C 303.525,246.725 302.691,245.391 303,243.5C 324.207,223.958 347.373,207.125 372.5,193C 368.617,190.131 365.95,186.465 364.5,182C 364.693,178.139 366.693,175.805 370.5,175C 372.218,174.654 373.885,174.154 375.5,173.5C 375.833,173.833 376.167,174.167 376.5,174.5C 374.318,176.869 372.651,179.535 371.5,182.5C 374.619,190.538 379.286,191.538 385.5,185.5C 387.047,186.768 388.047,188.435 388.5,190.5C 386.611,191.604 384.945,192.937 383.5,194.5C 385.251,196.972 386.085,199.639 386,202.5C 381.918,203.944 378.751,206.444 376.5,210C 376.833,210.5 377.167,211 377.5,211.5C 381.942,208.767 386.609,206.934 391.5,206C 392.667,207.167 393.833,208.333 395,209.5C 395.772,213.89 395.606,218.223 394.5,222.5C 397.5,223.167 400.5,223.833 403.5,224.5C 402.691,226.071 402.357,227.738 402.5,229.5C 393.854,228.747 385.188,228.413 376.5,228.5C 376.201,226.396 376.534,224.396 377.5,222.5C 381.094,221.574 384.76,221.241 388.5,221.5C 388.75,218.786 388.917,216.119 389,213.5C 380.873,219.38 373.54,218.713 367,211.5C 366.333,210.5 366.333,209.5 367,208.5C 369.809,205.428 373.142,203.095 377,201.5C 377.667,200.167 377.667,198.833 377,197.5C 370.249,200.455 364.083,204.289 358.5,209C 362.953,216.738 367.787,224.238 373,231.5C 373.982,232.759 374.315,234.092 374,235.5C 372.622,237.213 370.955,238.547 369,239.5C 367.92,237.004 366.586,234.67 365,232.5C 359.887,239.361 353.387,241.194 345.5,238C 338.901,229.035 340.735,222.201 351,217.5C 352.585,218.044 354.085,218.711 355.5,219.5 Z"/></g>
<g><path style="opacity:1" fill="#0c51a2" d="M 779.5,174.5 C 782.259,175.642 784.926,176.976 787.5,178.5C 783.152,186.712 779.485,195.212 776.5,204C 779.379,207.783 783.046,209.283 787.5,208.5C 791.388,200.557 795.388,192.724 799.5,185C 802.667,184.465 805.334,185.465 807.5,188C 803.19,196.12 799.024,204.287 795,212.5C 784.764,220.211 776.097,218.545 769,207.5C 768.333,204.5 768.333,201.5 769,198.5C 772.24,190.357 775.74,182.357 779.5,174.5 Z"/></g>
<g><path style="opacity:1" fill="#0c51a2" d="M 811.5,189.5 C 818.008,193.144 824.675,196.644 831.5,200C 833.968,201.216 835.968,202.883 837.5,205C 837.046,207.036 836.213,208.87 835,210.5C 831.912,208.706 828.746,207.039 825.5,205.5C 820.585,214.332 815.418,222.999 810,231.5C 807.92,229.877 805.754,228.377 803.5,227C 807.966,218.373 812.633,209.873 817.5,201.5C 814.5,199.5 811.5,197.5 808.5,195.5C 809.559,193.466 810.559,191.466 811.5,189.5 Z"/></g>
<g><path style="opacity:1" fill="#0d52a2" d="M 841.5,207.5 C 843.308,207.491 844.975,207.991 846.5,209C 852.996,213.338 859.329,217.838 865.5,222.5C 864.444,224.646 862.944,226.312 861,227.5C 856.432,224.798 851.932,221.965 847.5,219C 846.365,218.251 845.365,218.417 844.5,219.5C 843.833,220.833 843.167,222.167 842.5,223.5C 847.303,226.471 851.97,229.638 856.5,233C 855.521,235.137 854.188,236.971 852.5,238.5C 848.12,235.618 843.62,232.952 839,230.5C 836.513,231.654 834.679,233.487 833.5,236C 838.393,239.891 843.56,243.391 849,246.5C 849.666,249.496 848.499,251.496 845.5,252.5C 837.198,248.532 829.864,243.366 823.5,237C 829.34,227.01 835.34,217.177 841.5,207.5 Z"/></g>
<g><path style="opacity:1" fill="#1254a3" d="M 319.5,213.5 C 321.813,214.825 323.479,216.825 324.5,219.5C 322.613,221.04 320.78,222.707 319,224.5C 317.108,222.946 315.608,221.112 314.5,219C 316.137,217.172 317.803,215.339 319.5,213.5 Z"/></g>
<g><path style="opacity:1" fill="#ecf1f7" d="M 355.5,219.5 C 357.054,220.914 358.388,222.581 359.5,224.5C 356.216,225.657 352.882,225.824 349.5,225C 351.763,223.383 353.763,221.55 355.5,219.5 Z"/></g>
<g><path style="opacity:1" fill="#f1f5f9" d="M 351.5,228.5 C 354.157,228.162 356.49,228.829 358.5,230.5C 356.559,233.334 353.893,234.168 350.5,233C 349.257,231.184 349.59,229.684 351.5,228.5 Z"/></g>
<g><path style="opacity:1" fill="#fefefe" d="M 1170.5,783.5 C 1172.47,780.916 1173.47,777.916 1173.5,774.5C 1174.77,770.333 1176.1,766.166 1177.5,762C 1177.36,761.228 1177.02,760.561 1176.5,760C 1153.91,742.086 1130.75,724.919 1107,708.5C 1110.07,684.473 1113.4,660.473 1117,636.5C 1144.14,626.397 1171.64,617.397 1199.5,609.5C 1199.5,796.167 1199.5,982.833 1199.5,1169.5C 1114.5,1169.5 1029.5,1169.5 944.5,1169.5C 966.262,1129.48 987.928,1089.32 1009.5,1049C 1009.24,1047.74 1008.57,1046.74 1007.5,1046C 987.541,1033.43 966.708,1022.27 945,1012.5C 944.333,1011.17 944.333,1009.83 945,1008.5C 949.63,998.911 953.964,989.244 958,979.5C 958.825,977.299 958.325,975.466 956.5,974C 743.114,880.834 525.781,871.167 304.5,945C 279.58,953.638 255.246,963.638 231.5,975C 230.483,976.049 230.316,977.216 231,978.5C 236.906,989.296 241.906,1000.3 246,1011.5C 223.868,1021.31 202.702,1032.81 182.5,1046C 181.941,1046.72 181.608,1047.56 181.5,1048.5C 197.125,1078.09 212.959,1107.43 229,1136.5C 233.719,1146.27 238.719,1155.94 244,1165.5C 244.49,1166.79 244.657,1168.13 244.5,1169.5C 162.833,1169.5 81.1667,1169.5 -0.5,1169.5C -0.5,982.5 -0.5,795.5 -0.5,608.5C 27.6993,616.967 56.0326,624.967 84.5,632.5C 85.0139,646.599 86.5139,660.599 89,674.5C 91.46,686.892 93.2933,699.226 94.5,711.5C 69.6357,726.761 44.969,742.261 20.5,758C 33.2666,802.697 50.5999,845.531 72.5,886.5C 73.0968,887.139 73.9302,887.472 75,887.5C 79.0172,886.705 82.8506,885.705 86.5,884.5C 106.857,881.246 127.191,877.746 147.5,874C 152.143,873.002 156.81,872.668 161.5,873C 162.5,873.833 163.5,874.667 164.5,875.5C 178.957,899.056 195.457,921.056 214,941.5C 251.989,910.847 289.989,880.18 328,849.5C 318.496,836.622 308.829,823.622 299,810.5C 292.667,799.833 286.333,789.167 280,778.5C 215.023,658.973 214.023,538.973 277,418.5C 329.044,329.543 404.544,270.377 503.5,241C 628.525,211.681 740.859,237.014 840.5,317C 918.203,384.906 961.036,470.739 969,574.5C 974.125,676.467 943.458,765.801 877,842.5C 876.837,844.387 877.671,845.887 879.5,847C 905.1,867.593 930.434,888.593 955.5,910C 967.103,919.446 979.103,928.279 991.5,936.5C 993.76,935.089 995.926,933.422 998,931.5C 1004.92,920.68 1012.59,910.347 1021,900.5C 1026.68,890.145 1033.18,880.312 1040.5,871C 1066.59,875.552 1092.59,880.885 1118.5,887C 1120.9,887.814 1123.24,887.647 1125.5,886.5C 1143.96,853.651 1158.96,819.318 1170.5,783.5 Z"/></g>
<g><path style="opacity:1" fill="#f7f9fc" d="M 324.5,232.5 C 327.146,234.479 329.479,236.812 331.5,239.5C 329.167,241.5 326.833,243.5 324.5,245.5C 322.292,242.946 319.959,240.446 317.5,238C 319.903,236.147 322.236,234.314 324.5,232.5 Z"/></g>
<g><path style="opacity:1" fill="#0851a1" d="M 880.5,240.5 C 890.285,239.308 897.452,242.975 902,251.5C 904.652,266.849 898.319,276.182 883,279.5C 869.145,277.31 863.478,269.31 866,255.5C 869.021,248.647 873.855,243.647 880.5,240.5 Z"/></g>
<g><path style="opacity:1" fill="#f9fafc" d="M 883.5,248.5 C 895.353,249.538 898.186,255.205 892,265.5C 884.183,274.133 877.683,273.3 872.5,263C 873.781,256.235 877.448,251.402 883.5,248.5 Z"/></g>
<g><path style="opacity:1" fill="#0751a1" d="M 914.5,262.5 C 921.076,267.57 927.243,273.237 933,279.5C 932.566,282.289 930.9,284.289 928,285.5C 923.985,281.318 919.818,277.318 915.5,273.5C 914.059,274.865 912.726,276.365 911.5,278C 914.464,281.966 917.797,285.633 921.5,289C 920.378,291.124 918.878,292.957 917,294.5C 913.333,290.833 909.667,287.167 906,283.5C 902.5,287 899,290.5 895.5,294C 894.833,294.667 894.167,294.667 893.5,294C 891.74,291.971 890.573,289.804 890,287.5C 897.699,278.635 905.866,270.302 914.5,262.5 Z"/></g>
<g><path style="opacity:1" fill="#0d52a2" d="M 271.5,270.5 C 272.922,270.709 274.255,271.209 275.5,272C 274.158,274.015 273.658,276.182 274,278.5C 280.864,285.698 288.03,292.532 295.5,299C 293.707,300.78 292.04,302.613 290.5,304.5C 286.682,301.182 283.015,297.682 279.5,294C 275.885,293.644 273.218,295.144 271.5,298.5C 273.105,301.314 274.105,304.314 274.5,307.5C 270.818,307.665 267.152,307.499 263.5,307C 261.82,306.653 260.82,305.653 260.5,304C 263.716,298.112 267.716,292.779 272.5,288C 270.787,286.622 269.453,284.955 268.5,283C 267.833,282.333 267.167,282.333 266.5,283C 260.445,289.384 254.778,296.051 249.5,303C 250.101,304.605 251.101,305.938 252.5,307C 259.5,312.667 266.5,318.333 273.5,324C 272.12,325.925 270.62,327.759 269,329.5C 261.5,323.333 254,317.167 246.5,311C 243.538,310.91 241.204,312.243 239.5,315C 247.398,321.531 255.564,327.698 264,333.5C 263.874,336.098 262.874,338.431 261,340.5C 258.636,338.637 256.136,336.971 253.5,335.5C 250.954,346.222 244.287,352.055 233.5,353C 230.898,353.883 228.731,355.383 227,357.5C 225.341,356.183 224.174,354.517 223.5,352.5C 226.342,350.575 229.009,348.408 231.5,346C 234.464,338.006 231.964,334.506 224,335.5C 223.251,336.635 223.417,337.635 224.5,338.5C 233.791,341.393 233.791,343.727 224.5,345.5C 220.377,345.37 217.71,343.37 216.5,339.5C 220.351,326.463 227.517,324.13 238,332.5C 239.183,336.768 240.183,341.101 241,345.5C 246.045,341.042 247.378,335.709 245,329.5C 242.297,326.462 239.297,323.795 236,321.5C 234.139,322.764 232.139,323.764 230,324.5C 228.72,324.387 227.887,323.72 227.5,322.5C 240.371,303.63 255.038,286.297 271.5,270.5 Z"/></g>
<g><path style="opacity:1" fill="#0c52a2" d="M 616.5,611.5 C 614.39,615.502 613.057,619.835 612.5,624.5C 610.558,639.1 610.058,653.766 611,668.5C 611.301,671.98 612.135,675.313 613.5,678.5C 630.42,672.918 647.753,671.085 665.5,673C 679.49,676.993 693.49,680.993 707.5,685C 719.746,687.558 732.079,688.224 744.5,687C 745.333,687.833 746.167,688.667 747,689.5C 763.204,718.053 779.87,746.386 797,774.5C 797.667,776.167 797.667,777.833 797,779.5C 791.798,788.512 789.798,798.178 791,808.5C 794.477,813.974 798.644,818.807 803.5,823C 745.5,823.333 687.5,823.667 629.5,824C 607.233,840.621 584.9,840.621 562.5,824C 557.178,823.316 551.844,822.816 546.5,822.5C 495.664,822.832 444.997,822.499 394.5,821.5C 396.745,817.339 398.745,813.005 400.5,808.5C 399.787,806.224 399.287,803.891 399,801.5C 394.424,793.096 389.258,785.096 383.5,777.5C 408.721,746.12 433.721,714.62 458.5,683C 486.512,685.099 514.179,682.766 541.5,676C 545.486,675.501 549.486,675.334 553.5,675.5C 558.797,676.275 564.13,676.608 569.5,676.5C 571.5,676.5 573.5,676.5 575.5,676.5C 575.5,674.833 575.5,673.167 575.5,671.5C 575.5,658.5 575.5,645.5 575.5,632.5C 576.26,622.127 578.593,612.127 582.5,602.5C 582.167,601.833 581.833,601.167 581.5,600.5C 565.858,596.183 552.191,588.517 540.5,577.5C 520.181,585.165 499.181,588.332 477.5,587C 452.894,581.637 434.394,568.137 422,546.5C 421.202,544.741 421.369,543.074 422.5,541.5C 428.095,538.074 433.262,534.074 438,529.5C 442.083,522.332 446.416,515.332 451,508.5C 455.923,504.441 459.756,499.774 462.5,494.5C 458.594,494.106 454.928,492.94 451.5,491C 446.744,488.252 442.244,485.085 438,481.5C 428.856,468.884 421.523,455.217 416,440.5C 412.702,433.56 409.035,426.893 405,420.5C 398.911,414.57 392.411,409.236 385.5,404.5C 392.206,391.388 403.039,385.055 418,385.5C 423.174,386.044 428.341,386.211 433.5,386C 431.16,380.819 428.66,375.652 426,370.5C 421.645,365.646 417.478,360.646 413.5,355.5C 416.271,351.911 419.938,349.744 424.5,349C 430.833,348.333 437.167,348.333 443.5,349C 452.362,351.699 460.696,355.532 468.5,360.5C 468.691,355.101 468.191,349.767 467,344.5C 465.388,337.95 463.055,331.617 460,325.5C 459.219,324.056 459.386,322.723 460.5,321.5C 480.385,317.304 497.719,322.137 512.5,336C 513.448,336.483 514.448,336.649 515.5,336.5C 516.091,328.976 517.091,321.642 518.5,314.5C 519.163,312.359 519.497,310.025 519.5,307.5C 519.637,303.553 518.97,299.886 517.5,296.5C 516.659,294.621 516.325,292.621 516.5,290.5C 539.359,289.988 558.526,297.988 574,314.5C 581.075,303.358 588.408,292.358 596,281.5C 597.719,279.443 599.719,277.776 602,276.5C 603.395,276.78 604.562,277.447 605.5,278.5C 614.508,291.188 623.008,304.188 631,317.5C 637.885,311.971 645.051,306.805 652.5,302C 657.894,300.535 663.228,298.869 668.5,297C 675.5,296.333 682.5,296.333 689.5,297C 690.059,297.725 690.392,298.558 690.5,299.5C 686.845,311.607 684.678,323.94 684,336.5C 698.155,326.753 713.655,323.586 730.5,327C 731.357,327.689 732.023,328.522 732.5,329.5C 727.965,339.64 725.298,350.307 724.5,361.5C 737.129,356.63 750.129,355.13 763.5,357C 766.684,358.504 769.851,360.004 773,361.5C 773.667,362.833 773.667,364.167 773,365.5C 764.314,373.876 758.481,383.876 755.5,395.5C 763.264,393.848 771.098,392.514 779,391.5C 789.116,391.816 798.283,394.816 806.5,400.5C 808.854,402.246 809.854,404.579 809.5,407.5C 805.526,408.621 801.86,410.454 798.5,413C 783.99,426.535 772.824,442.368 765,460.5C 758.924,471.143 751.09,480.309 741.5,488C 734.603,491.61 727.936,495.443 721.5,499.5C 732.71,508.548 741.543,519.548 748,532.5C 751.167,535.667 754.333,538.833 757.5,542C 765.569,544.843 773.902,546.343 782.5,546.5C 778.913,557.502 772.913,567.002 764.5,575C 744.475,592.621 721.142,599.621 694.5,596C 681.101,595.117 668.935,590.951 658,583.5C 653.49,587.67 648.657,591.503 643.5,595C 635.796,597.511 628.129,600.178 620.5,603C 618.303,605.421 616.97,608.255 616.5,611.5 Z"/></g>
<g><path style="opacity:1" fill="#0d52a2" d="M 944.5,293.5 C 951.81,300.485 958.476,308.152 964.5,316.5C 962.772,318.226 960.772,319.559 958.5,320.5C 956.5,317.833 954.167,315.5 951.5,313.5C 943.856,319.31 936.356,325.31 929,331.5C 926.319,329.792 924.985,327.458 925,324.5C 931.872,317.959 939.039,311.793 946.5,306C 944.402,303.146 942.069,300.479 939.5,298C 941.063,296.264 942.73,294.764 944.5,293.5 Z"/></g>
<g><path style="opacity:1" fill="#fdfefe" d="M 600.5,298.5 C 606.147,301.982 610.647,306.649 614,312.5C 639.109,357.704 643.109,404.704 626,453.5C 621.938,463.221 615.438,470.721 606.5,476C 602.406,476.767 598.406,476.434 594.5,475C 585.132,468.622 578.298,460.122 574,449.5C 562.127,413.634 562.794,377.968 576,342.5C 581.49,326.218 589.657,311.551 600.5,298.5 Z"/></g>
<g><path style="opacity:1" fill="#5f99d7" d="M 517.5,296.5 C 518.97,299.886 519.637,303.553 519.5,307.5C 519.497,310.025 519.163,312.359 518.5,314.5C 518.575,308.471 518.241,302.471 517.5,296.5 Z"/></g>
<g><path style="opacity:1" fill="#fdfdfe" d="M 532.5,303.5 C 548.947,308.113 560.113,318.446 566,334.5C 566.667,336.167 566.667,337.833 566,339.5C 554.053,369.687 551.053,400.687 557,432.5C 560.454,447.561 566.954,461.061 576.5,473C 562.831,471.582 551.331,465.749 542,455.5C 525.111,434.488 518.111,410.488 521,383.5C 525.597,356.922 529.43,330.255 532.5,303.5 Z"/></g>
<g><path style="opacity:1" fill="#fcfdfd" d="M 669.5,309.5 C 670.833,309.5 672.167,309.5 673.5,309.5C 670.421,321.117 668.754,332.95 668.5,345C 669.715,362.488 670.715,379.988 671.5,397.5C 671.562,414.356 668.728,430.689 663,446.5C 656.569,461.099 646.069,471.432 631.5,477.5C 628.89,477.353 626.556,476.519 624.5,475C 638.125,456.464 645.625,435.631 647,412.5C 649.182,386.77 645.848,361.77 637,337.5C 636.333,335.833 636.333,334.167 637,332.5C 645.866,321.761 656.7,314.095 669.5,309.5 Z"/></g>
<g><path style="opacity:1" fill="#0a51a2" d="M 967.5,320.5 C 973.164,327.511 978.497,334.845 983.5,342.5C 981.971,344.188 980.137,345.521 978,346.5C 974.683,343.194 971.849,339.528 969.5,335.5C 965.432,331.015 963.265,331.681 963,337.5C 965.448,341.615 968.281,345.448 971.5,349C 969.924,351.077 967.924,352.577 965.5,353.5C 961.808,348.975 958.308,344.308 955,339.5C 952.926,341.452 950.759,343.285 948.5,345C 951.975,349.975 955.641,354.809 959.5,359.5C 958.167,361.5 956.5,363.167 954.5,364.5C 948.237,357.487 942.571,349.987 937.5,342C 947.402,334.582 957.402,327.416 967.5,320.5 Z"/></g>
<g><path style="opacity:1" fill="#fdfdfe" d="M 477.5,334.5 C 483.349,332.951 489.015,333.785 494.5,337C 501,342.167 506.833,348 512,354.5C 511.888,362.184 511.222,369.851 510,377.5C 507.968,397.285 509.968,416.618 516,435.5C 521.345,448.672 529.511,459.839 540.5,469C 545.5,472.667 550.5,476.333 555.5,480C 536.742,481.304 520.909,475.137 508,461.5C 493.714,445.587 485.381,426.92 483,405.5C 481.141,387.884 480.141,370.218 480,352.5C 479.729,346.279 478.896,340.279 477.5,334.5 Z"/></g>
<g><path style="opacity:1" fill="#fcfdfe" d="M 711.5,338.5 C 712.805,340.397 713.471,342.731 713.5,345.5C 710.986,370.974 707.486,396.307 703,421.5C 698.887,440.9 689.721,457.4 675.5,471C 667.408,476.918 658.408,480.251 648.5,481C 671.184,461.121 682.684,435.955 683,405.5C 683.207,389.162 683.207,372.829 683,356.5C 685.833,352.333 689.333,348.833 693.5,346C 699.328,342.788 705.328,340.288 711.5,338.5 Z"/></g>
<g><path style="opacity:1" fill="#0f52a2" d="M 213.5,344.5 C 214.166,347.358 214.833,350.358 215.5,353.5C 220.161,356.655 223.494,360.822 225.5,366C 230.136,365.876 234.802,365.71 239.5,365.5C 239.5,367.5 239.5,369.5 239.5,371.5C 229.558,372.913 219.558,373.58 209.5,373.5C 209.491,371.692 209.991,370.025 211,368.5C 213.25,367.292 215.417,365.959 217.5,364.5C 215.476,362.642 213.309,360.975 211,359.5C 206.386,363.888 202.886,369.055 200.5,375C 210.327,380.08 219.994,385.413 229.5,391C 228.299,391.903 227.465,393.069 227,394.5C 225.612,395.554 224.112,395.72 222.5,395C 218.833,393.167 215.167,391.333 211.5,389.5C 209.282,390.924 207.782,392.924 207,395.5C 206,394.5 205,393.5 204,392.5C 204.351,390.114 204.185,387.781 203.5,385.5C 201.417,384.041 199.25,382.708 197,381.5C 195.086,384.298 194.086,387.298 194,390.5C 199.05,394.048 203.216,398.382 206.5,403.5C 210.731,402.026 215.064,401.026 219.5,400.5C 219.756,402.792 219.423,404.959 218.5,407C 209.353,409.643 200.02,411.143 190.5,411.5C 191.088,406.733 193.755,403.566 198.5,402C 195.531,400.516 192.531,399.016 189.5,397.5C 187.156,402.189 184.822,406.856 182.5,411.5C 179.887,410.669 178.72,409.002 179,406.5C 187.105,386.954 196.772,368.287 208,350.5C 210.04,348.63 211.873,346.63 213.5,344.5 Z"/></g>
<g><path style="opacity:1" fill="#0f52a2" d="M 978.5,353.5 C 990.14,352.812 997.14,358.146 999.5,369.5C 999.363,374.769 997.363,379.102 993.5,382.5C 991.548,380.772 990.215,378.605 989.5,376C 990.968,361.057 985.301,357.891 972.5,366.5C 967.046,371.816 967.379,376.65 973.5,381C 975.9,381.186 978.234,381.686 980.5,382.5C 981.5,384.5 982.5,386.5 983.5,388.5C 969.961,391.882 962.295,386.549 960.5,372.5C 962.413,362.255 968.413,355.921 978.5,353.5 Z"/></g>
<g><path style="opacity:1" fill="#fcfcfd" d="M 432.5,359.5 C 459.873,361.032 473.04,375.365 472,402.5C 476.002,440.049 494.168,468.215 526.5,487C 503.197,486.931 484.697,477.431 471,458.5C 466.246,450.921 462.246,442.921 459,434.5C 453.393,418.013 448.393,401.346 444,384.5C 440.155,376.145 436.322,367.812 432.5,359.5 Z"/></g>
<g><path style="opacity:1" fill="#1455a3" d="M 183.5,365.5 C 186.116,366.48 188.449,367.98 190.5,370C 189,372.167 187.5,374.333 186,376.5C 183.856,375.354 182.023,373.854 180.5,372C 181.377,369.747 182.377,367.581 183.5,365.5 Z"/></g>
<g><path style="opacity:1" fill="#fbfcfd" d="M 744.5,367.5 C 747.833,367.5 751.167,367.5 754.5,367.5C 751.293,375.585 747.793,383.585 744,391.5C 740.071,405.953 735.738,420.287 731,434.5C 723.236,454.258 710.402,469.758 692.5,481C 687.042,483.449 681.375,484.782 675.5,485C 696.194,467.932 709.027,446.098 714,419.5C 716.01,405.775 718.343,392.108 721,378.5C 728.09,373.036 735.923,369.369 744.5,367.5 Z"/></g>
<g><path style="opacity:1" fill="#0c52a2" d="M 1005.5,382.5 C 1008.07,383.574 1009.73,385.574 1010.5,388.5C 1007.16,390.996 1003.66,393.329 1000,395.5C 1000.51,399.876 1002.18,403.876 1005,407.5C 1008.75,405.372 1012.59,403.372 1016.5,401.5C 1018.09,403.67 1019.42,406.004 1020.5,408.5C 1010.11,414.363 999.44,419.696 988.5,424.5C 986.14,423.135 984.473,421.135 983.5,418.5C 988.362,415.906 993.029,413.073 997.5,410C 995.803,406.106 993.97,402.273 992,398.5C 987.473,401.097 982.806,403.43 978,405.5C 976.19,403.933 975.023,401.933 974.5,399.5C 974.977,398.522 975.643,397.689 976.5,397C 986.259,392.121 995.925,387.287 1005.5,382.5 Z"/></g>
<g><path style="opacity:1" fill="#fbfcfd" d="M 411.5,397.5 C 422.43,396.936 431.93,400.269 440,407.5C 444.062,418.352 447.729,429.352 451,440.5C 457.936,460.441 470.436,475.941 488.5,487C 465.216,489.442 447.716,480.608 436,460.5C 429.94,446.713 423.607,433.047 417,419.5C 412.407,413.317 407.573,407.317 402.5,401.5C 405.285,399.432 408.285,398.098 411.5,397.5 Z"/></g>
<g><path style="opacity:1" fill="#fbfcfd" d="M 772.5,404.5 C 776.637,404.146 780.637,404.646 784.5,406C 773.361,421.097 763.861,437.264 756,454.5C 743.039,479.396 722.539,491.563 694.5,491C 711.428,480.073 724.928,465.906 735,448.5C 739.287,438.295 743.954,428.295 749,418.5C 755.888,412.144 763.721,407.477 772.5,404.5 Z"/></g>
<g><path style="opacity:1" fill="#0b51a2" d="M 1020.5,417.5 C 1024.39,417.714 1026.39,419.88 1026.5,424C 1022.12,431.26 1017.12,438.093 1011.5,444.5C 1011.83,444.833 1012.17,445.167 1012.5,445.5C 1018.61,443.028 1024.78,440.694 1031,438.5C 1035.51,441.884 1035.34,444.718 1030.5,447C 1020.46,450.735 1010.46,454.569 1000.5,458.5C 998.729,455.697 997.896,452.697 998,449.5C 1003.88,443.293 1009.38,436.793 1014.5,430C 1007.51,431.733 1000.67,434.233 994,437.5C 992.14,435.625 990.64,433.458 989.5,431C 999.859,426.387 1010.19,421.887 1020.5,417.5 Z"/></g>
<g><path style="opacity:1" fill="#0e52a2" d="M 165.5,443.5 C 167.515,445.676 169.182,448.176 170.5,451C 178.242,453.469 185.908,456.136 193.5,459C 198.135,460.796 198.802,463.629 195.5,467.5C 185.406,463.357 175.072,460.024 164.5,457.5C 162.749,464.42 161.416,471.42 160.5,478.5C 161.93,478.421 163.264,478.754 164.5,479.5C 168.286,463.673 176.119,461.34 188,472.5C 190.151,475.216 189.984,477.716 187.5,480C 184.735,479.28 182.401,477.613 180.5,475C 178.091,473.293 175.425,472.46 172.5,472.5C 172.02,475.685 172.686,478.519 174.5,481C 179.584,483.417 184.918,484.917 190.5,485.5C 190.007,487.806 189.674,490.139 189.5,492.5C 186.833,492.167 184.167,491.833 181.5,491.5C 180.979,501.857 175.645,506.023 165.5,504C 159.891,500.723 158.058,495.89 160,489.5C 161.333,488.833 162.667,488.167 164,487.5C 165.246,490.361 166.246,493.361 167,496.5C 168.865,498.673 171.031,499.007 173.5,497.5C 174.652,494.894 174.818,492.227 174,489.5C 168.728,487.139 163.228,485.973 157.5,486C 155.601,492.763 153.934,499.596 152.5,506.5C 162.739,508.976 173.073,510.976 183.5,512.5C 183.662,514.527 183.495,516.527 183,518.5C 172.388,518.349 161.888,516.683 151.5,513.5C 149.871,516.266 149.205,519.266 149.5,522.5C 155.852,523.392 162.185,524.392 168.5,525.5C 168.244,530.778 165.577,534.445 160.5,536.5C 157.668,535.504 156.335,533.504 156.5,530.5C 153.455,530.492 150.455,530.159 147.5,529.5C 147.603,532.219 147.269,534.885 146.5,537.5C 146.818,538.647 147.484,539.481 148.5,540C 158.467,541.297 168.467,542.13 178.5,542.5C 178.326,544.861 177.993,547.194 177.5,549.5C 166.813,549.116 156.146,548.449 145.5,547.5C 145.5,550.5 145.5,553.5 145.5,556.5C 156.177,556.567 166.844,556.901 177.5,557.5C 177.5,559.833 177.5,562.167 177.5,564.5C 166.499,564.206 155.499,563.872 144.5,563.5C 144.5,566.167 144.5,568.833 144.5,571.5C 155.167,571.5 165.833,571.5 176.5,571.5C 176.5,573.833 176.5,576.167 176.5,578.5C 174.143,578.337 171.81,578.503 169.5,579C 174.057,585.313 175.224,592.146 173,599.5C 172.535,600.931 171.701,602.097 170.5,603C 167.167,603.333 163.833,603.667 160.5,604C 157.702,605.914 154.702,606.914 151.5,607C 149.277,606.348 148.11,604.848 148,602.5C 147.502,599.518 147.335,596.518 147.5,593.5C 146.5,593.5 145.5,593.5 144.5,593.5C 144.5,600.167 144.5,606.833 144.5,613.5C 155.551,612.996 166.551,611.996 177.5,610.5C 177.5,613.167 177.5,615.833 177.5,618.5C 167.171,619.233 156.838,619.9 146.5,620.5C 146.5,623.167 146.5,625.833 146.5,628.5C 157.416,626.655 168.416,625.655 179.5,625.5C 179.739,627.467 179.406,629.301 178.5,631C 174.759,631.919 171.092,632.919 167.5,634C 171.617,637.15 175.451,640.65 179,644.5C 179.851,647.053 179.518,649.386 178,651.5C 175,648.5 172,645.5 169,642.5C 165.486,649.685 159.652,653.518 151.5,654C 151.012,656.176 150.012,658.009 148.5,659.5C 146.833,659.167 145.833,658.167 145.5,656.5C 144.231,648.448 142.731,640.448 141,632.5C 140.667,632.167 140.333,631.833 140,631.5C 138.719,634.942 136.553,637.608 133.5,639.5C 132.167,638.833 131.167,637.833 130.5,636.5C 144.745,619.622 143.411,618.289 126.5,632.5C 125.248,630.999 124.248,629.332 123.5,627.5C 128.227,623.283 133.393,619.616 139,616.5C 139.01,598.837 138.676,581.17 138,563.5C 133.366,567.132 129.033,571.132 125,575.5C 123.203,574.073 122.036,572.24 121.5,570C 126.547,566.054 131.713,562.221 137,558.5C 139.677,554.966 140.844,550.966 140.5,546.5C 127.542,548.039 122.375,542.373 125,529.5C 129.588,520.079 136.421,512.745 145.5,507.5C 148.346,495.782 151.346,484.116 154.5,472.5C 142.79,474.622 137.957,469.955 140,458.5C 145.152,450.34 152.652,446.506 162.5,447C 163.71,445.961 164.71,444.794 165.5,443.5 Z"/></g>
<g><path style="opacity:1" fill="#f5f8fb" d="M 151.5,454.5 C 154.167,454.5 156.833,454.5 159.5,454.5C 158.983,458.222 158.15,461.888 157,465.5C 153.491,466.766 149.991,466.599 146.5,465C 144.145,463.135 143.978,460.969 146,458.5C 148.015,457.303 149.849,455.97 151.5,454.5 Z"/></g>
<g><path style="opacity:1" fill="#0a51a1" d="M 1019.5,456.5 C 1033.57,454.02 1041.91,459.686 1044.5,473.5C 1042.53,485.846 1035.19,492.179 1022.5,492.5C 1011.55,491.554 1005.55,485.554 1004.5,474.5C 1005.93,465.417 1010.93,459.417 1019.5,456.5 Z"/></g>
<g><path style="opacity:1" fill="#fafbfd" d="M 1022.5,464.5 C 1032.33,462.949 1036.83,466.949 1036,476.5C 1030.66,484.058 1023.83,485.892 1015.5,482C 1012.4,478.498 1011.9,474.665 1014,470.5C 1016.32,467.605 1019.16,465.605 1022.5,464.5 Z"/></g>
<g><path style="opacity:1" fill="#fdfefe" d="M 590.5,487.5 C 618.941,484.467 639.774,495.467 653,520.5C 658.432,537.139 653.265,549.306 637.5,557C 629.943,559.84 622.276,560.173 614.5,558C 610.162,556.164 605.828,554.33 601.5,552.5C 593.451,555.74 585.117,557.74 576.5,558.5C 554.28,555.797 544.78,543.463 548,521.5C 556.189,502.458 570.355,491.124 590.5,487.5 Z"/></g>
<g><path style="opacity:1" fill="#1654a3" d="M 1044.5,493.5 C 1046.17,493.5 1047.83,493.5 1049.5,493.5C 1049.5,496.5 1049.5,499.5 1049.5,502.5C 1040.02,503.395 1030.69,505.062 1021.5,507.5C 1023.02,513.41 1024.02,519.41 1024.5,525.5C 1022.19,525.993 1019.86,526.326 1017.5,526.5C 1016.03,518.304 1014.36,510.137 1012.5,502C 1012.83,501.5 1013.17,501 1013.5,500.5C 1023.98,498.274 1034.31,495.94 1044.5,493.5 Z"/></g>
<g><path style="opacity:1" fill="#fdfefe" d="M 494.5,497.5 C 513.17,497.333 531.836,497.5 550.5,498C 543.765,507.968 537.931,518.468 533,529.5C 525.949,536.779 517.449,541.612 507.5,544C 484.21,550.793 460.877,551.126 437.5,545C 440.63,542.872 443.463,540.372 446,537.5C 452.981,526.375 460.814,515.875 469.5,506C 477.483,501.764 485.816,498.931 494.5,497.5 Z"/></g>
<g><path style="opacity:1" fill="#fdfdfe" d="M 654.5,498.5 C 670.063,500.825 685.729,502.325 701.5,503C 711.297,503.985 719.131,508.485 725,516.5C 734.192,532.191 746.025,545.524 760.5,556.5C 752.483,561.174 743.816,564.008 734.5,565C 712.496,566.333 691.83,561.666 672.5,551C 671.299,550.097 670.465,548.931 670,547.5C 669.058,536.842 666.724,526.509 663,516.5C 659.882,510.599 657.049,504.599 654.5,498.5 Z"/></g>
<g><path style="opacity:1" fill="#f8fafc" d="M 141.5,517.5 C 142.693,517.97 143.36,518.97 143.5,520.5C 142.208,527.135 141.208,533.802 140.5,540.5C 130.031,540.645 127.531,535.979 133,526.5C 136.038,523.631 138.871,520.631 141.5,517.5 Z"/></g>
<g><path style="opacity:1" fill="#0d52a2" d="M 1035.5,524.5 C 1055.5,525.168 1062,534.835 1055,553.5C 1045.99,561.294 1036.16,562.46 1025.5,557C 1019.88,551.289 1018.05,544.455 1020,536.5C 1023.05,529.603 1028.21,525.603 1035.5,524.5 Z"/></g>
<g><path style="opacity:1" fill="#fafbfd" d="M 1034.5,533.5 C 1039.73,532.835 1044.57,533.835 1049,536.5C 1052.72,541.79 1051.89,546.29 1046.5,550C 1039.91,553.816 1033.74,553.316 1028,548.5C 1025.29,541.26 1027.46,536.26 1034.5,533.5 Z"/></g>
<g><path style="opacity:1" fill="#f8fafc" d="M 532.5,543.5 C 533.5,543.5 534.5,543.5 535.5,543.5C 535.666,548.844 535.499,554.177 535,559.5C 534.027,561.64 532.527,563.307 530.5,564.5C 529.337,558.863 529.17,553.196 530,547.5C 530.662,546.016 531.496,544.683 532.5,543.5 Z"/></g>
<g><path style="opacity:1" fill="#fdfdfe" d="M 521.5,548.5 C 522.654,554.987 522.821,561.654 522,568.5C 519.912,569.308 517.912,570.308 516,571.5C 515.333,564.833 515.333,558.167 516,551.5C 517.876,550.391 519.709,549.391 521.5,548.5 Z"/></g>
<g><path style="opacity:1" fill="#fdfdfe" d="M 502.5,553.5 C 504.833,553.5 507.167,553.5 509.5,553.5C 509.666,560.175 509.5,566.842 509,573.5C 506.993,574.669 504.827,575.335 502.5,575.5C 502.5,568.167 502.5,560.833 502.5,553.5 Z"/></g>
<g><path style="opacity:1" fill="#f6f8fb" d="M 490.5,555.5 C 492.167,555.5 493.833,555.5 495.5,555.5C 496.392,562.186 496.392,568.853 495.5,575.5C 493.5,576.167 491.5,576.833 489.5,577.5C 488.719,576.271 488.219,574.938 488,573.5C 487.501,567.843 487.334,562.176 487.5,556.5C 488.791,556.737 489.791,556.404 490.5,555.5 Z"/></g>
<g><path style="opacity:1" fill="#e9eff7" d="M 444.5,558.5 C 447.652,557.761 450.985,557.761 454.5,558.5C 454.813,561.247 454.48,563.914 453.5,566.5C 450.48,563.811 447.48,561.144 444.5,558.5 Z"/></g>
<g><path style="opacity:1" fill="#b6c5d6" d="M 1197.5,549.5 C 1198.17,549.833 1198.83,550.167 1199.5,550.5C 1199.5,559.5 1199.5,568.5 1199.5,577.5C 1198.41,568.347 1197.74,559.014 1197.5,549.5 Z"/></g>
<g><path style="opacity:1" fill="#fbfcfd" d="M 460.5,558.5 C 463.167,558.5 465.833,558.5 468.5,558.5C 468.666,563.511 468.499,568.511 468,573.5C 465.808,572.601 463.642,571.601 461.5,570.5C 460.509,566.555 460.176,562.555 460.5,558.5 Z"/></g>
<g><path style="opacity:1" fill="#fdfdfe" d="M 481.5,557.5 C 481.5,563.5 481.5,569.5 481.5,575.5C 480.167,575.5 478.833,575.5 477.5,575.5C 476.5,575.5 475.5,575.5 474.5,575.5C 474.5,569.833 474.5,564.167 474.5,558.5C 476.861,558.326 479.194,557.993 481.5,557.5 Z"/></g>
<g><path style="opacity:1" fill="#6091c4" d="M 481.5,557.5 C 482.49,563.645 482.823,569.978 482.5,576.5C 480.585,576.784 478.919,576.451 477.5,575.5C 478.833,575.5 480.167,575.5 481.5,575.5C 481.5,569.5 481.5,563.5 481.5,557.5 Z"/></g>
<g><path style="opacity:1" fill="#f5f8fb" d="M 648.5,561.5 C 649.5,561.5 650.5,561.5 651.5,561.5C 653.277,569.356 651.11,575.69 645,580.5C 644.17,574.804 644.337,569.137 645.5,563.5C 646.739,563.058 647.739,562.391 648.5,561.5 Z"/></g>
<g><path style="opacity:1" fill="#f6f8fb" d="M 551.5,562.5 C 553.5,562.833 555.5,563.167 557.5,563.5C 557.666,567.514 557.499,571.514 557,575.5C 552.077,572.508 550.244,568.175 551.5,562.5 Z"/></g>
<g><path style="opacity:1" fill="#f1f5f9" d="M 669.5,562.5 C 672.005,562.98 674.338,563.98 676.5,565.5C 677.493,570.12 677.827,574.786 677.5,579.5C 668.644,577.036 665.977,571.369 669.5,562.5 Z"/></g>
<g><path style="opacity:1" fill="#0e52a2" d="M 1035.5,564.5 C 1055.04,562.869 1063.21,571.535 1060,590.5C 1057.64,595.367 1053.81,598.034 1048.5,598.5C 1048.34,596.473 1048.5,594.473 1049,592.5C 1051.5,589.002 1053.33,585.168 1054.5,581C 1052.77,576.453 1049.44,573.786 1044.5,573C 1039.2,572.101 1034.7,573.601 1031,577.5C 1028.08,584 1029.91,588.667 1036.5,591.5C 1036.68,589.114 1036.68,586.448 1036.5,583.5C 1038.83,583.5 1041.17,583.5 1043.5,583.5C 1044.27,588.797 1044.61,594.13 1044.5,599.5C 1037.47,599.83 1030.47,599.497 1023.5,598.5C 1024.37,596.568 1025.03,594.568 1025.5,592.5C 1019.19,579.425 1022.52,570.092 1035.5,564.5 Z"/></g>
<g><path style="opacity:1" fill="#f8fafc" d="M 599.5,565.5 C 601.827,565.247 603.827,565.914 605.5,567.5C 606.498,575.807 606.831,584.14 606.5,592.5C 602.833,592.5 599.167,592.5 595.5,592.5C 596.11,584.514 596.61,576.514 597,568.5C 598.045,567.627 598.878,566.627 599.5,565.5 Z"/></g>
<g><path style="opacity:1" fill="#f8fafc" d="M 633.5,565.5 C 635.167,565.5 636.833,565.5 638.5,565.5C 638.5,572.5 638.5,579.5 638.5,586.5C 635.52,586.62 632.687,587.287 630,588.5C 629.5,581.174 629.334,573.841 629.5,566.5C 631.099,566.768 632.432,566.434 633.5,565.5 Z"/></g>
<g><path style="opacity:1" fill="#fefefe" d="M 565.5,566.5 C 567.833,566.5 570.167,566.5 572.5,566.5C 572.666,572.842 572.5,579.175 572,585.5C 570,584.167 568,582.833 566,581.5C 565.501,576.511 565.334,571.511 565.5,566.5 Z"/></g>
<g><path style="opacity:1" fill="#f5f8fb" d="M 617.5,567.5 C 619.167,567.5 620.833,567.5 622.5,567.5C 623.358,575.132 623.691,582.799 623.5,590.5C 620.14,590.616 616.807,590.949 613.5,591.5C 613.5,583.833 613.5,576.167 613.5,568.5C 615.099,568.768 616.432,568.434 617.5,567.5 Z"/></g>
<g><path style="opacity:1" fill="#fdfdfe" d="M 580.5,568.5 C 583.5,568.5 586.5,568.5 589.5,568.5C 589.5,575.833 589.5,583.167 589.5,590.5C 586.572,590.148 583.738,589.482 581,588.5C 580.5,581.842 580.334,575.175 580.5,568.5 Z"/></g>
<g><path style="opacity:1" fill="#f6f8fb" d="M 683.5,569.5 C 686.313,569.548 688.979,570.215 691.5,571.5C 692.492,575.783 692.826,580.116 692.5,584.5C 689.762,584.149 687.096,583.482 684.5,582.5C 683.508,578.217 683.174,573.884 683.5,569.5 Z"/></g>
<g><path style="opacity:1" fill="#eff4f9" d="M 744.5,570.5 C 751.565,569.587 752.232,571.087 746.5,575C 743.794,576.908 740.794,577.741 737.5,577.5C 737.351,576.448 737.517,575.448 738,574.5C 740.013,572.752 742.18,571.418 744.5,570.5 Z"/></g>
<g><path style="opacity:1" fill="#fafcfd" d="M 698.5,573.5 C 701.167,573.5 703.833,573.5 706.5,573.5C 706.5,577.833 706.5,582.167 706.5,586.5C 703.833,586.167 701.167,585.833 698.5,585.5C 698.5,581.5 698.5,577.5 698.5,573.5 Z"/></g>
<g><path style="opacity:1" fill="#eef3f8" d="M 729.5,573.5 C 731.456,575.032 732.456,577.199 732.5,580C 731.593,582.543 729.759,584.043 727,584.5C 726.502,581.183 726.335,577.85 726.5,574.5C 727.791,574.737 728.791,574.404 729.5,573.5 Z"/></g>
<g><path style="opacity:1" fill="#f1f5f9" d="M 713.5,575.5 C 715.833,575.5 718.167,575.5 720.5,575.5C 720.5,578.833 720.5,582.167 720.5,585.5C 718.139,585.674 715.806,586.007 713.5,586.5C 713.5,582.833 713.5,579.167 713.5,575.5 Z"/></g>
<g><path style="opacity:1" fill="#f5f7fb" d="M 143.5,578.5 C 149.909,578.183 156.243,578.683 162.5,580C 166.743,583.975 168.576,588.809 168,594.5C 166.759,596.421 165.259,596.754 163.5,595.5C 162.653,592.446 161.653,589.446 160.5,586.5C 158.803,587.364 157.637,588.697 157,590.5C 156.667,593.833 156.333,597.167 156,600.5C 155.333,599.833 154.667,599.167 154,598.5C 153.501,594.514 153.334,590.514 153.5,586.5C 150.813,586.664 148.146,586.497 145.5,586C 144.645,583.564 143.979,581.064 143.5,578.5 Z"/></g>
<g><path style="opacity:1" fill="#0750a1" d="M 1058.5,601.5 C 1059.78,602.694 1060.44,604.36 1060.5,606.5C 1060.17,608.167 1059.83,609.833 1059.5,611.5C 1054.96,613.121 1050.63,615.121 1046.5,617.5C 1050.59,619.96 1054.75,622.293 1059,624.5C 1059.82,627.554 1059.65,630.554 1058.5,633.5C 1051.5,629.667 1044.5,625.833 1037.5,622C 1032.86,621.171 1028.2,620.671 1023.5,620.5C 1023.5,617.833 1023.5,615.167 1023.5,612.5C 1036.61,613.465 1048.27,609.798 1058.5,601.5 Z"/></g>
<g><path style="opacity:1" fill="#fafbfd" d="M 595.5,601.5 C 599.198,601.552 602.865,601.886 606.5,602.5C 602.883,614.637 600.049,626.97 598,639.5C 597.378,655.565 598.878,671.399 602.5,687C 596.991,687.718 592.491,685.884 589,681.5C 582.725,654.101 584.891,627.434 595.5,601.5 Z"/></g>
<g><path style="opacity:1" fill="#8eb3df" d="M 616.5,611.5 C 615.943,616.165 614.61,620.498 612.5,624.5C 613.057,619.835 614.39,615.502 616.5,611.5 Z"/></g>
<g><path style="opacity:1" fill="#f8fafc" d="M 154.5,634.5 C 156.833,634.5 159.167,634.5 161.5,634.5C 162.509,637.527 162.509,640.527 161.5,643.5C 157.289,645.035 152.956,646.035 148.5,646.5C 148.5,642.833 148.5,639.167 148.5,635.5C 150.735,635.795 152.735,635.461 154.5,634.5 Z"/></g>
<g><path style="opacity:1" fill="#5084c8" d="M 575.5,632.5 C 575.5,645.5 575.5,658.5 575.5,671.5C 572.958,658.494 572.958,645.494 575.5,632.5 Z"/></g>
<g><path style="opacity:1" fill="#0b51a2" d="M 1020.5,648.5 C 1030.53,649.671 1040.53,651.171 1050.5,653C 1053.12,653.151 1055.45,653.985 1057.5,655.5C 1056.29,661.48 1055.12,667.48 1054,673.5C 1052.58,680.588 1048.41,683.088 1041.5,681C 1039.93,679.924 1038.27,679.091 1036.5,678.5C 1030.51,681.62 1025.01,680.953 1020,676.5C 1018.92,673.288 1018.42,669.955 1018.5,666.5C 1018.78,660.448 1019.44,654.448 1020.5,648.5 Z"/></g>
<g><path style="opacity:1" fill="#f8fafc" d="M 1026.5,657.5 C 1029.61,657.655 1032.61,658.322 1035.5,659.5C 1034.12,663.75 1033.12,668.083 1032.5,672.5C 1029.44,672.556 1027.27,671.222 1026,668.5C 1025.32,664.779 1025.49,661.112 1026.5,657.5 Z"/></g>
<g><path style="opacity:1" fill="#fcfcfd" d="M 1041.5,660.5 C 1044.19,660.336 1046.85,660.503 1049.5,661C 1048.27,665.091 1047.27,669.257 1046.5,673.5C 1044.61,673.703 1043.11,673.037 1042,671.5C 1041.5,667.848 1041.33,664.182 1041.5,660.5 Z"/></g>
<g><path style="opacity:1" fill="#659bd9" d="M 553.5,675.5 C 554.097,674.861 554.93,674.528 556,674.5C 560.665,675.022 565.165,675.689 569.5,676.5C 564.13,676.608 558.797,676.275 553.5,675.5 Z"/></g>
<g><path style="opacity:1" fill="#fbfcfd" d="M 730.5,767.5 C 726.952,766.157 723.285,765.657 719.5,766C 725.323,766.901 725.656,768.067 720.5,769.5C 701.546,767.468 682.546,765.802 663.5,764.5C 648.615,764.62 634.115,766.953 620,771.5C 619.5,771.167 619,770.833 618.5,770.5C 619.491,768.677 620.824,767.177 622.5,766C 619.077,766.044 616.077,767.21 613.5,769.5C 609.527,771.487 605.527,773.487 601.5,775.5C 601.167,771.833 600.833,768.167 600.5,764.5C 601.851,741.176 603.018,717.843 604,694.5C 624.573,681.787 646.74,677.953 670.5,683C 683.588,687.807 696.921,691.807 710.5,695C 720.708,695.978 730.875,696.811 741,697.5C 755.899,722.074 770.399,746.907 784.5,772C 766.329,772.646 748.329,771.146 730.5,767.5 Z"/></g>
<g><path style="opacity:1" fill="#fbfcfd" d="M 592.5,763.5 C 591.834,766.689 591.167,770.023 590.5,773.5C 588.974,773.994 587.641,774.661 586.5,775.5C 585.833,775.5 585.5,775.833 585.5,776.5C 577.856,773.681 570.19,770.848 562.5,768C 558.959,766.745 555.459,766.578 552,767.5C 549.52,765.834 546.687,765.001 543.5,765C 524.036,763.955 504.703,765.122 485.5,768.5C 483.452,768.328 481.452,767.995 479.5,767.5C 477.348,766.923 477.015,765.756 478.5,764C 462.84,765.998 447.173,768.331 431.5,771C 421.156,772.127 410.823,772.293 400.5,771.5C 420.323,744.697 440.99,718.53 462.5,693C 489.558,694.028 516.224,691.361 542.5,685C 560.075,682.311 576.741,684.978 592.5,693C 593.99,693.745 594.99,694.912 595.5,696.5C 594.034,718.802 593.034,741.135 592.5,763.5 Z"/></g>
<g><path style="opacity:1" fill="#0e52a2" d="M 1022.5,684.5 C 1032.59,683.467 1040.76,686.8 1047,694.5C 1050.62,703.539 1048.78,711.372 1041.5,718C 1029.97,723.048 1020.13,720.881 1012,711.5C 1007.18,699.151 1010.68,690.151 1022.5,684.5 Z"/></g>
<g><path style="opacity:1" fill="#fcfdfe" d="M 1022.5,693.5 C 1027.78,692.931 1032.78,693.765 1037.5,696C 1043.25,702.137 1042.59,707.47 1035.5,712C 1030.11,713.033 1025.11,712.033 1020.5,709C 1016.08,703.087 1016.75,697.921 1022.5,693.5 Z"/></g>
<g><path style="opacity:1" fill="#0e53a2" d="M 550.5,695.5 C 553.978,695.184 557.312,695.684 560.5,697C 561.38,698.356 561.714,699.856 561.5,701.5C 558.15,701.665 554.817,701.498 551.5,701C 549.365,699.444 549.032,697.611 550.5,695.5 Z"/></g>
<g><path style="opacity:1" fill="#245da8" d="M 635.5,694.5 C 639.833,694.5 644.167,694.5 648.5,694.5C 648.5,696.5 648.5,698.5 648.5,700.5C 645.482,700.665 642.482,700.498 639.5,700C 637.181,698.853 635.848,697.019 635.5,694.5 Z"/></g>
<g><path style="opacity:1" fill="#1455a4" d="M 654.5,695.5 C 659.147,696.296 663.814,696.963 668.5,697.5C 668.5,699.5 668.5,701.5 668.5,703.5C 663.814,702.963 659.147,702.296 654.5,701.5C 654.5,699.5 654.5,697.5 654.5,695.5 Z"/></g>
<g><path style="opacity:1" fill="#0e53a2" d="M 628.5,695.5 C 630.384,696.382 631.717,697.882 632.5,700C 628.65,702.091 624.65,703.924 620.5,705.5C 617.934,704.194 616.934,702.361 617.5,700C 621.307,698.572 624.974,697.072 628.5,695.5 Z"/></g>
<g><path style="opacity:1" fill="#1154a3" d="M 533.5,697.5 C 538.221,696.732 542.221,697.899 545.5,701C 540.292,702.802 534.959,703.969 529.5,704.5C 529.187,701.163 530.52,698.829 533.5,697.5 Z"/></g>
<g><path style="opacity:1" fill="#1756a4" d="M 567.5,697.5 C 572.793,698.432 577.793,700.265 582.5,703C 580.154,706.001 577.154,707.001 573.5,706C 570.467,704.822 567.801,703.156 565.5,701C 565.978,699.697 566.645,698.531 567.5,697.5 Z"/></g>
<g><path style="opacity:1" fill="#0d52a2" d="M 187.5,699.5 C 189.167,699.5 190.833,699.5 192.5,699.5C 192.662,701.527 192.495,703.527 192,705.5C 190.043,706.889 188.21,708.389 186.5,710C 191.755,719.654 189.589,727.154 180,732.5C 178.074,730.869 176.24,729.035 174.5,727C 169.92,725.585 167.586,727.251 167.5,732C 168.14,735.777 169.473,739.277 171.5,742.5C 181.556,737.98 191.723,734.646 202,732.5C 202.758,734.769 202.591,736.936 201.5,739C 193.319,742.394 184.986,745.394 176.5,748C 175.09,748.368 174.09,749.201 173.5,750.5C 174.194,753.088 175.36,755.421 177,757.5C 186.442,753.407 195.942,749.407 205.5,745.5C 207.455,747.668 208.121,750.002 207.5,752.5C 201.186,754.872 195.186,757.705 189.5,761C 191.218,765.331 193.218,769.497 195.5,773.5C 201.072,770.368 204.739,765.701 206.5,759.5C 208.475,758.422 210.308,758.755 212,760.5C 210.402,766.526 207.569,772.026 203.5,777C 200.001,779.704 196.334,780.037 192.5,778C 189.433,774.703 187.267,770.869 186,766.5C 184.395,763.726 182.228,763.06 179.5,764.5C 182.416,772.945 186.082,780.945 190.5,788.5C 196.597,784.644 202.597,784.644 208.5,788.5C 210.628,784.41 212.628,780.243 214.5,776C 216.567,775.464 218.401,775.964 220,777.5C 216.889,787.391 212.389,796.724 206.5,805.5C 204.205,804.864 202.539,803.531 201.5,801.5C 202.328,798.521 202.995,795.521 203.5,792.5C 199.905,792.976 196.572,794.142 193.5,796C 196.461,801.422 199.294,806.922 202,812.5C 211.333,807.167 220.667,801.833 230,796.5C 233.797,800.467 233.297,803.633 228.5,806C 220.833,810.333 213.167,814.667 205.5,819C 206.646,821.144 208.146,822.977 210,824.5C 218.9,819.299 227.733,813.966 236.5,808.5C 237.833,810.5 239.167,812.5 240.5,814.5C 235.955,817.266 231.622,820.266 227.5,823.5C 227.977,824.478 228.643,825.311 229.5,826C 232.854,826.455 236.187,826.955 239.5,827.5C 239.766,831.605 239.266,835.605 238,839.5C 237.311,840.357 236.478,841.023 235.5,841.5C 229.787,838.07 225.454,839.403 222.5,845.5C 224.423,846.308 226.423,846.808 228.5,847C 230.14,849.776 229.473,851.776 226.5,853C 224.5,853.667 222.5,853.667 220.5,853C 217.862,850.222 215.862,847.056 214.5,843.5C 218.019,839.148 222.019,835.314 226.5,832C 225.521,829.863 224.188,828.029 222.5,826.5C 219.921,827.706 217.421,829.039 215,830.5C 214.818,833.226 214.318,835.893 213.5,838.5C 212.5,838 211.5,837.5 210.5,837C 196.997,815.834 185.164,793.667 175,770.5C 174.586,770.043 174.086,769.709 173.5,769.5C 164.997,777.225 158.497,775.891 154,765.5C 153.199,755.939 157.033,748.772 165.5,744C 160.502,730.84 157.002,717.34 155,703.5C 155.414,703.043 155.914,702.709 156.5,702.5C 158.253,704.261 160.253,705.594 162.5,706.5C 171.084,704.608 179.417,702.274 187.5,699.5 Z"/></g>
<g><path style="opacity:1" fill="#0b51a2" d="M 519.5,700.5 C 521.167,700.5 522.833,700.5 524.5,700.5C 524.5,702.5 524.5,704.5 524.5,706.5C 520.894,706.789 517.394,706.456 514,705.5C 513.383,704.551 513.549,703.718 514.5,703C 516.315,702.243 517.981,701.41 519.5,700.5 Z"/></g>
<g><path style="opacity:1" fill="#1456a4" d="M 672.5,700.5 C 676.167,700.5 679.833,700.5 683.5,700.5C 683.5,702.5 683.5,704.5 683.5,706.5C 679.802,706.448 676.135,706.114 672.5,705.5C 672.5,703.833 672.5,702.167 672.5,700.5 Z"/></g>
<g><path style="opacity:1" fill="#1b58a5" d="M 689.5,702.5 C 694.167,703.167 698.833,703.833 703.5,704.5C 703.579,705.93 703.246,707.264 702.5,708.5C 698.208,709.274 693.875,709.274 689.5,708.5C 689.5,706.5 689.5,704.5 689.5,702.5 Z"/></g>
<g><path style="opacity:1" fill="#004ea0" d="M 477.5,703.5 C 480.5,703.5 483.5,703.5 486.5,703.5C 486.5,705.167 486.5,706.833 486.5,708.5C 483.5,708.5 480.5,708.5 477.5,708.5C 477.5,706.833 477.5,705.167 477.5,703.5 Z"/></g>
<g><path style="opacity:1" fill="#1c58a5" d="M 494.5,703.5 C 498.514,703.334 502.514,703.501 506.5,704C 509.207,707.35 508.207,709.017 503.5,709C 500.518,709.498 497.518,709.665 494.5,709.5C 494.5,707.5 494.5,705.5 494.5,703.5 Z"/></g>
<g><path style="opacity:1" fill="#0d53a2" d="M 712.5,704.5 C 716.866,703.847 719.866,705.514 721.5,709.5C 717.555,710.491 713.555,710.824 709.5,710.5C 709.461,707.911 710.461,705.911 712.5,704.5 Z"/></g>
<g><path style="opacity:1" fill="#1053a3" d="M 631.5,708.5 C 634.833,708.5 638.167,708.5 641.5,708.5C 641.5,710.167 641.5,711.833 641.5,713.5C 634.775,714.686 628.108,715.852 621.5,717C 620.313,715.981 619.313,714.814 618.5,713.5C 622.856,711.608 627.189,709.942 631.5,708.5 Z"/></g>
<g><path style="opacity:1" fill="#1654a3" d="M 649.5,707.5 C 653.439,708.327 657.439,708.994 661.5,709.5C 661.5,711.5 661.5,713.5 661.5,715.5C 657.772,715.156 654.105,714.49 650.5,713.5C 649.534,711.604 649.201,709.604 649.5,707.5 Z"/></g>
<g><path style="opacity:1" fill="#1053a3" d="M 538.5,709.5 C 541.518,709.335 544.518,709.502 547.5,710C 549.013,712.454 548.346,714.121 545.5,715C 542.183,715.498 538.85,715.665 535.5,715.5C 535.5,713.833 535.5,712.167 535.5,710.5C 536.791,710.737 537.791,710.404 538.5,709.5 Z"/></g>
<g><path style="opacity:1" fill="#0d52a2" d="M 555.5,709.5 C 563.739,709.479 571.406,711.479 578.5,715.5C 577.5,717.167 576.167,718.5 574.5,719.5C 568.325,717.372 561.991,716.039 555.5,715.5C 555.5,713.5 555.5,711.5 555.5,709.5 Z"/></g>
<g><path style="opacity:1" fill="#f6f9fb" d="M 173.5,710.5 C 179.678,709.837 183.011,712.67 183.5,719C 183.375,720.627 182.875,722.127 182,723.5C 179.735,720.534 176.735,719.201 173,719.5C 169.718,719.731 166.551,720.397 163.5,721.5C 163.425,718.794 163.092,716.127 162.5,713.5C 166.479,713.258 170.146,712.258 173.5,710.5 Z"/></g>
<g><path style="opacity:1" fill="#1454a3" d="M 669.5,710.5 C 673.085,711.583 676.751,712.249 680.5,712.5C 680.5,714.5 680.5,716.5 680.5,718.5C 676.167,717.833 671.833,717.167 667.5,716.5C 667.604,714.297 668.27,712.297 669.5,710.5 Z"/></g>
<g><path style="opacity:1" fill="#1052a2" d="M 518.5,712.5 C 521.85,712.335 525.183,712.502 528.5,713C 529.357,713.689 530.023,714.522 530.5,715.5C 526.236,718.091 521.569,719.091 516.5,718.5C 516.259,716.114 516.925,714.114 518.5,712.5 Z"/></g>
<g><path style="opacity:1" fill="#1053a3" d="M 687.5,714.5 C 692.203,714.437 696.87,714.771 701.5,715.5C 701.5,717.5 701.5,719.5 701.5,721.5C 696.334,721.151 691.334,720.151 686.5,718.5C 687.246,717.264 687.579,715.93 687.5,714.5 Z"/></g>
<g><path style="opacity:1" fill="#1c58a6" d="M 500.5,714.5 C 503.187,714.336 505.854,714.503 508.5,715C 510.607,716.264 511.607,718.097 511.5,720.5C 506.167,720.833 500.833,721.167 495.5,721.5C 495.5,719.5 495.5,717.5 495.5,715.5C 497.415,715.784 499.081,715.451 500.5,714.5 Z"/></g>
<g><path style="opacity:1" fill="#0550a1" d="M 467.5,715.5 C 474.465,716.341 481.465,716.674 488.5,716.5C 488.5,718.167 488.5,719.833 488.5,721.5C 481.159,721.666 473.826,721.5 466.5,721C 467.406,719.301 467.739,717.467 467.5,715.5 Z"/></g>
<g><path style="opacity:1" fill="#1354a3" d="M 710.5,716.5 C 716.544,716.839 722.544,717.506 728.5,718.5C 728.421,719.93 728.754,721.264 729.5,722.5C 722.438,723.752 715.438,723.419 708.5,721.5C 709.456,719.925 710.123,718.258 710.5,716.5 Z"/></g>
<g><path style="opacity:1" fill="#0c51a2" d="M 1005.5,719.5 C 1016.89,723.295 1028.22,727.295 1039.5,731.5C 1040.15,734.952 1039.48,738.285 1037.5,741.5C 1036.17,741.833 1034.83,742.167 1033.5,742.5C 1026.17,741.555 1018.83,741.055 1011.5,741C 1018.96,745.314 1025.96,750.147 1032.5,755.5C 1031.75,759.101 1030.41,762.434 1028.5,765.5C 1017.2,761.79 1006.04,757.79 995,753.5C 994.461,750.435 995.461,748.102 998,746.5C 1004.88,748.907 1011.72,751.074 1018.5,753C 1011.66,748.748 1004.99,744.248 998.5,739.5C 999.513,736.797 1001.01,734.464 1003,732.5C 1010.45,734.048 1017.95,734.882 1025.5,735C 1018.2,732.066 1010.86,729.233 1003.5,726.5C 1004.32,724.199 1004.99,721.865 1005.5,719.5 Z"/></g>
<g><path style="opacity:1" fill="#0c53a2" d="M 641.5,720.5 C 646.833,720.5 652.167,720.5 657.5,720.5C 657.5,722.5 657.5,724.5 657.5,726.5C 652.167,726.5 646.833,726.5 641.5,726.5C 641.5,724.5 641.5,722.5 641.5,720.5 Z"/></g>
<g><path style="opacity:1" fill="#1b57a5" d="M 663.5,721.5 C 667.814,722.275 672.147,722.941 676.5,723.5C 676.5,725.5 676.5,727.5 676.5,729.5C 672.346,729.369 668.346,728.536 664.5,727C 662.365,725.444 662.032,723.611 663.5,721.5 Z"/></g>
<g><path style="opacity:1" fill="#1e58a5" d="M 537.5,722.5 C 543.167,722.5 548.833,722.5 554.5,722.5C 554.5,724.5 554.5,726.5 554.5,728.5C 549.733,728.809 545.066,728.309 540.5,727C 538.859,725.871 537.859,724.371 537.5,722.5 Z"/></g>
<g><path style="opacity:1" fill="#1756a4" d="M 528.5,722.5 C 530.167,722.5 531.833,722.5 533.5,722.5C 532.949,728.367 529.616,731.034 523.5,730.5C 521.469,729.461 520.136,727.795 519.5,725.5C 522.576,724.366 525.576,723.366 528.5,722.5 Z"/></g>
<g><path style="opacity:1" fill="#0c53a3" d="M 630.5,722.5 C 634.713,722.699 636.046,724.699 634.5,728.5C 630.42,731.581 626.253,731.914 622,729.5C 621.493,728.004 621.993,726.837 623.5,726C 626.069,725.102 628.402,723.935 630.5,722.5 Z"/></g>
<g><path style="opacity:1" fill="#0e53a2" d="M 562.5,724.5 C 567.223,725.185 571.557,726.852 575.5,729.5C 575.023,730.478 574.357,731.311 573.5,732C 568.405,733.332 564.072,732.165 560.5,728.5C 561.18,727.14 561.847,725.807 562.5,724.5 Z"/></g>
<g><path style="opacity:1" fill="#1c58a5" d="M 680.5,724.5 C 684.933,725.039 689.267,726.039 693.5,727.5C 696.019,729.641 696.019,731.641 693.5,733.5C 688.643,733.413 684.476,731.747 681,728.5C 680.51,727.207 680.343,725.873 680.5,724.5 Z"/></g>
<g><path style="opacity:1" fill="#1a57a5" d="M 511.5,725.5 C 512.675,725.281 513.675,725.614 514.5,726.5C 515.348,728.409 515.682,730.409 515.5,732.5C 511.089,732.936 506.756,732.936 502.5,732.5C 501.96,731.252 501.293,730.085 500.5,729C 500.833,728.667 501.167,728.333 501.5,728C 505.038,727.465 508.372,726.632 511.5,725.5 Z"/></g>
<g><path style="opacity:1" fill="#1154a3" d="M 701.5,728.5 C 706.833,728.833 712.167,729.167 717.5,729.5C 717.822,731.722 717.155,733.556 715.5,735C 710.826,735.333 706.16,735.167 701.5,734.5C 701.5,732.5 701.5,730.5 701.5,728.5 Z"/></g>
<g><path style="opacity:1" fill="#1254a3" d="M 488.5,728.5 C 490.5,728.5 492.5,728.5 494.5,728.5C 494.5,730.5 494.5,732.5 494.5,734.5C 490.181,735.249 485.848,735.415 481.5,735C 479.329,733.826 478.329,731.993 478.5,729.5C 482.042,729.813 485.375,729.479 488.5,728.5 Z"/></g>
<g><path style="opacity:1" fill="#0a52a2" d="M 456.5,729.5 C 461.833,729.5 467.167,729.5 472.5,729.5C 472.5,731.5 472.5,733.5 472.5,735.5C 467.821,735.666 463.155,735.499 458.5,735C 456.845,733.556 456.178,731.722 456.5,729.5 Z"/></g>
<g><path style="opacity:1" fill="#1053a2" d="M 723.5,730.5 C 728.511,730.334 733.511,730.501 738.5,731C 741.15,733.082 740.816,734.749 737.5,736C 732.845,736.499 728.179,736.666 723.5,736.5C 723.5,734.5 723.5,732.5 723.5,730.5 Z"/></g>
<g><path style="opacity:1" fill="#3065ae" d="M 646.5,732.5 C 650.514,732.334 654.514,732.501 658.5,733C 659.423,735.041 659.756,737.208 659.5,739.5C 655.167,739.5 650.833,739.5 646.5,739.5C 646.5,737.167 646.5,734.833 646.5,732.5 Z"/></g>
<g><path style="opacity:1" fill="#1d58a5" d="M 535.5,734.5 C 540.167,734.5 544.833,734.5 549.5,734.5C 549.326,736.861 548.993,739.194 548.5,741.5C 544.833,741.5 541.167,741.5 537.5,741.5C 537.122,739.079 536.455,736.746 535.5,734.5 Z"/></g>
<g><path style="opacity:1" fill="#1d58a5" d="M 527.5,734.5 C 528.496,734.414 529.329,734.748 530,735.5C 530.346,737.218 530.846,738.885 531.5,740.5C 526.963,742.134 522.297,743.134 517.5,743.5C 517.326,741.139 516.993,738.806 516.5,736.5C 520.425,736.57 524.091,735.903 527.5,734.5 Z"/></g>
<g><path style="opacity:1" fill="#2462ad" d="M 638.5,739.5 C 638.631,738.624 638.298,737.957 637.5,737.5C 634.835,740.446 631.668,741.446 628,740.5C 626.989,741.056 626.156,741.722 625.5,742.5C 623.534,741.745 623.2,740.579 624.5,739C 629.304,736.787 634.304,735.287 639.5,734.5C 639.784,736.415 639.451,738.081 638.5,739.5 Z"/></g>
<g><path style="opacity:1" fill="#0f53a3" d="M 557.5,736.5 C 562.826,737.442 567.826,739.275 572.5,742C 570.796,744.757 568.462,746.09 565.5,746C 561.888,744.861 558.554,743.194 555.5,741C 556.267,739.53 556.933,738.03 557.5,736.5 Z"/></g>
<g><path style="opacity:1" fill="#1a56a4" d="M 684.5,737.5 C 689.563,738.177 694.563,739.177 699.5,740.5C 700.466,742.396 700.799,744.396 700.5,746.5C 694.809,746.02 689.142,745.354 683.5,744.5C 683.993,742.194 684.326,739.861 684.5,737.5 Z"/></g>
<g><path style="opacity:1" fill="#1b57a5" d="M 504.5,738.5 C 509.05,737.724 511.716,739.558 512.5,744C 506.631,745.807 500.631,746.641 494.5,746.5C 494.201,744.396 494.534,742.396 495.5,740.5C 498.64,739.911 501.64,739.244 504.5,738.5 Z"/></g>
<g><path style="opacity:1" fill="#80abdd" d="M 666.5,733.5 C 670.443,734.486 674.443,735.152 678.5,735.5C 678.663,737.857 678.497,740.19 678,742.5C 677.51,741.207 677.343,739.873 677.5,738.5C 676.5,738.5 675.5,738.5 674.5,738.5C 674.5,739.5 674.5,740.5 674.5,741.5C 671.482,741.665 668.482,741.498 665.5,741C 664.465,739.493 664.632,737.993 666,736.5C 666.483,737.448 666.649,738.448 666.5,739.5C 668.167,739.5 669.833,739.5 671.5,739.5C 671.5,738.167 671.5,736.833 671.5,735.5C 669.219,735.923 667.552,735.256 666.5,733.5 Z"/></g>
<g><path style="opacity:1" fill="#1956a4" d="M 478.5,741.5 C 482.167,741.5 485.833,741.5 489.5,741.5C 489.917,744.079 489.25,746.246 487.5,748C 482.511,748.499 477.511,748.666 472.5,748.5C 472.5,746.5 472.5,744.5 472.5,742.5C 474.735,742.795 476.735,742.461 478.5,741.5 Z"/></g>
<g><path style="opacity:1" fill="#0650a1" d="M 707.5,741.5 C 712.507,741.751 717.507,742.084 722.5,742.5C 722.5,744.5 722.5,746.5 722.5,748.5C 717.13,748.608 711.797,748.275 706.5,747.5C 706.325,745.379 706.659,743.379 707.5,741.5 Z"/></g>
<g><path style="opacity:1" fill="#90b9e5" d="M 638.5,739.5 C 635.927,742.466 632.594,744.466 628.5,745.5C 627.145,744.812 626.145,743.812 625.5,742.5C 626.156,741.722 626.989,741.056 628,740.5C 631.668,741.446 634.835,740.446 637.5,737.5C 638.298,737.957 638.631,738.624 638.5,739.5 Z"/></g>
<g><path style="opacity:1" fill="#2058a5" d="M 447.5,742.5 C 453.833,742.5 460.167,742.5 466.5,742.5C 466.5,744.833 466.5,747.167 466.5,749.5C 460.167,749.5 453.833,749.5 447.5,749.5C 447.5,747.167 447.5,744.833 447.5,742.5 Z"/></g>
<g><path style="opacity:1" fill="#0a51a1" d="M 730.5,744.5 C 735.527,744.503 740.527,744.836 745.5,745.5C 745.5,747.5 745.5,749.5 745.5,751.5C 741.154,751.666 736.821,751.499 732.5,751C 728.381,749.641 727.715,747.474 730.5,744.5 Z"/></g>
<g><path style="opacity:1" fill="#f4f7fb" d="M 166.5,750.5 C 168.528,754.068 170.195,757.902 171.5,762C 169.515,764.818 166.848,766.651 163.5,767.5C 158.062,765.001 157.229,761.334 161,756.5C 163.04,754.63 164.873,752.63 166.5,750.5 Z"/></g>
<g><path style="opacity:1" fill="#0d51a2" d="M 991.5,758.5 C 1002.72,763.359 1013.89,768.359 1025,773.5C 1022.86,781.554 1019.36,789.054 1014.5,796C 1008.42,798.796 1003.42,797.463 999.5,792C 987.622,793.456 982.456,788.289 984,776.5C 986.237,770.364 988.737,764.364 991.5,758.5 Z"/></g>
<g><path style="opacity:1" fill="#f6f9fd" d="M 585.5,776.5 C 584.909,777.151 584.243,777.818 583.5,778.5C 584.833,779.62 585.333,780.953 585,782.5C 583.667,781.167 582.333,781.167 581,782.5C 579.08,787.593 576.913,792.593 574.5,797.5C 573.833,797.833 573.167,798.167 572.5,798.5C 569.87,797.622 567.203,796.955 564.5,796.5C 564.5,797.5 564.5,798.5 564.5,799.5C 562.801,799.34 561.134,799.506 559.5,800C 562.833,801 566.167,802 569.5,803C 570.38,804.356 570.714,805.856 570.5,807.5C 560.859,805.705 551.192,804.039 541.5,802.5C 541.5,804.167 541.5,805.833 541.5,807.5C 550.874,808.339 559.874,810.506 568.5,814C 515.534,814.375 462.534,814.542 409.5,814.5C 409.215,812.712 409.548,811.045 410.5,809.5C 422.082,811.397 433.748,811.897 445.5,811C 437.841,810.604 437.841,809.27 445.5,807C 433.749,806.885 422.083,805.885 410.5,804C 408.604,802.935 408.437,802.102 410,801.5C 423.093,803.256 436.259,803.923 449.5,803.5C 456.866,802.997 464.199,802.163 471.5,801C 466.496,800.61 461.496,800.777 456.5,801.5C 454.5,801.167 452.5,800.833 450.5,800.5C 451.09,799.201 452.09,798.368 453.5,798C 450.961,797.204 448.628,797.371 446.5,798.5C 434.4,798.905 422.4,798.072 410.5,796C 422.22,795.601 433.887,794.601 445.5,793C 444.552,792.517 443.552,792.351 442.5,792.5C 442.196,791.85 441.863,791.183 441.5,790.5C 444.687,789.135 448.02,788.301 451.5,788C 446.275,787.448 441.275,787.948 436.5,789.5C 425.805,790.919 415.139,790.752 404.5,789C 420.119,787.027 435.786,785.527 451.5,784.5C 458.837,783.444 466.171,782.277 473.5,781C 466.978,780.89 460.478,781.39 454,782.5C 452.167,782.167 450.333,781.833 448.5,781.5C 454.992,779.393 461.659,778.059 468.5,777.5C 461.46,777.218 454.46,777.884 447.5,779.5C 432.216,781.39 416.883,782.223 401.5,782C 399.668,781.252 398.001,780.252 396.5,779C 424.901,779.283 452.901,776.116 480.5,769.5C 480.137,768.817 479.804,768.15 479.5,767.5C 481.452,767.995 483.452,768.328 485.5,768.5C 504.703,765.122 524.036,763.955 543.5,765C 546.687,765.001 549.52,765.834 552,767.5C 555.459,766.578 558.959,766.745 562.5,768C 570.19,770.848 577.856,773.681 585.5,776.5 Z"/></g>
<g><path style="opacity:1" fill="#4a84c5" d="M 730.5,767.5 C 730.918,768.222 731.584,768.722 732.5,769C 732.167,769.333 731.833,769.667 731.5,770C 727.535,770.108 723.868,770.941 720.5,772.5C 719.375,771.652 719.375,770.652 720.5,769.5C 725.656,768.067 725.323,766.901 719.5,766C 723.285,765.657 726.952,766.157 730.5,767.5 Z"/></g>
<g><path style="opacity:1" fill="#f7f9fc" d="M 994.5,769.5 C 997.691,770.092 1000.69,771.259 1003.5,773C 1001.19,777.133 998.524,780.966 995.5,784.5C 992.674,783.518 991.34,781.518 991.5,778.5C 992.221,775.395 993.221,772.395 994.5,769.5 Z"/></g>
<g><path style="opacity:1" fill="#7aa5d4" d="M 592.5,763.5 C 592.823,767.226 592.489,770.893 591.5,774.5C 589.929,775.309 588.262,775.643 586.5,775.5C 587.641,774.661 588.974,773.994 590.5,773.5C 591.167,770.023 591.834,766.689 592.5,763.5 Z"/></g>
<g><path style="opacity:1" fill="#f4f8fd" d="M 720.5,769.5 C 719.375,770.652 719.375,771.652 720.5,772.5C 742.25,777.107 764.25,779.607 786.5,780C 785.328,780.419 784.328,781.085 783.5,782C 776.167,782.667 768.833,782.667 761.5,782C 747.054,780.481 732.721,778.314 718.5,775.5C 714.548,773.696 713.548,774.696 715.5,778.5C 713.801,778.34 712.134,778.506 710.5,779C 713.207,779.395 715.873,779.895 718.5,780.5C 738.317,784.414 758.317,786.914 778.5,788C 771.882,789.378 765.215,789.711 758.5,789C 741.777,786.656 725.11,784.322 708.5,782C 709.337,783.011 709.67,784.178 709.5,785.5C 707.473,785.338 705.473,785.505 703.5,786C 729.6,791.048 755.933,794.048 782.5,795C 781.672,795.915 780.672,796.581 779.5,797C 770.167,797.667 760.833,797.667 751.5,797C 736.922,794.06 722.255,792.06 707.5,791C 708.791,793.09 708.124,794.424 705.5,795C 720.932,796.686 736.265,799.02 751.5,802C 761.139,803.032 770.806,803.699 780.5,804C 775.191,805.914 769.691,806.747 764,806.5C 741.486,804.535 718.986,802.535 696.5,800.5C 691.652,799.186 686.652,799.186 681.5,800.5C 682.711,801.72 682.711,802.887 681.5,804C 677.644,804.177 673.977,804.677 670.5,805.5C 661.74,806.37 653.074,807.704 644.5,809.5C 642.631,808.835 640.631,808.169 638.5,807.5C 639.381,806.029 640.714,805.196 642.5,805C 640.735,804.36 639.068,804.527 637.5,805.5C 633.644,805.971 629.811,806.638 626,807.5C 624.93,807.472 624.097,807.139 623.5,806.5C 624.289,806.217 624.956,805.717 625.5,805C 622.184,803.749 621.85,802.082 624.5,800C 622.564,799.187 620.564,798.687 618.5,798.5C 616.366,797.297 615.032,795.463 614.5,793C 615.167,792.333 615.833,791.667 616.5,791C 614.808,789.599 614.141,787.766 614.5,785.5C 611.331,785.338 609.331,783.672 608.5,780.5C 610.993,778.42 613.659,776.586 616.5,775C 612.25,774.768 611.583,773.268 614.5,770.5C 614.376,769.893 614.043,769.56 613.5,769.5C 616.077,767.21 619.077,766.044 622.5,766C 620.824,767.177 619.491,768.677 618.5,770.5C 619,770.833 619.5,771.167 620,771.5C 634.115,766.953 648.615,764.62 663.5,764.5C 682.546,765.802 701.546,767.468 720.5,769.5 Z"/></g>
<g><path style="opacity:1" fill="#f1f5fa" d="M 1008.5,776.5 C 1010.86,776.674 1013.19,777.007 1015.5,777.5C 1014.71,782.422 1012.37,786.422 1008.5,789.5C 1006.73,788.73 1005.73,787.397 1005.5,785.5C 1006.31,782.408 1007.31,779.408 1008.5,776.5 Z"/></g>
<g><path style="opacity:1" fill="#84aad6" d="M 1173.5,774.5 C 1173.47,777.916 1172.47,780.916 1170.5,783.5C 1170.93,780.215 1171.93,777.215 1173.5,774.5 Z"/></g>
<g><path style="opacity:1" fill="#76a8dd" d="M 718.5,775.5 C 719.562,777.234 719.562,778.901 718.5,780.5C 715.873,779.895 713.207,779.395 710.5,779C 712.134,778.506 713.801,778.34 715.5,778.5C 713.548,774.696 714.548,773.696 718.5,775.5 Z"/></g>
<g><path style="opacity:1" fill="#bfdaf5" d="M 451.5,784.5 C 450.432,783.566 449.099,783.232 447.5,783.5C 447.5,782.167 447.5,780.833 447.5,779.5C 454.46,777.884 461.46,777.218 468.5,777.5C 461.659,778.059 454.992,779.393 448.5,781.5C 450.333,781.833 452.167,782.167 454,782.5C 460.478,781.39 466.978,780.89 473.5,781C 466.171,782.277 458.837,783.444 451.5,784.5 Z"/></g>
<g><path style="opacity:1" fill="#fcfcfd" d="M 595.5,782.5 C 604.832,789.697 611.332,799.03 615,810.5C 616.962,817.075 614.795,821.575 608.5,824C 601.548,825.397 594.548,825.73 587.5,825C 579.292,822.421 576.459,816.921 579,808.5C 583.249,798.993 588.749,790.326 595.5,782.5 Z"/></g>
<g><path style="opacity:1" fill="#0e52a2" d="M 978.5,787.5 C 987.133,796.302 995.633,805.302 1004,814.5C 1004.41,818.188 1003.25,821.354 1000.5,824C 987.391,822.704 974.391,820.537 961.5,817.5C 962.803,815.063 964.47,812.896 966.5,811C 969.224,810.73 971.891,810.23 974.5,809.5C 976.886,806.408 978.386,803.075 979,799.5C 977.818,797.656 976.651,795.823 975.5,794C 976.377,791.747 977.377,789.581 978.5,787.5 Z"/></g>
<g><path style="opacity:1" fill="#71a0d5" d="M 442.5,792.5 C 441.5,792.5 440.5,792.5 439.5,792.5C 439.5,791.5 439.5,790.5 439.5,789.5C 438.5,789.5 437.5,789.5 436.5,789.5C 441.275,787.948 446.275,787.448 451.5,788C 448.02,788.301 444.687,789.135 441.5,790.5C 441.863,791.183 442.196,791.85 442.5,792.5 Z"/></g>
<g><path style="opacity:1" fill="#7caadc" d="M 618.5,798.5 C 620.564,798.687 622.564,799.187 624.5,800C 621.85,802.082 622.184,803.749 625.5,805C 624.956,805.717 624.289,806.217 623.5,806.5C 622.069,804.811 621.236,802.811 621,800.5C 620.005,799.934 619.172,799.267 618.5,798.5 Z"/></g>
<g><path style="opacity:1" fill="#accbea" d="M 446.5,798.5 C 448.628,797.371 450.961,797.204 453.5,798C 452.09,798.368 451.09,799.201 450.5,800.5C 452.5,800.833 454.5,801.167 456.5,801.5C 461.496,800.777 466.496,800.61 471.5,801C 464.199,802.163 456.866,802.997 449.5,803.5C 449.5,801.833 449.5,800.167 449.5,798.5C 448.5,798.5 447.5,798.5 446.5,798.5 Z"/></g>
<g><path style="opacity:1" fill="#588fc9" d="M 696.5,800.5 C 693.833,800.5 691.167,800.5 688.5,800.5C 688.67,801.822 688.337,802.989 687.5,804C 688.737,804.232 689.737,804.732 690.5,805.5C 683.833,805.5 677.167,805.5 670.5,805.5C 673.977,804.677 677.644,804.177 681.5,804C 682.711,802.887 682.711,801.72 681.5,800.5C 686.652,799.186 691.652,799.186 696.5,800.5 Z"/></g>
<g><path style="opacity:1" fill="#fdfefe" d="M 670.5,805.5 C 677.167,805.5 683.833,805.5 690.5,805.5C 710.232,806.359 729.899,808.026 749.5,810.5C 760.5,811.167 771.5,811.833 782.5,812.5C 782.389,813.117 782.056,813.617 781.5,814C 730.5,814.667 679.5,814.667 628.5,814C 631.893,811.924 635.56,810.758 639.5,810.5C 641.042,809.699 642.708,809.366 644.5,809.5C 653.074,807.704 661.74,806.37 670.5,805.5 Z"/></g>
<g><path style="opacity:1" fill="#ebf1f7" d="M 984.5,806.5 C 988.266,808.43 991.266,811.264 993.5,815C 989.376,815.008 985.376,814.175 981.5,812.5C 983.038,810.757 984.038,808.757 984.5,806.5 Z"/></g>
<g><path style="opacity:1" fill="#8dbae9" d="M 644.5,809.5 C 642.708,809.366 641.042,809.699 639.5,810.5C 638.737,809.732 637.737,809.232 636.5,809C 637.337,807.989 637.67,806.822 637.5,805.5C 639.068,804.527 640.735,804.36 642.5,805C 640.714,805.196 639.381,806.029 638.5,807.5C 640.631,808.169 642.631,808.835 644.5,809.5 Z"/></g>
<g><path style="opacity:1" fill="#6997c7" d="M 749.5,810.5 C 760.853,810.168 772.186,810.501 783.5,811.5C 783.376,812.107 783.043,812.44 782.5,812.5C 771.5,811.833 760.5,811.167 749.5,810.5 Z"/></g>
<g><path style="opacity:1" fill="#5291d4" d="M 394.5,821.5 C 444.997,822.499 495.664,822.832 546.5,822.5C 495.665,823.831 444.665,823.831 393.5,822.5C 393.624,821.893 393.957,821.56 394.5,821.5 Z"/></g>
<g><path style="opacity:1" fill="#0951a1" d="M 957.5,825.5 C 961.723,828.442 966.39,830.609 971.5,832C 979.152,832.931 986.819,833.764 994.5,834.5C 993.397,837.719 991.563,840.385 989,842.5C 984.844,841.797 980.677,841.131 976.5,840.5C 975.833,840.833 975.167,841.167 974.5,841.5C 976.969,845.801 979.636,849.967 982.5,854C 981.21,856.292 979.543,858.292 977.5,860C 976.668,860.688 976.002,860.521 975.5,859.5C 972,853.167 968.5,846.833 965,840.5C 961.117,836.95 956.951,833.783 952.5,831C 954.373,829.296 956.04,827.463 957.5,825.5 Z"/></g>
<g><path style="opacity:1" fill="#6293d1" d="M 86.5,884.5 C 82.8506,885.705 79.0172,886.705 75,887.5C 73.9302,887.472 73.0968,887.139 72.5,886.5C 77.1065,885.446 81.7732,884.779 86.5,884.5 Z"/></g>
<g><path style="opacity:1" fill="#0650a1" d="M 944.5,1169.5 C 943.167,1169.5 941.833,1169.5 940.5,1169.5C 937.921,1166.87 934.921,1164.7 931.5,1163C 905.929,1152.2 880.263,1142.03 854.5,1132.5C 850.498,1130.39 846.165,1129.06 841.5,1128.5C 826.577,1124.4 811.744,1120.06 797,1115.5C 796.561,1111.79 796.894,1108.12 798,1104.5C 801.977,1089.59 805.477,1074.59 808.5,1059.5C 748.634,1044.95 687.968,1036.28 626.5,1033.5C 616.005,1032.83 605.339,1032.5 594.5,1032.5C 576.977,1032.37 559.644,1033.04 542.5,1034.5C 489.685,1038.16 437.352,1046 385.5,1058C 383.354,1058.48 382.354,1059.81 382.5,1062C 386.413,1077.82 390.247,1093.65 394,1109.5C 394.808,1111.58 394.641,1113.58 393.5,1115.5C 347.805,1127.17 303.472,1142.67 260.5,1162C 256.561,1163.79 253.228,1166.29 250.5,1169.5C 248.5,1169.5 246.5,1169.5 244.5,1169.5C 244.657,1168.13 244.49,1166.79 244,1165.5C 238.719,1155.94 233.719,1146.27 229,1136.5C 212.959,1107.43 197.125,1078.09 181.5,1048.5C 181.608,1047.56 181.941,1046.72 182.5,1046C 202.702,1032.81 223.868,1021.31 246,1011.5C 241.906,1000.3 236.906,989.296 231,978.5C 230.316,977.216 230.483,976.049 231.5,975C 255.246,963.638 279.58,953.638 304.5,945C 525.781,871.167 743.114,880.834 956.5,974C 958.325,975.466 958.825,977.299 958,979.5C 953.964,989.244 949.63,998.911 945,1008.5C 944.333,1009.83 944.333,1011.17 945,1012.5C 966.708,1022.27 987.541,1033.43 1007.5,1046C 1008.57,1046.74 1009.24,1047.74 1009.5,1049C 987.928,1089.32 966.262,1129.48 944.5,1169.5 Z"/></g>
<g><path style="opacity:1" fill="#fdfdfe" d="M 562.5,917.5 C 690.644,913.966 813.644,937.133 931.5,987C 919.902,1013.03 907.902,1038.86 895.5,1064.5C 751.069,1013.19 603.069,999.352 451.5,1023C 398.156,1031.21 345.99,1044.04 295,1061.5C 282.621,1036.74 270.787,1011.74 259.5,986.5C 330.187,955.576 403.854,935.076 480.5,925C 507.907,921.606 535.24,919.106 562.5,917.5 Z"/></g>
<g><path style="opacity:1" fill="#0c51a2" d="M 722.5,931.5 C 725.854,932.261 728.687,933.928 731,936.5C 733.946,942.171 735.78,948.171 736.5,954.5C 766.667,959.459 796.334,966.459 825.5,975.5C 826.374,977.747 826.708,980.08 826.5,982.5C 824.063,982.244 821.729,981.577 819.5,980.5C 818.914,980.709 818.414,981.043 818,981.5C 814.66,991.354 811.826,1001.35 809.5,1011.5C 811.664,1015.83 813.831,1020.16 816,1024.5C 817.15,1026.75 817.484,1029.09 817,1031.5C 813.728,1024.96 809.061,1019.63 803,1015.5C 802.383,1012.96 802.883,1010.63 804.5,1008.5C 803.696,1007.06 803.029,1005.56 802.5,1004C 803.687,1001.28 804.353,998.443 804.5,995.5C 801.447,995.089 798.447,994.423 795.5,993.5C 793.364,996.072 790.697,997.239 787.5,997C 785.319,994.306 783.652,991.306 782.5,988C 786.259,983.908 788.592,979.075 789.5,973.5C 785.721,972.311 781.888,971.311 778,970.5C 777.055,970.905 776.388,971.572 776,972.5C 773.812,982.585 771.312,992.585 768.5,1002.5C 764.246,999.591 762.246,995.591 762.5,990.5C 750.149,990.651 743.816,984.484 743.5,972C 746.298,970.547 749.298,969.547 752.5,969C 753.5,968 754.5,967 755.5,966C 749.282,964.186 742.949,963.019 736.5,962.5C 735.247,972.858 733.747,983.192 732,993.5C 729.909,994.5 728.243,993.833 727,991.5C 725.293,989.091 724.46,986.425 724.5,983.5C 718.272,984.556 712.939,982.889 708.5,978.5C 700.709,985.317 693.209,984.984 686,977.5C 682.945,972.684 683.112,967.851 686.5,963C 680.483,951.355 683.816,947.022 696.5,950C 702.079,954.845 701.746,959.178 695.5,963C 698.573,963.697 700.573,965.53 701.5,968.5C 697.878,969.325 694.211,969.825 690.5,970C 687.833,971.667 687.833,973.333 690.5,975C 691.873,975.875 693.373,976.375 695,976.5C 698.926,975.727 702.759,974.727 706.5,973.5C 705.841,970.545 705.508,967.545 705.5,964.5C 709.785,964.462 713.452,962.962 716.5,960C 712.465,959.126 708.465,958.126 704.5,957C 703.167,954.667 701.833,952.333 700.5,950C 711.174,950.834 721.84,952 732.5,953.5C 731.926,947.433 729.093,942.767 724,939.5C 722.921,936.937 722.421,934.271 722.5,931.5 Z"/></g>
<g><path style="opacity:1" fill="#0c51a2" d="M 554.5,945.5 C 587.507,945.167 620.507,945.5 653.5,946.5C 654.5,948.5 655.5,950.5 656.5,952.5C 653.914,953.48 651.247,953.813 648.5,953.5C 647.584,964.488 647.417,975.488 648,986.5C 652.408,991.073 656.241,996.073 659.5,1001.5C 658.998,1002.52 658.332,1002.69 657.5,1002C 653.33,996.149 647.83,992.315 641,990.5C 640.293,988.919 639.46,987.419 638.5,986C 639.833,985.667 641.167,985.333 642.5,985C 641.299,984.097 640.465,982.931 640,981.5C 639.502,978.183 639.335,974.85 639.5,971.5C 636.15,971.335 632.817,971.502 629.5,972C 628.12,973.925 626.62,975.759 625,977.5C 621.604,974.607 618.771,971.274 616.5,967.5C 619.849,963.071 621.183,958.071 620.5,952.5C 617.833,952.5 615.167,952.5 612.5,952.5C 612.667,963.505 612.5,974.505 612,985.5C 605.467,983.173 602.967,978.506 604.5,971.5C 600.774,971.177 597.107,971.511 593.5,972.5C 592.833,973.833 592.167,975.167 591.5,976.5C 590.998,977.521 590.332,977.688 589.5,977C 586.269,974.273 583.603,971.106 581.5,967.5C 584.543,962.997 585.876,957.997 585.5,952.5C 581.833,952.5 578.167,952.5 574.5,952.5C 575.535,960.084 573.868,966.918 569.5,973C 571.653,975.822 573.819,978.656 576,981.5C 576.854,983.607 576.188,984.941 574,985.5C 565.308,979.979 559.475,972.313 556.5,962.5C 559.168,961.262 561.834,961.262 564.5,962.5C 565.484,959.572 565.817,956.572 565.5,953.5C 561.5,953.5 557.5,953.5 553.5,953.5C 553.822,964.871 553.822,976.204 553.5,987.5C 547.998,985.341 545.332,981.341 545.5,975.5C 539.922,977.302 534.588,976.802 529.5,974C 527.683,972.2 526.516,970.034 526,967.5C 525.608,963.472 525.108,959.472 524.5,955.5C 520.669,955.341 518.336,953.341 517.5,949.5C 518,949.167 518.5,948.833 519,948.5C 530.971,947.478 542.804,946.478 554.5,945.5 Z"/></g>
<g><path style="opacity:1" fill="#0e52a2" d="M 484.5,951.5 C 489.977,950.43 493.644,952.43 495.5,957.5C 492.625,958.081 489.958,959.081 487.5,960.5C 489.254,970.778 490.754,981.111 492,991.5C 498.182,994.339 503.015,998.672 506.5,1004.5C 503.912,1004.54 501.579,1003.38 499.5,1001C 495.487,999.396 491.487,997.896 487.5,996.5C 485.052,991.368 483.052,986.034 481.5,980.5C 474.736,978.297 470.57,980.63 469,987.5C 464.54,985.372 461.04,982.206 458.5,978C 460.345,973.419 461.012,968.585 460.5,963.5C 457.266,963.205 454.266,963.871 451.5,965.5C 453.715,976.121 455.715,986.788 457.5,997.5C 454.063,996.866 450.896,995.533 448,993.5C 447.077,989.21 446.577,984.877 446.5,980.5C 439.518,979.987 434.851,982.987 432.5,989.5C 429.053,988.361 426.219,986.361 424,983.5C 423.257,981.559 423.424,979.726 424.5,978C 430.697,975.701 437.031,973.867 443.5,972.5C 443.92,970.674 443.92,968.674 443.5,966.5C 434.165,967.792 424.999,969.792 416,972.5C 418.177,983.539 420.51,994.539 423,1005.5C 419.917,1004.36 416.917,1003.03 414,1001.5C 411.787,992.306 409.121,983.306 406,974.5C 404.013,975.218 402.179,976.218 400.5,977.5C 404.035,987.437 407.368,997.437 410.5,1007.5C 407.861,1008.36 405.194,1008.19 402.5,1007C 399.759,1001.79 397.593,996.288 396,990.5C 393.299,989.807 391.132,990.807 389.5,993.5C 393.386,997.143 394.386,1001.48 392.5,1006.5C 393.389,1008.9 394.889,1010.9 397,1012.5C 397.483,1013.45 397.649,1014.45 397.5,1015.5C 391.559,1013.58 385.559,1011.74 379.5,1010C 377.772,1007.62 377.439,1005.12 378.5,1002.5C 381.177,1001.93 383.843,1001.26 386.5,1000.5C 383.129,995.756 378.462,993.589 372.5,994C 373.453,992.045 374.787,990.378 376.5,989C 382.458,986.905 388.124,984.239 393.5,981C 391.167,980.333 388.833,980.333 386.5,981C 380.173,983.109 374.006,985.609 368,988.5C 365.073,987.283 362.573,985.45 360.5,983C 400.561,967.093 441.895,956.593 484.5,951.5 Z"/></g>
<g><path style="opacity:1" fill="#fefefe" d="M 593.5,952.5 C 597.167,952.5 600.833,952.5 604.5,952.5C 604.5,956.167 604.5,959.833 604.5,963.5C 600.833,963.5 597.167,963.5 593.5,963.5C 593.5,959.833 593.5,956.167 593.5,952.5 Z"/></g>
<g><path style="opacity:1" fill="#eff3f9" d="M 628.5,952.5 C 632.167,952.5 635.833,952.5 639.5,952.5C 639.5,956.5 639.5,960.5 639.5,964.5C 635.833,964.5 632.167,964.5 628.5,964.5C 628.5,960.5 628.5,956.5 628.5,952.5 Z"/></g>
<g><path style="opacity:1" fill="#f3f6fa" d="M 691.5,952.5 C 695.473,953.075 696.473,955.242 694.5,959C 689.148,959.175 688.148,957.009 691.5,952.5 Z"/></g>
<g><path style="opacity:1" fill="#f8fafc" d="M 541.5,953.5 C 542.5,953.5 543.5,953.5 544.5,953.5C 544.666,957.846 544.499,962.179 544,966.5C 541.502,968.417 538.835,970.084 536,971.5C 534.883,970.051 534.216,968.384 534,966.5C 533.501,962.514 533.334,958.514 533.5,954.5C 536.385,954.806 539.052,954.473 541.5,953.5 Z"/></g>
<g><path style="opacity:1" fill="#fbfcfd" d="M 474.5,960.5 C 476.167,960.5 477.833,960.5 479.5,960.5C 479.942,964.154 480.276,967.821 480.5,971.5C 476.846,971.942 473.179,972.276 469.5,972.5C 468.995,969.159 468.828,965.826 469,962.5C 470.948,961.891 472.782,961.224 474.5,960.5 Z"/></g>
<g><path style="opacity:1" fill="#f7f9fc" d="M 720.5,959.5 C 723.096,960.265 725.763,960.599 728.5,960.5C 728.193,965.181 727.193,969.681 725.5,974C 720.5,976 715.5,976 710.5,974C 717.309,971.388 720.643,966.554 720.5,959.5 Z"/></g>
<g><path style="opacity:1" fill="#f7f9fc" d="M 760.5,966.5 C 763.686,966.613 766.353,967.78 768.5,970C 766.756,982.584 760.422,985.584 749.5,979C 753.164,977.998 756.331,976.164 759,973.5C 760.202,971.323 760.702,968.989 760.5,966.5 Z"/></g>
<g><path style="opacity:1" fill="#f7f9fc" d="M 797.5,974.5 C 801.322,976.122 805.322,977.122 809.5,977.5C 809.533,980.836 808.866,984.003 807.5,987C 803.49,987.357 799.49,987.19 795.5,986.5C 795.952,982.454 796.619,978.454 797.5,974.5 Z"/></g>
<g><path style="opacity:1" fill="#f9fafc" d="M 255.5,1030.5 C 256.376,1030.37 257.043,1030.7 257.5,1031.5C 272.08,1061.24 286.08,1091.24 299.5,1121.5C 297.345,1124.26 294.678,1125.26 291.5,1124.5C 276.244,1094.99 261.244,1065.32 246.5,1035.5C 249.714,1034.06 252.714,1032.4 255.5,1030.5 Z"/></g>
<g><path style="opacity:1" fill="#4486cd" d="M 626.5,1033.5 C 598.493,1033.39 570.493,1033.72 542.5,1034.5C 559.644,1033.04 576.977,1032.37 594.5,1032.5C 605.339,1032.5 616.005,1032.83 626.5,1033.5 Z"/></g>
<g><path style="opacity:1" fill="#f2f7fd" d="M 919.5,1085.5 C 917.974,1086.1 916.974,1087.27 916.5,1089C 915.207,1089.49 913.873,1089.66 912.5,1089.5C 912.336,1086.81 912.503,1084.15 913,1081.5C 915.471,1075.25 917.638,1068.92 919.5,1062.5C 923.51,1051.48 928.343,1040.81 934,1030.5C 937.649,1032.4 941.149,1034.4 944.5,1036.5C 936.377,1053.08 928.044,1069.42 919.5,1085.5 Z"/></g>
<g><path style="opacity:1" fill="#fefefe" d="M 626.5,1033.5 C 687.968,1036.28 748.634,1044.95 808.5,1059.5C 805.477,1074.59 801.977,1089.59 798,1104.5C 796.894,1108.12 796.561,1111.79 797,1115.5C 811.744,1120.06 826.577,1124.4 841.5,1128.5C 845.502,1130.61 849.835,1131.94 854.5,1132.5C 880.263,1142.03 905.929,1152.2 931.5,1163C 934.921,1164.7 937.921,1166.87 940.5,1169.5C 710.5,1169.5 480.5,1169.5 250.5,1169.5C 253.228,1166.29 256.561,1163.79 260.5,1162C 303.472,1142.67 347.805,1127.17 393.5,1115.5C 394.641,1113.58 394.808,1111.58 394,1109.5C 390.247,1093.65 386.413,1077.82 382.5,1062C 382.354,1059.81 383.354,1058.48 385.5,1058C 437.352,1046 489.685,1038.16 542.5,1034.5C 570.493,1033.72 598.493,1033.39 626.5,1033.5 Z"/></g>
<g><path style="opacity:1" fill="#f9fbfd" d="M 236.5,1039.5 C 252.187,1069.04 267.52,1098.87 282.5,1129C 279.588,1130.37 276.754,1131.87 274,1133.5C 257.736,1104.64 242.236,1075.31 227.5,1045.5C 230.357,1043.24 233.357,1041.24 236.5,1039.5 Z"/></g>
<g><path style="opacity:1" fill="#f5f9fd" d="M 953.5,1040.5 C 957.423,1041.8 961.09,1043.63 964.5,1046C 949.191,1074.79 934.024,1103.62 919,1132.5C 915.214,1133.38 911.714,1132.55 908.5,1130C 923.068,1100.03 938.068,1070.2 953.5,1040.5 Z"/></g>
<g><path style="opacity:1" fill="#f9fafc" d="M 216.5,1050.5 C 218.776,1052.33 220.609,1054.66 222,1057.5C 235.451,1084.24 249.284,1110.74 263.5,1137C 260.995,1138.75 258.329,1140.25 255.5,1141.5C 240.167,1112.83 224.833,1084.17 209.5,1055.5C 211.724,1053.57 214.058,1051.9 216.5,1050.5 Z"/></g>
<g><path style="opacity:1" fill="#f7f9fc" d="M 973.5,1051.5 C 975.95,1052.78 978.283,1054.28 980.5,1056C 965.294,1084.25 949.96,1112.41 934.5,1140.5C 933.086,1139.38 931.586,1138.38 930,1137.5C 929.333,1136.5 929.333,1135.5 930,1134.5C 944.327,1106.69 958.827,1079.03 973.5,1051.5 Z"/></g>
<g><path style="opacity:1" fill="#f8fafc" d="M 295.5,1086.5 C 299.345,1087.44 303.178,1088.44 307,1089.5C 311.074,1098.31 314.574,1107.31 317.5,1116.5C 314.735,1116.8 312.235,1117.8 310,1119.5C 304.097,1108.95 299.264,1097.95 295.5,1086.5 Z"/></g>
<g><path style="opacity:1" fill="#f8fafc" d="M 894.5,1086.5 C 895.239,1086.37 895.906,1086.54 896.5,1087C 891.805,1098.22 886.472,1109.06 880.5,1119.5C 878.459,1118.76 876.459,1117.93 874.5,1117C 873.483,1115.95 873.316,1114.78 874,1113.5C 877.167,1105.83 880.333,1098.17 883.5,1090.5C 887.078,1088.7 890.745,1087.36 894.5,1086.5 Z"/></g>
<g><path style="opacity:1" fill="#f7f9fc" d="M 319.5,1091.5 C 323.461,1092.45 327.295,1093.78 331,1095.5C 333.213,1100.3 334.713,1105.3 335.5,1110.5C 332.882,1110.78 330.382,1111.45 328,1112.5C 324.094,1105.95 321.26,1098.95 319.5,1091.5 Z"/></g>
<g><path style="opacity:1" fill="#cde4fb" d="M 919.5,1062.5 C 917.638,1068.92 915.471,1075.25 913,1081.5C 912.503,1084.15 912.336,1086.81 912.5,1089.5C 913.873,1089.66 915.207,1089.49 916.5,1089C 916.974,1087.27 917.974,1086.1 919.5,1085.5C 916.847,1090.81 914.18,1096.14 911.5,1101.5C 910.5,1101.5 909.5,1101.5 908.5,1101.5C 908.5,1099.83 908.5,1098.17 908.5,1096.5C 907.5,1096.5 906.5,1096.5 905.5,1096.5C 905.737,1095.21 905.404,1094.21 904.5,1093.5C 909.261,1082.98 914.261,1072.65 919.5,1062.5 Z"/></g>
<g><path style="opacity:1" fill="#f9fbfc" d="M 869.5,1092.5 C 870.376,1092.37 871.043,1092.7 871.5,1093.5C 868.902,1099.46 866.402,1105.46 864,1111.5C 861.502,1112.6 859.002,1112.43 856.5,1111C 855.959,1105.92 857.126,1101.08 860,1096.5C 862.888,1094.29 866.055,1092.95 869.5,1092.5 Z"/></g>
<g><path style="opacity:1" fill="#fafbfd" d="M 904.5,1093.5 C 905.404,1094.21 905.737,1095.21 905.5,1096.5C 906.5,1096.5 907.5,1096.5 908.5,1096.5C 908.5,1098.17 908.5,1099.83 908.5,1101.5C 909.5,1101.5 910.5,1101.5 911.5,1101.5C 907.435,1109.96 903.101,1118.3 898.5,1126.5C 896.5,1125.5 894.5,1124.5 892.5,1123.5C 891.417,1122.64 891.251,1121.64 892,1120.5C 896.181,1111.47 900.347,1102.47 904.5,1093.5 Z"/></g>
<g><path style="opacity:1" fill="#f5f8fb" d="M 343.5,1097.5 C 349.492,1097.91 355.159,1099.41 360.5,1102C 355.828,1103.5 351.161,1105 346.5,1106.5C 344.736,1103.79 343.736,1100.79 343.5,1097.5 Z"/></g>
<g><path style="opacity:1" fill="#eff3f8" d="M 845.5,1097.5 C 846.675,1097.28 847.675,1097.61 848.5,1098.5C 847.305,1100.75 846.305,1103.08 845.5,1105.5C 839.908,1105.92 834.575,1104.76 829.5,1102C 834.956,1100.47 840.289,1098.97 845.5,1097.5 Z"/></g>
<g><path style="opacity:1" fill="#6c9bd5" d="M 841.5,1128.5 C 846.165,1129.06 850.498,1130.39 854.5,1132.5C 849.835,1131.94 845.502,1130.61 841.5,1128.5 Z"/></g>
</svg>
