<?xml version="1.0" encoding="UTF-8"?>
<!DOCTYPE svg PUBLIC "-//W3C//DTD SVG 1.1//EN" "http://www.w3.org/Graphics/SVG/1.1/DTD/svg11.dtd">
<svg xmlns="http://www.w3.org/2000/svg" version="1.1" width="645px" height="645px" style="shape-rendering:geometricPrecision; text-rendering:geometricPrecision; image-rendering:optimizeQuality; fill-rule:evenodd; clip-rule:evenodd" xmlns:xlink="http://www.w3.org/1999/xlink">
<g><path style="opacity:1" fill="#fefefe" d="M -0.5,-0.5 C 214.5,-0.5 429.5,-0.5 644.5,-0.5C 644.5,214.5 644.5,429.5 644.5,644.5C 429.5,644.5 214.5,644.5 -0.5,644.5C -0.5,429.5 -0.5,214.5 -0.5,-0.5 Z"/></g>
<g><path style="opacity:1" fill="#346fa9" d="M 552.5,259.5 C 549.721,259.721 547.054,259.388 544.5,258.5C 541.23,256.84 537.897,256.506 534.5,257.5C 533.178,257.33 532.011,257.663 531,258.5C 528.454,255.814 525.287,254.814 521.5,255.5C 520.256,253.2 518.256,251.866 515.5,251.5C 511.795,252.686 508.462,254.352 505.5,256.5C 503.516,256.383 501.85,257.05 500.5,258.5C 502.004,262.899 501.337,263.399 498.5,260C 499.452,258.7 499.452,257.533 498.5,256.5C 496.364,257.472 495.197,259.139 495,261.5C 493.774,259.452 492.274,259.119 490.5,260.5C 487.383,260.872 484.383,260.872 481.5,260.5C 479.776,262.354 477.776,263.688 475.5,264.5C 474.448,264.649 473.448,264.483 472.5,264C 474.219,262.943 476.053,262.11 478,261.5C 478.388,259.924 477.888,258.591 476.5,257.5C 472.861,258.653 469.528,260.319 466.5,262.5C 465.5,262.5 464.5,262.5 463.5,262.5C 485.401,246.857 509.401,243.024 535.5,251C 541.786,252.81 547.453,255.643 552.5,259.5 Z"/></g>
<g><path style="opacity:1" fill="#89c0e6" d="M 534.5,257.5 C 537.897,256.506 541.23,256.84 544.5,258.5C 541.697,258.592 538.697,258.758 535.5,259C 532.085,260.143 531.751,261.81 534.5,264C 533.978,264.561 533.645,265.228 533.5,266C 534.783,268.005 535.783,270.172 536.5,272.5C 537.833,272.833 539.167,273.167 540.5,273.5C 545.439,272.348 550.439,271.681 555.5,271.5C 555.461,269.641 556.294,268.308 558,267.5C 558.717,268.044 559.217,268.711 559.5,269.5C 557.058,269.354 556.391,270.187 557.5,272C 555.26,272.977 552.927,273.477 550.5,273.5C 550.135,276.079 550.135,278.412 550.5,280.5C 551.114,282.283 552.28,283.616 554,284.5C 554.494,286.134 554.66,287.801 554.5,289.5C 550.241,289.997 546.241,289.331 542.5,287.5C 541.702,289.078 541.202,290.744 541,292.5C 540.667,292.167 540.333,291.833 540,291.5C 538.887,292.76 538.72,293.927 539.5,295C 531.664,294.424 527.331,290.258 526.5,282.5C 525.432,279.795 523.432,278.295 520.5,278C 522.891,277.309 522.891,276.309 520.5,275C 522.833,274.667 525.167,274.333 527.5,274C 524.633,273.971 522.133,273.138 520,271.5C 519.5,269.5 519,267.5 518.5,265.5C 519.434,263.061 520.601,260.728 522,258.5C 522.333,258.833 522.667,259.167 523,259.5C 523.249,258.376 523.749,257.376 524.5,256.5C 527.19,258.356 529.356,260.689 531,263.5C 531.492,262.451 531.326,261.451 530.5,260.5C 531.901,259.479 533.235,258.479 534.5,257.5 Z"/></g>
<g><path style="opacity:1" fill="#95caed" d="M 544.5,258.5 C 547.054,259.388 549.721,259.721 552.5,259.5C 556.392,261.062 559.725,263.395 562.5,266.5C 562.377,268.208 562.044,270.041 561.5,272C 564.981,274.766 566.481,278.266 566,282.5C 562.683,278.699 560.516,274.366 559.5,269.5C 559.217,268.711 558.717,268.044 558,267.5C 556.294,268.308 555.461,269.641 555.5,271.5C 550.439,271.681 545.439,272.348 540.5,273.5C 539.167,273.167 537.833,272.833 536.5,272.5C 535.783,270.172 534.783,268.005 533.5,266C 533.645,265.228 533.978,264.561 534.5,264C 531.751,261.81 532.085,260.143 535.5,259C 538.697,258.758 541.697,258.592 544.5,258.5 Z"/></g>
<g><path style="opacity:1" fill="#4e90c9" d="M 475.5,264.5 C 476.653,265.313 476.653,266.313 475.5,267.5C 474.335,268.584 473.002,269.417 471.5,270C 473.376,271.017 475.376,271.851 477.5,272.5C 475.883,274.632 475.383,276.965 476,279.5C 476.927,276.261 478.761,274.094 481.5,273C 480.163,275.684 478.83,278.351 477.5,281C 478.695,282.533 478.695,284.033 477.5,285.5C 479.333,286.968 479.666,288.635 478.5,290.5C 477.126,289.289 475.626,288.289 474,287.5C 472.72,287.613 471.887,288.28 471.5,289.5C 474.856,290.348 477.523,292.182 479.5,295C 479.012,296.584 478.012,297.751 476.5,298.5C 480.335,299.996 480.335,300.996 476.5,301.5C 467.747,297.107 458.413,295.44 448.5,296.5C 451.183,287.469 455.183,279.136 460.5,271.5C 462.133,268.203 464.8,266.536 468.5,266.5C 468.473,264.801 467.806,263.467 466.5,262.5C 469.528,260.319 472.861,258.653 476.5,257.5C 477.888,258.591 478.388,259.924 478,261.5C 476.053,262.11 474.219,262.943 472.5,264C 473.448,264.483 474.448,264.649 475.5,264.5 Z"/></g>
<g><path style="opacity:1" fill="#5998cd" d="M 490.5,260.5 C 487.126,263.724 484.46,267.557 482.5,272C 484.577,272.192 486.577,272.692 488.5,273.5C 487.45,275.102 488.117,275.935 490.5,276C 489.552,276.483 488.552,276.649 487.5,276.5C 489.125,285.763 492.459,294.43 497.5,302.5C 495.486,305.194 493.986,308.194 493,311.5C 492.5,323.829 492.333,336.162 492.5,348.5C 491.876,341.91 490.876,335.244 489.5,328.5C 488.675,332.122 488.175,335.789 488,339.5C 487.333,340.833 486.667,340.833 486,339.5C 485.781,338.062 485.281,336.729 484.5,335.5C 483.833,339.982 483.166,344.316 482.5,348.5C 482.667,335.829 482.5,323.162 482,310.5C 480.657,307.138 478.824,304.138 476.5,301.5C 480.335,300.996 480.335,299.996 476.5,298.5C 478.012,297.751 479.012,296.584 479.5,295C 477.523,292.182 474.856,290.348 471.5,289.5C 471.887,288.28 472.72,287.613 474,287.5C 475.626,288.289 477.126,289.289 478.5,290.5C 479.666,288.635 479.333,286.968 477.5,285.5C 478.695,284.033 478.695,282.533 477.5,281C 478.83,278.351 480.163,275.684 481.5,273C 478.761,274.094 476.927,276.261 476,279.5C 475.383,276.965 475.883,274.632 477.5,272.5C 475.376,271.851 473.376,271.017 471.5,270C 473.002,269.417 474.335,268.584 475.5,267.5C 476.653,266.313 476.653,265.313 475.5,264.5C 477.776,263.688 479.776,262.354 481.5,260.5C 484.383,260.872 487.383,260.872 490.5,260.5 Z"/></g>
<g><path style="opacity:1" fill="#6aa4d7" d="M 505.5,256.5 C 505.938,256.435 506.272,256.601 506.5,257C 505.052,260.067 503.052,263.234 500.5,266.5C 500.833,266.833 501.167,267.167 501.5,267.5C 502.251,266.624 502.751,265.624 503,264.5C 503.687,266.568 503.52,268.568 502.5,270.5C 502.977,271.478 503.643,272.311 504.5,273C 515.106,273.512 515.106,274.345 504.5,275.5C 506.187,280.438 507.853,284.938 509.5,289C 512.553,289.179 515.553,289.679 518.5,290.5C 516.947,292.961 514.947,293.627 512.5,292.5C 509.93,293.617 507.263,294.45 504.5,295C 503.663,296.011 503.33,297.178 503.5,298.5C 501.537,299.82 499.537,301.154 497.5,302.5C 492.459,294.43 489.125,285.763 487.5,276.5C 488.552,276.649 489.552,276.483 490.5,276C 488.117,275.935 487.45,275.102 488.5,273.5C 486.577,272.692 484.577,272.192 482.5,272C 484.46,267.557 487.126,263.724 490.5,260.5C 492.274,259.119 493.774,259.452 495,261.5C 495.197,259.139 496.364,257.472 498.5,256.5C 499.452,257.533 499.452,258.7 498.5,260C 501.337,263.399 502.004,262.899 500.5,258.5C 501.85,257.05 503.516,256.383 505.5,256.5 Z"/></g>
<g><path style="opacity:1" fill="#79aedb" d="M 521.5,255.5 C 512.795,257.221 509.962,262.554 513,271.5C 514.786,273.099 516.953,273.933 519.5,274C 516.057,274.221 515.724,275.221 518.5,277C 517.833,277.333 517.167,277.667 516.5,278C 519.703,282.289 522.536,286.789 525,291.5C 526,292.833 527,292.833 528,291.5C 530.566,294.143 532.066,296.976 532.5,300C 533.167,300.667 533.833,300.667 534.5,300C 536.494,295.168 537.827,295.334 538.5,300.5C 536.848,304.421 537.515,307.921 540.5,311C 541.577,311.47 542.577,311.303 543.5,310.5C 543.5,311.167 543.5,311.833 543.5,312.5C 540.526,313.917 538.526,312.917 537.5,309.5C 536.311,308.571 534.978,308.238 533.5,308.5C 533.66,310.199 533.494,311.866 533,313.5C 532.439,312.978 531.772,312.645 531,312.5C 527.927,315.193 524.26,316.526 520,316.5C 516.857,315.893 513.69,315.559 510.5,315.5C 510.5,318.167 510.5,320.833 510.5,323.5C 509.833,332.167 509.167,340.833 508.5,349.5C 508.333,338.495 508.5,327.495 509,316.5C 510.167,314 512,312.167 514.5,311C 519.257,310.709 523.924,311.042 528.5,312C 532.433,305.037 530.766,300.037 523.5,297C 516.661,296.01 509.995,296.51 503.5,298.5C 503.33,297.178 503.663,296.011 504.5,295C 507.263,294.45 509.93,293.617 512.5,292.5C 514.947,293.627 516.947,292.961 518.5,290.5C 515.553,289.679 512.553,289.179 509.5,289C 507.853,284.938 506.187,280.438 504.5,275.5C 515.106,274.345 515.106,273.512 504.5,273C 503.643,272.311 502.977,271.478 502.5,270.5C 503.52,268.568 503.687,266.568 503,264.5C 502.751,265.624 502.251,266.624 501.5,267.5C 501.167,267.167 500.833,266.833 500.5,266.5C 503.052,263.234 505.052,260.067 506.5,257C 506.272,256.601 505.938,256.435 505.5,256.5C 508.462,254.352 511.795,252.686 515.5,251.5C 518.256,251.866 520.256,253.2 521.5,255.5 Z"/></g>
<g><path style="opacity:1" fill="#80b6e1" d="M 521.5,255.5 C 525.287,254.814 528.454,255.814 531,258.5C 532.011,257.663 533.178,257.33 534.5,257.5C 533.235,258.479 531.901,259.479 530.5,260.5C 531.326,261.451 531.492,262.451 531,263.5C 529.356,260.689 527.19,258.356 524.5,256.5C 523.749,257.376 523.249,258.376 523,259.5C 522.667,259.167 522.333,258.833 522,258.5C 520.601,260.728 519.434,263.061 518.5,265.5C 519,267.5 519.5,269.5 520,271.5C 522.133,273.138 524.633,273.971 527.5,274C 525.167,274.333 522.833,274.667 520.5,275C 522.891,276.309 522.891,277.309 520.5,278C 523.432,278.295 525.432,279.795 526.5,282.5C 527.331,290.258 531.664,294.424 539.5,295C 538.72,293.927 538.887,292.76 540,291.5C 540.333,291.833 540.667,292.167 541,292.5C 541.202,290.744 541.702,289.078 542.5,287.5C 546.241,289.331 550.241,289.997 554.5,289.5C 554.66,287.801 554.494,286.134 554,284.5C 552.28,283.616 551.114,282.283 550.5,280.5C 552.144,280.714 553.644,280.38 555,279.5C 556.333,281.5 557.667,283.5 559,285.5C 559.579,291.98 558.912,291.98 557,285.5C 556.511,288.982 555.345,292.149 553.5,295C 557.143,296.357 559.31,295.19 560,291.5C 564.359,292.774 564.526,294.441 560.5,296.5C 552.649,295.656 545.315,296.989 538.5,300.5C 537.827,295.334 536.494,295.168 534.5,300C 533.833,300.667 533.167,300.667 532.5,300C 532.066,296.976 530.566,294.143 528,291.5C 527,292.833 526,292.833 525,291.5C 522.536,286.789 519.703,282.289 516.5,278C 517.167,277.667 517.833,277.333 518.5,277C 515.724,275.221 516.057,274.221 519.5,274C 516.953,273.933 514.786,273.099 513,271.5C 509.962,262.554 512.795,257.221 521.5,255.5 Z"/></g>
<g><path style="opacity:1" fill="#8c9da9" d="M 344.5,348.5 C 346.651,339.96 347.484,331.293 347,322.5C 346.768,323.737 346.268,324.737 345.5,325.5C 346.379,314.593 341.379,310.093 330.5,312C 328.677,312.997 327.01,314.164 325.5,315.5C 327.366,309.441 330.533,304.107 335,299.5C 335.483,298.552 335.649,297.552 335.5,296.5C 339.369,297.101 342.702,298.768 345.5,301.5C 346.058,293.085 346.892,284.752 348,276.5C 352.496,273.882 356.996,273.882 361.5,276.5C 362.666,293.49 362.833,310.49 362,327.5C 360.686,338.31 354.853,345.31 344.5,348.5 Z"/></g>
<g><path style="opacity:1" fill="#51aadd" d="M 60.5,315.5 C 60.0833,312.921 60.75,310.754 62.5,309C 59.547,306.066 60.047,303.899 64,302.5C 64.6667,300.833 64.6667,299.167 64,297.5C 63.6667,298.833 63.3333,300.167 63,301.5C 62.5814,300.328 61.9147,299.328 61,298.5C 59.8864,300.483 58.3864,302.15 56.5,303.5C 56.581,301.061 56.081,298.728 55,296.5C 54.1436,298.868 53.3103,301.202 52.5,303.5C 51.5,303.5 50.5,303.5 49.5,303.5C 52.0533,293.664 56.0533,284.497 61.5,276C 66.6159,273.744 71.4492,274.244 76,277.5C 71.6757,290.486 66.509,303.152 60.5,315.5 Z"/></g>
<g><path style="opacity:1" fill="#8b9ca7" d="M 423.5,329.5 C 422.833,329.167 422.167,328.833 421.5,328.5C 417.93,322.573 413.096,317.907 407,314.5C 406.601,314.728 406.435,315.062 406.5,315.5C 402.972,311.835 398.639,310.668 393.5,312C 392.069,312.465 390.903,313.299 390,314.5C 388.544,325.731 388.044,337.064 388.5,348.5C 383.167,348.5 377.833,348.5 372.5,348.5C 372.333,324.831 372.5,301.164 373,277.5C 374.853,275.408 377.186,274.408 380,274.5C 382.817,275.031 385.65,275.364 388.5,275.5C 388.169,283.528 388.502,291.528 389.5,299.5C 398.167,295.483 406.833,295.65 415.5,300C 418.273,302.383 420.439,305.217 422,308.5C 422.239,315.548 422.739,322.548 423.5,329.5 Z"/></g>
<g><path style="opacity:1" fill="#9abee0" d="M 460.5,271.5 C 455.183,279.136 451.183,287.469 448.5,296.5C 446.5,296.833 444.5,297.167 442.5,297.5C 446.035,287.087 452.035,278.42 460.5,271.5 Z"/></g>
<g><path style="opacity:1" fill="#2a5f98" d="M 562.5,266.5 C 568.928,271.383 573.928,277.383 577.5,284.5C 577.5,285.5 577.5,286.5 577.5,287.5C 575.801,287.34 574.134,287.506 572.5,288C 574.076,288.44 575.41,289.273 576.5,290.5C 578.185,289.491 579.518,289.991 580.5,292C 579.683,293.49 578.85,294.99 578,296.5C 575.974,296.915 574.474,297.915 573.5,299.5C 569.263,298.119 564.93,297.119 560.5,296.5C 564.526,294.441 564.359,292.774 560,291.5C 559.31,295.19 557.143,296.357 553.5,295C 555.345,292.149 556.511,288.982 557,285.5C 558.912,291.98 559.579,291.98 559,285.5C 557.667,283.5 556.333,281.5 555,279.5C 553.644,280.38 552.144,280.714 550.5,280.5C 550.135,278.412 550.135,276.079 550.5,273.5C 552.927,273.477 555.26,272.977 557.5,272C 556.391,270.187 557.058,269.354 559.5,269.5C 560.516,274.366 562.683,278.699 566,282.5C 566.481,278.266 564.981,274.766 561.5,272C 562.044,270.041 562.377,268.208 562.5,266.5 Z"/></g>
<g><path style="opacity:1" fill="#f9fcfc" d="M 448.5,296.5 C 458.413,295.44 467.747,297.107 476.5,301.5C 478.824,304.138 480.657,307.138 482,310.5C 482.5,323.162 482.667,335.829 482.5,348.5C 477.695,349.487 472.695,349.821 467.5,349.5C 459.429,349.863 451.429,349.363 443.5,348C 433.975,343.775 430.808,336.608 434,326.5C 436.813,321.004 441.313,317.838 447.5,317C 453.825,316.5 460.158,316.334 466.5,316.5C 466.201,313.358 464.534,311.191 461.5,310C 454.507,308.979 447.673,309.479 441,311.5C 435.95,306.151 436.45,301.484 442.5,297.5C 444.5,297.167 446.5,296.833 448.5,296.5 Z"/></g>
<g><path style="opacity:1" fill="#fafdfd" d="M 508.5,349.5 C 502.974,349.821 497.64,349.488 492.5,348.5C 492.333,336.162 492.5,323.829 493,311.5C 493.986,308.194 495.486,305.194 497.5,302.5C 499.537,301.154 501.537,299.82 503.5,298.5C 509.995,296.51 516.661,296.01 523.5,297C 530.766,300.037 532.433,305.037 528.5,312C 523.924,311.042 519.257,310.709 514.5,311C 512,312.167 510.167,314 509,316.5C 508.5,327.495 508.333,338.495 508.5,349.5 Z"/></g>
<g><path style="opacity:1" fill="#f7fbfb" d="M 560.5,296.5 C 564.93,297.119 569.263,298.119 573.5,299.5C 578.345,302.525 581.512,306.858 583,312.5C 583.5,324.495 583.667,336.495 583.5,348.5C 580.455,348.508 577.455,348.841 574.5,349.5C 567.5,349.5 560.5,349.5 553.5,349.5C 537.449,349.121 531.115,341.121 534.5,325.5C 535.69,323.645 537.023,321.812 538.5,320C 540.491,319.626 542.158,318.793 543.5,317.5C 546.127,316.908 548.794,316.575 551.5,316.5C 556.875,316.828 562.208,316.495 567.5,315.5C 567.376,314.893 567.043,314.56 566.5,314.5C 565.976,311.812 564.309,310.312 561.5,310C 555.418,309.212 549.418,309.379 543.5,310.5C 542.577,311.303 541.577,311.47 540.5,311C 537.515,307.921 536.848,304.421 538.5,300.5C 545.315,296.989 552.649,295.656 560.5,296.5 Z"/></g>
<g><path style="opacity:1" fill="#5ca7d1" d="M 235.5,333.5 C 235.5,330.167 235.5,326.833 235.5,323.5C 235.731,315.791 235.398,308.124 234.5,300.5C 231.531,299.671 228.531,299.505 225.5,300C 227.421,300.36 229.088,301.194 230.5,302.5C 227.884,303.561 225.384,303.228 223,301.5C 222.501,307.491 222.334,313.491 222.5,319.5C 221.586,322.728 221.253,326.061 221.5,329.5C 220.833,329.833 220.167,330.167 219.5,330.5C 220.283,320.88 220.783,311.213 221,301.5C 222.214,299.951 223.714,298.785 225.5,298C 229.17,297.721 232.837,297.888 236.5,298.5C 236.828,310.345 236.495,322.012 235.5,333.5 Z"/></g>
<g><path style="opacity:1" fill="#4a99cd" d="M 104.5,298.5 C 102.143,298.337 99.8098,298.503 97.5,299C 96.0267,299.71 95.3601,300.876 95.5,302.5C 97.9424,302.354 98.6091,303.187 97.5,305C 95.0995,305.186 92.7662,305.686 90.5,306.5C 94.746,307.75 99.0794,308.583 103.5,309C 102.91,311.617 104.077,313.45 107,314.5C 111.904,311.563 113.404,312.897 111.5,318.5C 109.455,316.016 106.788,315.016 103.5,315.5C 102.647,312.482 100.647,310.649 97.5,310C 90.3434,309.22 83.3434,309.553 76.5,311C 71.5837,304.144 73.2503,299.478 81.5,297C 87.8333,296.333 94.1667,296.333 100.5,297C 102.058,297.21 103.391,297.71 104.5,298.5 Z"/></g>
<g><path style="opacity:1" fill="#4c9fd3" d="M 335.5,296.5 C 335.649,297.552 335.483,298.552 335,299.5C 330.533,304.107 327.366,309.441 325.5,315.5C 321.703,323.586 323.37,330.253 330.5,335.5C 330.441,339.006 328.775,341.172 325.5,342C 326.212,343.425 326.379,344.925 326,346.5C 327.196,348.286 328.696,349.619 330.5,350.5C 326.327,350.333 322.66,349 319.5,346.5C 319.5,345.5 319.5,344.5 319.5,343.5C 321.346,343.778 322.68,343.111 323.5,341.5C 322.311,340.571 320.978,340.238 319.5,340.5C 319.5,339.5 319.5,338.5 319.5,337.5C 321.635,337.853 322.968,337.02 323.5,335C 323.732,331.924 323.232,328.757 322,325.5C 320.108,326.617 319.275,328.284 319.5,330.5C 320.552,330.351 321.552,330.517 322.5,331C 321.95,332.845 320.95,334.345 319.5,335.5C 318.337,330.198 318.171,324.864 319,319.5C 319.535,321.271 320.369,321.604 321.5,320.5C 320.885,318.884 319.885,317.551 318.5,316.5C 319.833,314.5 319.833,312.5 318.5,310.5C 316.675,309.429 315.508,310.096 315,312.5C 314.982,310.203 315.149,307.869 315.5,305.5C 317.942,305.646 318.609,304.813 317.5,303C 318.973,302.29 319.64,301.124 319.5,299.5C 324.372,296.831 329.705,295.831 335.5,296.5 Z"/></g>
<g><path style="opacity:1" fill="#559fce" d="M 623.5,297.5 C 618.156,297.334 612.823,297.501 607.5,298C 605.998,298.583 604.665,299.416 603.5,300.5C 605.412,302.81 606.412,305.477 606.5,308.5C 612.598,307.883 618.265,308.55 623.5,310.5C 615.918,308.943 608.418,309.276 601,311.5C 598.427,310.192 597.26,308.026 597.5,305C 598.018,300.812 600.351,298.145 604.5,297C 611.014,296.18 617.347,296.347 623.5,297.5 Z"/></g>
<g><path style="opacity:1" fill="#8c9ca7" d="M 145.5,309.5 C 139.374,310.725 134.374,313.725 130.5,318.5C 127.457,307.109 131.79,299.943 143.5,297C 149.833,296.333 156.167,296.333 162.5,297C 166.098,297.154 169.431,298.154 172.5,300C 176.41,303.925 176.41,307.925 172.5,312C 168.942,311.043 165.275,310.043 161.5,309C 155.984,308.183 150.65,308.349 145.5,309.5 Z"/></g>
<g><path style="opacity:1" fill="#4ba6db" d="M 235.5,323.5 C 234.312,324.684 233.145,324.684 232,323.5C 231.333,324.167 230.667,324.833 230,325.5C 228.881,324.448 228.381,323.281 228.5,322C 227.101,321.405 225.768,321.572 224.5,322.5C 223.824,321.398 223.158,320.398 222.5,319.5C 222.334,313.491 222.501,307.491 223,301.5C 225.384,303.228 227.884,303.561 230.5,302.5C 229.088,301.194 227.421,300.36 225.5,300C 228.531,299.505 231.531,299.671 234.5,300.5C 235.398,308.124 235.731,315.791 235.5,323.5 Z"/></g>
<g><path style="opacity:1" fill="#4491c9" d="M 623.5,297.5 C 634.145,297.818 640.479,303.151 642.5,313.5C 642.666,319.176 642.499,324.843 642,330.5C 640.503,326.835 638.503,323.502 636,320.5C 632.674,318.659 629.508,316.659 626.5,314.5C 625.853,312.859 624.853,311.526 623.5,310.5C 618.265,308.55 612.598,307.883 606.5,308.5C 606.412,305.477 605.412,302.81 603.5,300.5C 604.665,299.416 605.998,298.583 607.5,298C 612.823,297.501 618.156,297.334 623.5,297.5 Z"/></g>
<g><path style="opacity:1" fill="#408cc5" d="M 104.5,298.5 C 111.544,299.779 116.377,303.779 119,310.5C 119.5,317.492 119.666,324.492 119.5,331.5C 117.08,326.99 114.414,322.657 111.5,318.5C 113.404,312.897 111.904,311.563 107,314.5C 104.077,313.45 102.91,311.617 103.5,309C 99.0794,308.583 94.746,307.75 90.5,306.5C 92.7662,305.686 95.0995,305.186 97.5,305C 98.6091,303.187 97.9424,302.354 95.5,302.5C 95.3601,300.876 96.0267,299.71 97.5,299C 99.8098,298.503 102.143,298.337 104.5,298.5 Z"/></g>
<g><path style="opacity:1" fill="#8c9ca7" d="M 292.5,305.5 C 287.054,305.364 281.72,306.031 276.5,307.5C 274.174,308.145 272.507,309.478 271.5,311.5C 267.507,311.245 264.674,312.911 263,316.5C 262.5,327.161 262.333,337.828 262.5,348.5C 257.167,348.5 251.833,348.5 246.5,348.5C 246.5,337.5 246.5,326.5 246.5,315.5C 248.089,305.738 253.756,299.572 263.5,297C 271.827,295.685 279.827,296.685 287.5,300C 290.079,301.076 291.746,302.909 292.5,305.5 Z"/></g>
<g><path style="opacity:1" fill="#3470b1" d="M 292.5,305.5 C 295.407,307.315 296.741,309.981 296.5,313.5C 293.861,314.192 291.194,313.859 288.5,312.5C 282.423,315.12 278.423,313.454 276.5,307.5C 281.72,306.031 287.054,305.364 292.5,305.5 Z"/></g>
<g><path style="opacity:1" fill="#f9fcfc" d="M 345.5,325.5 C 345.47,328.852 344.137,331.518 341.5,333.5C 338.039,335.091 334.372,335.758 330.5,335.5C 323.37,330.253 321.703,323.586 325.5,315.5C 327.01,314.164 328.677,312.997 330.5,312C 341.379,310.093 346.379,314.593 345.5,325.5 Z"/></g>
<g><path style="opacity:1" fill="#326da6" d="M 566.5,314.5 C 561.5,315.167 556.5,315.833 551.5,316.5C 548.794,316.575 546.127,316.908 543.5,317.5C 544.494,315.666 544.494,313.999 543.5,312.5C 543.5,311.833 543.5,311.167 543.5,310.5C 549.418,309.379 555.418,309.212 561.5,310C 564.309,310.312 565.976,311.812 566.5,314.5 Z"/></g>
<g><path style="opacity:1" fill="#4583bc" d="M 463.5,262.5 C 464.5,262.5 465.5,262.5 466.5,262.5C 467.806,263.467 468.473,264.801 468.5,266.5C 464.8,266.536 462.133,268.203 460.5,271.5C 452.035,278.42 446.035,287.087 442.5,297.5C 436.45,301.484 435.95,306.151 441,311.5C 447.673,309.479 454.507,308.979 461.5,310C 464.534,311.191 466.201,313.358 466.5,316.5C 460.158,316.334 453.825,316.5 447.5,317C 441.313,317.838 436.813,321.004 434,326.5C 430.808,336.608 433.975,343.775 443.5,348C 451.429,349.363 459.429,349.863 467.5,349.5C 467.5,349.833 467.5,350.167 467.5,350.5C 458.792,350.745 450.126,350.411 441.5,349.5C 442.292,353.134 443.625,356.634 445.5,360C 444.852,361.44 444.519,362.94 444.5,364.5C 441.771,359.176 438.938,353.843 436,348.5C 435.517,349.448 435.351,350.448 435.5,351.5C 426.245,324.36 430.412,299.36 448,276.5C 452.739,271.256 457.905,266.59 463.5,262.5 Z"/></g>
<g><path style="opacity:1" fill="#7195b5" d="M 566.5,314.5 C 567.043,314.56 567.376,314.893 567.5,315.5C 562.208,316.495 556.875,316.828 551.5,316.5C 556.5,315.833 561.5,315.167 566.5,314.5 Z"/></g>
<g><path style="opacity:1" fill="#4595cc" d="M 60.5,315.5 C 59.6176,319.593 57.951,323.26 55.5,326.5C 54.551,324.263 53.8844,321.929 53.5,319.5C 52.5,319.5 51.5,319.5 50.5,319.5C 50.33,320.822 50.6634,321.989 51.5,323C 50.2341,323.309 49.0674,323.809 48,324.5C 47.1667,322.5 46.3333,320.5 45.5,318.5C 43.9975,322.374 43.3309,322.041 43.5,317.5C 44.5452,312.346 46.5452,307.679 49.5,303.5C 50.5,303.5 51.5,303.5 52.5,303.5C 53.3103,301.202 54.1436,298.868 55,296.5C 56.081,298.728 56.581,301.061 56.5,303.5C 58.3864,302.15 59.8864,300.483 61,298.5C 61.9147,299.328 62.5814,300.328 63,301.5C 63.3333,300.167 63.6667,298.833 64,297.5C 64.6667,299.167 64.6667,300.833 64,302.5C 60.047,303.899 59.547,306.066 62.5,309C 60.75,310.754 60.0833,312.921 60.5,315.5 Z"/></g>
<g><path style="opacity:1" fill="#619ed3" d="M 543.5,312.5 C 544.494,313.999 544.494,315.666 543.5,317.5C 542.158,318.793 540.491,319.626 538.5,320C 537.023,321.812 535.69,323.645 534.5,325.5C 533.791,324.596 532.791,324.263 531.5,324.5C 531.762,325.978 531.429,327.311 530.5,328.5C 530.094,327.443 530.094,326.109 530.5,324.5C 525.651,325.918 525.151,328.585 529,332.5C 529.808,334.579 529.641,336.579 528.5,338.5C 527.186,339.313 526.019,340.313 525,341.5C 523.799,339.091 522.133,337.091 520,335.5C 519.283,336.044 518.783,336.711 518.5,337.5C 517.869,335.097 516.869,332.764 515.5,330.5C 514.264,331.246 512.93,331.579 511.5,331.5C 511.425,328.794 511.092,326.127 510.5,323.5C 510.5,320.833 510.5,318.167 510.5,315.5C 513.69,315.559 516.857,315.893 520,316.5C 524.26,316.526 527.927,315.193 531,312.5C 531.772,312.645 532.439,312.978 533,313.5C 533.494,311.866 533.66,310.199 533.5,308.5C 534.978,308.238 536.311,308.571 537.5,309.5C 538.526,312.917 540.526,313.917 543.5,312.5 Z"/></g>
<g><path style="opacity:1" fill="#8b9ca8" d="M 207.5,335.5 C 209.819,338.294 212.819,340.128 216.5,341C 221.823,341.499 227.156,341.666 232.5,341.5C 230.763,343.55 228.763,345.383 226.5,347C 213.33,352.769 201.163,351.269 190,342.5C 187.89,339.508 186.557,336.175 186,332.5C 185.333,322.167 185.333,311.833 186,301.5C 188.513,297.788 192.013,296.622 196.5,298C 197.872,298.402 199.205,298.902 200.5,299.5C 201.332,309.149 201.832,318.816 202,328.5C 202.938,331.598 204.772,333.931 207.5,335.5 Z"/></g>
<g><path style="opacity:1" fill="#d4dbe0" d="M 246.5,315.5 C 246.5,326.5 246.5,337.5 246.5,348.5C 251.833,348.5 257.167,348.5 262.5,348.5C 257.025,349.489 251.358,349.822 245.5,349.5C 245.172,337.988 245.505,326.654 246.5,315.5 Z"/></g>
<g><path style="opacity:1" fill="#3f8ec6" d="M 276.5,307.5 C 278.423,313.454 282.423,315.12 288.5,312.5C 291.194,313.859 293.861,314.192 296.5,313.5C 296.666,317.514 296.499,321.514 296,325.5C 294.17,321.728 292.67,322.061 291.5,326.5C 290.833,325.833 290.167,325.167 289.5,324.5C 287.456,326.355 285.289,327.022 283,326.5C 282.814,323.964 282.314,321.631 281.5,319.5C 281.5,318.833 281.167,318.5 280.5,318.5C 279.6,313.611 276.6,311.277 271.5,311.5C 272.507,309.478 274.174,308.145 276.5,307.5 Z"/></g>
<g><path style="opacity:1" fill="#3b7eb8" d="M 421.5,328.5 C 422.344,332.099 422.677,335.766 422.5,339.5C 420.051,340.057 417.718,340.057 415.5,339.5C 415.968,337.866 416.968,336.7 418.5,336C 417.033,334.902 416.199,333.402 416,331.5C 415.667,332.167 415.333,332.833 415,333.5C 413.25,330.754 412.25,327.754 412,324.5C 411,325.167 410,325.833 409,326.5C 408.667,329.5 408.333,332.5 408,335.5C 407.828,329.319 407.328,323.319 406.5,317.5C 406.5,316.833 406.5,316.167 406.5,315.5C 406.435,315.062 406.601,314.728 407,314.5C 413.096,317.907 417.93,322.573 421.5,328.5 Z"/></g>
<g><path style="opacity:1" fill="#50abdc" d="M 319.5,299.5 C 319.64,301.124 318.973,302.29 317.5,303C 318.609,304.813 317.942,305.646 315.5,305.5C 315.149,307.869 314.982,310.203 315,312.5C 315.508,310.096 316.675,309.429 318.5,310.5C 319.833,312.5 319.833,314.5 318.5,316.5C 319.885,317.551 320.885,318.884 321.5,320.5C 320.369,321.604 319.535,321.271 319,319.5C 318.171,324.864 318.337,330.198 319.5,335.5C 320.95,334.345 321.95,332.845 322.5,331C 321.552,330.517 320.552,330.351 319.5,330.5C 319.275,328.284 320.108,326.617 322,325.5C 323.232,328.757 323.732,331.924 323.5,335C 322.968,337.02 321.635,337.853 319.5,337.5C 319.5,338.5 319.5,339.5 319.5,340.5C 320.978,340.238 322.311,340.571 323.5,341.5C 322.68,343.111 321.346,343.778 319.5,343.5C 319.5,344.5 319.5,345.5 319.5,346.5C 308.247,339.252 304.08,328.918 307,315.5C 309.027,308.423 313.194,303.089 319.5,299.5 Z"/></g>
<g><path style="opacity:1" fill="#52a7d8" d="M 145.5,309.5 C 145.286,311.144 145.62,312.644 146.5,314C 153.513,315.24 160.513,316.574 167.5,318C 177.138,321.649 180.638,328.483 178,338.5C 176.587,342.748 173.754,345.415 169.5,346.5C 168.782,341.13 166.116,337.13 161.5,334.5C 161.423,333.25 160.756,332.417 159.5,332C 151.718,330.844 144.051,329.177 136.5,327C 133.137,325.101 131.137,322.268 130.5,318.5C 134.374,313.725 139.374,310.725 145.5,309.5 Z"/></g>
<g><path style="opacity:1" fill="#3d81bb" d="M 43.5,317.5 C 43.3309,322.041 43.9975,322.374 45.5,318.5C 46.3333,320.5 47.1667,322.5 48,324.5C 49.0674,323.809 50.2341,323.309 51.5,323C 50.6634,321.989 50.33,320.822 50.5,319.5C 51.5,319.5 52.5,319.5 53.5,319.5C 53.8844,321.929 54.551,324.263 55.5,326.5C 53.6935,331.254 51.6935,335.92 49.5,340.5C 43.4636,339.13 39.7969,335.464 38.5,329.5C 39.6546,325.203 41.3213,321.203 43.5,317.5 Z"/></g>
<g><path style="opacity:1" fill="#8b9ca8" d="M 103.5,315.5 C 106.788,315.016 109.455,316.016 111.5,318.5C 114.414,322.657 117.08,326.99 119.5,331.5C 119.5,337.167 119.5,342.833 119.5,348.5C 108.229,350.197 96.8961,350.697 85.5,350C 72.7931,347.635 67.6264,340.135 70,327.5C 72.4511,321.384 76.9511,317.884 83.5,317C 90.346,316.828 97.0126,316.328 103.5,315.5 Z"/></g>
<g><path style="opacity:1" fill="#fbfdfd" d="M 89.5,327.5 C 94.1667,327.5 98.8333,327.5 103.5,327.5C 103.5,331.167 103.5,334.833 103.5,338.5C 98.0414,338.897 92.7081,338.397 87.5,337C 85.7309,333.151 86.3976,329.985 89.5,327.5 Z"/></g>
<g><path style="opacity:1" fill="#265089" d="M 589.5,319.5 C 589.828,328.6 589.162,337.6 587.5,346.5C 586.5,346.5 585.5,346.5 584.5,346.5C 584.667,334.829 584.5,323.162 584,311.5C 582.506,307.541 581.006,303.541 579.5,299.5C 579.808,298.692 580.308,298.025 581,297.5C 582.262,301.079 583.929,304.412 586,307.5C 586.728,310.23 586.562,312.897 585.5,315.5C 586.521,317.188 587.855,318.521 589.5,319.5 Z"/></g>
<g><path style="opacity:1" fill="#3f7db7" d="M 452.5,327.5 C 457.167,327.5 461.833,327.5 466.5,327.5C 466.5,331.167 466.5,334.833 466.5,338.5C 461.435,338.781 456.435,338.448 451.5,337.5C 448.696,333.852 449.03,330.518 452.5,327.5 Z"/></g>
<g><path style="opacity:1" fill="#4190c8" d="M 222.5,319.5 C 223.158,320.398 223.824,321.398 224.5,322.5C 225.768,321.572 227.101,321.405 228.5,322C 228.381,323.281 228.881,324.448 230,325.5C 230.667,324.833 231.333,324.167 232,323.5C 233.145,324.684 234.312,324.684 235.5,323.5C 235.5,326.833 235.5,330.167 235.5,333.5C 235.405,335.786 234.738,337.786 233.5,339.5C 233.833,336.833 234.167,334.167 234.5,331.5C 231.048,331.18 227.715,331.18 224.5,331.5C 223.735,330.388 222.735,329.721 221.5,329.5C 221.253,326.061 221.586,322.728 222.5,319.5 Z"/></g>
<g><path style="opacity:1" fill="#3b7eb9" d="M 221.5,329.5 C 222.735,329.721 223.735,330.388 224.5,331.5C 227.715,331.18 231.048,331.18 234.5,331.5C 234.167,334.167 233.833,336.833 233.5,339.5C 233.167,340.167 232.833,340.833 232.5,341.5C 227.156,341.666 221.823,341.499 216.5,341C 212.819,340.128 209.819,338.294 207.5,335.5C 212.588,336.145 216.588,334.479 219.5,330.5C 220.167,330.167 220.833,329.833 221.5,329.5 Z"/></g>
<g><path style="opacity:1" fill="#30669c" d="M 552.5,327.5 C 557.167,327.5 561.833,327.5 566.5,327.5C 566.5,331.167 566.5,334.833 566.5,338.5C 561.821,338.666 557.155,338.499 552.5,338C 548.58,334.458 548.58,330.958 552.5,327.5 Z"/></g>
<g><path style="opacity:1" fill="#8c9ca8" d="M 38.5,329.5 C 39.7969,335.464 43.4636,339.13 49.5,340.5C 47.3565,343.122 46.0231,346.122 45.5,349.5C 40.1254,349.828 34.7921,349.495 29.5,348.5C 18.7399,328.046 9.23988,307.046 1,285.5C 0.746103,274.473 5.7461,271.473 16,276.5C 22.3333,292.5 28.6667,308.5 35,324.5C 35.5494,326.76 36.716,328.426 38.5,329.5 Z"/></g>
<g><path style="opacity:1" fill="#2c5ea1" d="M 344.5,348.5 C 343.791,349.404 342.791,349.737 341.5,349.5C 339.396,349.799 337.396,349.466 335.5,348.5C 336.689,347.571 338.022,347.238 339.5,347.5C 339.308,344.399 338.642,341.399 337.5,338.5C 338.32,336.889 339.654,336.222 341.5,336.5C 341.5,335.5 341.5,334.5 341.5,333.5C 344.137,331.518 345.47,328.852 345.5,325.5C 346.268,324.737 346.768,323.737 347,322.5C 347.484,331.293 346.651,339.96 344.5,348.5 Z"/></g>
<g><path style="opacity:1" fill="#4f97cb" d="M 406.5,317.5 C 407.328,323.319 407.828,329.319 408,335.5C 408.333,332.5 408.667,329.5 409,326.5C 410,325.833 411,325.167 412,324.5C 412.25,327.754 413.25,330.754 415,333.5C 415.333,332.833 415.667,332.167 416,331.5C 416.199,333.402 417.033,334.902 418.5,336C 416.968,336.7 415.968,337.866 415.5,339.5C 417.718,340.057 420.051,340.057 422.5,339.5C 422.677,335.766 422.344,332.099 421.5,328.5C 422.167,328.833 422.833,329.167 423.5,329.5C 423.5,335.833 423.5,342.167 423.5,348.5C 417.833,348.5 412.167,348.5 406.5,348.5C 406.5,338.167 406.5,327.833 406.5,317.5 Z"/></g>
<g><path style="opacity:1" fill="#a4d4ed" d="M 280.5,318.5 C 281.167,318.5 281.5,318.833 281.5,319.5C 281.5,329.167 281.5,338.833 281.5,348.5C 286.833,348.5 292.167,348.5 297.5,348.5C 292.025,349.489 286.358,349.822 280.5,349.5C 280.5,339.167 280.5,328.833 280.5,318.5 Z"/></g>
<g><path style="opacity:1" fill="#8c9da9" d="M 642.5,313.5 C 643.373,325.333 643.373,337.333 642.5,349.5C 631.503,350.175 620.503,350.342 609.5,350C 595.972,347.794 590.806,339.961 594,326.5C 595.449,323.384 597.616,320.884 600.5,319C 609.4,317.385 618.067,315.885 626.5,314.5C 629.508,316.659 632.674,318.659 636,320.5C 638.503,323.502 640.503,326.835 642,330.5C 642.499,324.843 642.666,319.176 642.5,313.5 Z"/></g>
<g><path style="opacity:1" fill="#fbfdfd" d="M 612.5,327.5 C 617.167,327.5 621.833,327.5 626.5,327.5C 626.5,331.167 626.5,334.833 626.5,338.5C 621.821,338.666 617.155,338.499 612.5,338C 608.565,334.504 608.565,331.004 612.5,327.5 Z"/></g>
<g><path style="opacity:1" fill="#8c9da8" d="M 161.5,334.5 C 166.116,337.13 168.782,341.13 169.5,346.5C 168.319,348.067 166.653,348.901 164.5,349C 152.027,352.068 140.194,350.568 129,344.5C 129.345,340.461 130.845,336.794 133.5,333.5C 142.063,338.15 151.063,339.317 160.5,337C 161.252,336.329 161.586,335.496 161.5,334.5 Z"/></g>
<g><path style="opacity:1" fill="#4da9dc" d="M 296.5,313.5 C 297.495,324.988 297.828,336.655 297.5,348.5C 292.167,348.5 286.833,348.5 281.5,348.5C 281.5,338.833 281.5,329.167 281.5,319.5C 282.314,321.631 282.814,323.964 283,326.5C 285.289,327.022 287.456,326.355 289.5,324.5C 290.167,325.167 290.833,325.833 291.5,326.5C 292.67,322.061 294.17,321.728 296,325.5C 296.499,321.514 296.666,317.514 296.5,313.5 Z"/></g>
<g><path style="opacity:1" fill="#3a7ab6" d="M 534.5,325.5 C 531.115,341.121 537.449,349.121 553.5,349.5C 553.5,349.833 553.5,350.167 553.5,350.5C 550.063,352.634 546.563,354.634 543,356.5C 542.667,356.167 542.333,355.833 542,355.5C 541.066,359.282 540.232,359.115 539.5,355C 540.103,351.203 542.103,350.37 545.5,352.5C 547.067,352.523 548.4,352.023 549.5,351C 546.628,350.685 543.795,350.185 541,349.5C 539.098,351.627 537.431,353.96 536,356.5C 533.084,354.987 530.418,355.32 528,357.5C 527.722,356.584 527.222,355.918 526.5,355.5C 526.607,353.621 526.107,353.288 525,354.5C 523.351,353.352 521.851,352.019 520.5,350.5C 521.489,349.532 522.156,348.365 522.5,347C 519.952,344.397 518.619,341.231 518.5,337.5C 518.783,336.711 519.283,336.044 520,335.5C 522.133,337.091 523.799,339.091 525,341.5C 526.019,340.313 527.186,339.313 528.5,338.5C 529.641,336.579 529.808,334.579 529,332.5C 525.151,328.585 525.651,325.918 530.5,324.5C 530.094,326.109 530.094,327.443 530.5,328.5C 531.429,327.311 531.762,325.978 531.5,324.5C 532.791,324.263 533.791,324.596 534.5,325.5 Z"/></g>
<g><path style="opacity:1" fill="#4086bd" d="M 341.5,333.5 C 341.5,334.5 341.5,335.5 341.5,336.5C 339.654,336.222 338.32,336.889 337.5,338.5C 338.642,341.399 339.308,344.399 339.5,347.5C 338.022,347.238 336.689,347.571 335.5,348.5C 337.396,349.466 339.396,349.799 341.5,349.5C 338.038,350.482 334.371,350.815 330.5,350.5C 328.696,349.619 327.196,348.286 326,346.5C 326.379,344.925 326.212,343.425 325.5,342C 328.775,341.172 330.441,339.006 330.5,335.5C 334.372,335.758 338.039,335.091 341.5,333.5 Z"/></g>
<g><path style="opacity:1" fill="#397fbf" d="M 515.5,349.5 C 514.694,350.868 513.694,352.201 512.5,353.5C 513.025,354.192 513.692,354.692 514.5,355C 513.048,356.517 511.548,356.684 510,355.5C 494.286,361.584 479.119,360.584 464.5,352.5C 461.914,351.52 459.247,351.187 456.5,351.5C 455.275,352.937 454.275,354.604 453.5,356.5C 456.861,361.825 458.361,367.491 458,373.5C 459.688,377.304 461.521,380.97 463.5,384.5C 463.5,384.833 463.5,385.167 463.5,385.5C 457.626,382.632 452.959,378.298 449.5,372.5C 446.008,371.079 444.342,368.412 444.5,364.5C 444.519,362.94 444.852,361.44 445.5,360C 443.625,356.634 442.292,353.134 441.5,349.5C 450.126,350.411 458.792,350.745 467.5,350.5C 471.242,352.532 475.242,354.365 479.5,356C 487.555,356.822 495.555,356.488 503.5,355C 506.291,353.211 509.291,351.878 512.5,351C 512.057,349.482 512.724,348.315 514.5,347.5C 515.298,347.957 515.631,348.624 515.5,349.5 Z"/></g>
<g><path style="opacity:1" fill="#3e86c4" d="M 510.5,323.5 C 511.092,326.127 511.425,328.794 511.5,331.5C 512.93,331.579 514.264,331.246 515.5,330.5C 516.869,332.764 517.869,335.097 518.5,337.5C 518.619,341.231 519.952,344.397 522.5,347C 522.156,348.365 521.489,349.532 520.5,350.5C 521.851,352.019 523.351,353.352 525,354.5C 526.107,353.288 526.607,353.621 526.5,355.5C 525.9,356.9 524.9,357.9 523.5,358.5C 520.832,355.418 518.165,352.418 515.5,349.5C 515.631,348.624 515.298,347.957 514.5,347.5C 512.724,348.315 512.057,349.482 512.5,351C 509.291,351.878 506.291,353.211 503.5,355C 495.555,356.488 487.555,356.822 479.5,356C 475.242,354.365 471.242,352.532 467.5,350.5C 467.5,350.167 467.5,349.833 467.5,349.5C 472.695,349.821 477.695,349.487 482.5,348.5C 483.166,344.316 483.833,339.982 484.5,335.5C 485.281,336.729 485.781,338.062 486,339.5C 486.667,340.833 487.333,340.833 488,339.5C 488.175,335.789 488.675,332.122 489.5,328.5C 490.876,335.244 491.876,341.91 492.5,348.5C 497.64,349.488 502.974,349.821 508.5,349.5C 509.167,340.833 509.833,332.167 510.5,323.5 Z"/></g>
<g><path style="opacity:1" fill="#507eab" d="M 311.5,356.5 C 312.833,356.5 314.167,356.5 315.5,356.5C 315.5,357.833 315.5,359.167 315.5,360.5C 314.167,360.5 312.833,360.5 311.5,360.5C 311.5,359.167 311.5,357.833 311.5,356.5 Z"/></g>
<g><path style="opacity:1" fill="#9fa6ae" d="M 335.5,356.5 C 337.167,356.5 338.833,356.5 340.5,356.5C 340.5,357.833 340.5,359.167 340.5,360.5C 338.833,360.5 337.167,360.5 335.5,360.5C 335.5,359.167 335.5,357.833 335.5,356.5 Z"/></g>
<g><path style="opacity:1" fill="#2a568b" d="M 577.5,284.5 C 584.656,294.965 588.656,306.632 589.5,319.5C 587.855,318.521 586.521,317.188 585.5,315.5C 586.562,312.897 586.728,310.23 586,307.5C 583.929,304.412 582.262,301.079 581,297.5C 580.308,298.025 579.808,298.692 579.5,299.5C 581.006,303.541 582.506,307.541 584,311.5C 584.5,323.162 584.667,334.829 584.5,346.5C 585.5,346.5 586.5,346.5 587.5,346.5C 577.043,380.224 554.377,399.724 519.5,405C 507.499,406.475 495.832,405.308 484.5,401.5C 484.81,399.856 485.81,398.856 487.5,398.5C 506.631,403.11 525.298,401.61 543.5,394C 545.324,393.34 546.657,392.173 547.5,390.5C 554.057,387.444 558.723,382.611 561.5,376C 561.227,374.467 560.894,372.967 560.5,371.5C 560.833,370.833 561.167,370.167 561.5,369.5C 563.812,367.854 565.812,365.854 567.5,363.5C 567.192,362.692 566.692,362.025 566,361.5C 564.612,362.554 563.112,362.72 561.5,362C 564.127,359.882 567.127,358.548 570.5,358C 572.697,355.579 574.03,352.745 574.5,349.5C 577.455,348.841 580.455,348.508 583.5,348.5C 583.667,336.495 583.5,324.495 583,312.5C 581.512,306.858 578.345,302.525 573.5,299.5C 574.474,297.915 575.974,296.915 578,296.5C 578.85,294.99 579.683,293.49 580.5,292C 579.518,289.991 578.185,289.491 576.5,290.5C 575.41,289.273 574.076,288.44 572.5,288C 574.134,287.506 575.801,287.34 577.5,287.5C 577.5,286.5 577.5,285.5 577.5,284.5 Z"/></g>
<g><path style="opacity:1" fill="#3476b5" d="M 515.5,349.5 C 518.165,352.418 520.832,355.418 523.5,358.5C 536.507,359.93 536.507,361.097 523.5,362C 518.578,367.965 512.245,371.632 504.5,373C 493.356,375.799 482.356,375.633 471.5,372.5C 470.821,368.9 469.987,369.233 469,373.5C 468.759,370.711 468.092,368.044 467,365.5C 467.078,369.877 467.412,374.21 468,378.5C 464.662,375.667 463.162,372 463.5,367.5C 462.5,367.5 461.5,367.5 460.5,367.5C 460.649,366.448 460.483,365.448 460,364.5C 459.667,364.833 459.333,365.167 459,365.5C 458.167,363.833 457.333,362.167 456.5,360.5C 457.764,360.36 458.931,360.36 460,360.5C 460.667,358.833 460.667,357.167 460,355.5C 459.667,356.167 459.333,356.833 459,357.5C 458.667,356.167 458.333,354.833 458,353.5C 457.667,354.167 457.333,354.833 457,355.5C 456.51,354.207 456.343,352.873 456.5,351.5C 459.247,351.187 461.914,351.52 464.5,352.5C 479.119,360.584 494.286,361.584 510,355.5C 511.548,356.684 513.048,356.517 514.5,355C 513.692,354.692 513.025,354.192 512.5,353.5C 513.694,352.201 514.694,350.868 515.5,349.5 Z"/></g>
<g><path style="opacity:1" fill="#3781c6" d="M 319.5,380.5 C 319.5,373.5 319.5,366.5 319.5,359.5C 320.15,359.196 320.817,358.863 321.5,358.5C 322.497,365.803 322.831,373.137 322.5,380.5C 321.5,380.5 320.5,380.5 319.5,380.5 Z"/></g>
<g><path style="opacity:1" fill="#99a5ae" d="M 416.5,357.5 C 418.167,357.5 419.833,357.5 421.5,357.5C 421.435,365.448 421.769,373.448 422.5,381.5C 420.533,381.739 418.699,381.406 417,380.5C 416.064,372.781 415.898,365.115 416.5,357.5 Z"/></g>
<g><path style="opacity:1" fill="#95a2ac" d="M 343.5,362.5 C 345.451,362.227 346.951,362.893 348,364.5C 349.126,363.056 350.626,362.39 352.5,362.5C 356.138,363.233 359.804,363.4 363.5,363C 364,363.5 364.5,364 365,364.5C 365.499,370.157 365.666,375.824 365.5,381.5C 363.833,381.5 362.167,381.5 360.5,381.5C 360.5,376.5 360.5,371.5 360.5,366.5C 359.167,366.5 357.833,366.5 356.5,366.5C 356.5,371.5 356.5,376.5 356.5,381.5C 355.167,381.5 353.833,381.5 352.5,381.5C 352.666,376.489 352.499,371.489 352,366.5C 351,365.167 350,365.167 349,366.5C 348.501,371.489 348.334,376.489 348.5,381.5C 346.833,381.5 345.167,381.5 343.5,381.5C 343.5,375.167 343.5,368.833 343.5,362.5 Z"/></g>
<g><path style="opacity:1" fill="#4f85b8" d="M 553.5,350.5 C 553.5,350.167 553.5,349.833 553.5,349.5C 560.5,349.5 567.5,349.5 574.5,349.5C 574.03,352.745 572.697,355.579 570.5,358C 567.127,358.548 564.127,359.882 561.5,362C 563.112,362.72 564.612,362.554 566,361.5C 566.692,362.025 567.192,362.692 567.5,363.5C 565.812,365.854 563.812,367.854 561.5,369.5C 561.291,368.078 560.791,366.745 560,365.5C 559.028,367.305 557.861,368.972 556.5,370.5C 555.029,369.619 554.196,368.286 554,366.5C 549.334,370.086 544.167,372.419 538.5,373.5C 540.237,371.45 542.237,369.617 544.5,368C 547.822,367.941 550.656,366.774 553,364.5C 555.54,365.876 557.54,365.21 559,362.5C 559.634,358.233 557.801,356.233 553.5,356.5C 551.944,350.357 553.111,350.024 557,355.5C 557.333,354.5 557.667,353.5 558,352.5C 560.563,353.741 563.063,355.074 565.5,356.5C 567.188,354.971 568.521,353.137 569.5,351C 564.177,350.501 558.844,350.334 553.5,350.5 Z"/></g>
<g><path style="opacity:1" fill="#909ea6" d="M 387.5,362.5 C 391.007,361.994 394.174,362.66 397,364.5C 397.499,370.157 397.666,375.824 397.5,381.5C 393.974,381.061 390.307,380.894 386.5,381C 384.718,378.757 384.218,376.257 385,373.5C 387.251,371.623 389.751,370.123 392.5,369C 393.337,367.989 393.67,366.822 393.5,365.5C 392.167,365.5 390.833,365.5 389.5,365.5C 389.5,366.5 389.5,367.5 389.5,368.5C 388.167,368.5 386.833,368.5 385.5,368.5C 385.253,366.142 385.919,364.142 387.5,362.5 Z"/></g>
<g><path style="opacity:1" fill="#8f9da7" d="M 374.5,381.5 C 374.44,380.957 374.107,380.624 373.5,380.5C 372.526,382.743 372.192,385.076 372.5,387.5C 371.5,387.5 370.5,387.5 369.5,387.5C 369.5,379.5 369.5,371.5 369.5,363.5C 370.5,363.5 371.5,363.5 372.5,363.5C 374.782,362.61 377.115,362.444 379.5,363C 381.99,368.704 382.156,374.537 380,380.5C 378.322,382.553 376.489,382.887 374.5,381.5 Z"/></g>
<g><path style="opacity:1" fill="#f4f9f8" d="M 374.5,365.5 C 375.496,365.414 376.329,365.748 377,366.5C 377.667,370.167 377.667,373.833 377,377.5C 376,378.833 375,378.833 374,377.5C 373.238,373.413 373.404,369.413 374.5,365.5 Z"/></g>
<g><path style="opacity:1" fill="#4484bd" d="M 297.5,362.5 C 305.818,360.977 309.151,364.31 307.5,372.5C 304.833,372.5 302.167,372.5 299.5,372.5C 299.5,374.5 299.5,376.5 299.5,378.5C 300.833,378.5 302.167,378.5 303.5,378.5C 303.5,377.5 303.5,376.5 303.5,375.5C 304.833,375.5 306.167,375.5 307.5,375.5C 307.427,381.546 304.427,383.713 298.5,382C 295.398,379.032 294.065,375.366 294.5,371C 294.051,367.561 295.051,364.728 297.5,362.5 Z"/></g>
<g><path style="opacity:1" fill="#eefafa" d="M 300.5,365.5 C 302.912,365.694 303.912,367.027 303.5,369.5C 302.167,369.5 300.833,369.5 299.5,369.5C 299.433,368.041 299.766,366.708 300.5,365.5 Z"/></g>
<g><path style="opacity:1" fill="#4b7dad" d="M 319.5,380.5 C 320.5,380.5 321.5,380.5 322.5,380.5C 322.831,373.137 322.497,365.803 321.5,358.5C 320.817,358.863 320.15,359.196 319.5,359.5C 319.5,358.5 319.5,357.5 319.5,356.5C 320.833,356.5 322.167,356.5 323.5,356.5C 323.5,364.833 323.5,373.167 323.5,381.5C 321.901,381.768 320.568,381.434 319.5,380.5 Z"/></g>
<g><path style="opacity:1" fill="#f3f8fc" d="M 392.5,371.5 C 393.622,373.288 393.789,375.288 393,377.5C 391.989,378.337 390.822,378.67 389.5,378.5C 389.15,375.547 390.15,373.213 392.5,371.5 Z"/></g>
<g><path style="opacity:1" fill="#bbc4c9" d="M 372.5,363.5 C 371.5,363.5 370.5,363.5 369.5,363.5C 369.5,371.5 369.5,379.5 369.5,387.5C 370.5,387.5 371.5,387.5 372.5,387.5C 372.192,385.076 372.526,382.743 373.5,380.5C 374.107,380.624 374.44,380.957 374.5,381.5C 373.532,383.607 373.198,385.941 373.5,388.5C 371.833,388.5 370.167,388.5 368.5,388.5C 368.5,379.833 368.5,371.167 368.5,362.5C 370.099,362.232 371.432,362.566 372.5,363.5 Z"/></g>
<g><path style="opacity:1" fill="#5098cb" d="M 561.5,369.5 C 561.167,370.167 560.833,370.833 560.5,371.5C 556.325,374.835 551.992,378.002 547.5,381C 541.812,381.554 536.145,381.387 530.5,380.5C 529.791,379.596 528.791,379.263 527.5,379.5C 525.502,378.852 523.502,378.019 521.5,377C 527.514,376.881 533.181,375.714 538.5,373.5C 544.167,372.419 549.334,370.086 554,366.5C 554.196,368.286 555.029,369.619 556.5,370.5C 557.861,368.972 559.028,367.305 560,365.5C 560.791,366.745 561.291,368.078 561.5,369.5 Z"/></g>
<g><path style="opacity:1" fill="#3e83c0" d="M 560.5,371.5 C 560.894,372.967 561.227,374.467 561.5,376C 558.723,382.611 554.057,387.444 547.5,390.5C 546.209,390.737 545.209,390.404 544.5,389.5C 545.98,386.544 544.98,384.877 541.5,384.5C 537.536,385.926 533.536,386.759 529.5,387C 530.423,384.959 530.756,382.792 530.5,380.5C 536.145,381.387 541.812,381.554 547.5,381C 551.992,378.002 556.325,374.835 560.5,371.5 Z"/></g>
<g><path style="opacity:1" fill="#4481b9" d="M 264.5,362.5 C 268.347,362.978 272.181,363.311 276,363.5C 276.499,369.491 276.666,375.491 276.5,381.5C 275.167,381.5 273.833,381.5 272.5,381.5C 272.5,376.5 272.5,371.5 272.5,366.5C 271.178,366.33 270.011,366.663 269,367.5C 268.501,372.155 268.334,376.821 268.5,381.5C 267.167,381.5 265.833,381.5 264.5,381.5C 264.5,375.167 264.5,368.833 264.5,362.5 Z"/></g>
<g><path style="opacity:1" fill="#2d69a6" d="M 553.5,350.5 C 558.844,350.334 564.177,350.501 569.5,351C 568.521,353.137 567.188,354.971 565.5,356.5C 563.063,355.074 560.563,353.741 558,352.5C 557.667,353.5 557.333,354.5 557,355.5C 553.111,350.024 551.944,350.357 553.5,356.5C 557.801,356.233 559.634,358.233 559,362.5C 557.54,365.21 555.54,365.876 553,364.5C 550.656,366.774 547.822,367.941 544.5,368C 542.237,369.617 540.237,371.45 538.5,373.5C 533.181,375.714 527.514,376.881 521.5,377C 523.502,378.019 525.502,378.852 527.5,379.5C 522.854,380.495 519.188,382.995 516.5,387C 515.5,387.333 514.5,387.667 513.5,388C 503.549,389.543 495.549,390.71 489.5,391.5C 489.5,392.5 489.5,393.5 489.5,394.5C 485.403,393.548 481.403,392.381 477.5,391C 474.003,388.417 470.336,386.084 466.5,384C 465.251,383.26 464.251,383.427 463.5,384.5C 461.521,380.97 459.688,377.304 458,373.5C 458.361,367.491 456.861,361.825 453.5,356.5C 454.275,354.604 455.275,352.937 456.5,351.5C 456.343,352.873 456.51,354.207 457,355.5C 457.333,354.833 457.667,354.167 458,353.5C 458.333,354.833 458.667,356.167 459,357.5C 459.333,356.833 459.667,356.167 460,355.5C 460.667,357.167 460.667,358.833 460,360.5C 458.931,360.36 457.764,360.36 456.5,360.5C 457.333,362.167 458.167,363.833 459,365.5C 459.333,365.167 459.667,364.833 460,364.5C 460.483,365.448 460.649,366.448 460.5,367.5C 461.5,367.5 462.5,367.5 463.5,367.5C 463.162,372 464.662,375.667 468,378.5C 467.412,374.21 467.078,369.877 467,365.5C 468.092,368.044 468.759,370.711 469,373.5C 469.987,369.233 470.821,368.9 471.5,372.5C 482.356,375.633 493.356,375.799 504.5,373C 512.245,371.632 518.578,367.965 523.5,362C 536.507,361.097 536.507,359.93 523.5,358.5C 524.9,357.9 525.9,356.9 526.5,355.5C 527.222,355.918 527.722,356.584 528,357.5C 530.418,355.32 533.084,354.987 536,356.5C 537.431,353.96 539.098,351.627 541,349.5C 543.795,350.185 546.628,350.685 549.5,351C 548.4,352.023 547.067,352.523 545.5,352.5C 542.103,350.37 540.103,351.203 539.5,355C 540.232,359.115 541.066,359.282 542,355.5C 542.333,355.833 542.667,356.167 543,356.5C 546.563,354.634 550.063,352.634 553.5,350.5 Z"/></g>
<g><path style="opacity:1" fill="#4a80ad" d="M 311.5,362.5 C 312.833,362.5 314.167,362.5 315.5,362.5C 315.5,368.833 315.5,375.167 315.5,381.5C 314.167,381.5 312.833,381.5 311.5,381.5C 311.5,375.167 311.5,368.833 311.5,362.5 Z"/></g>
<g><path style="opacity:1" fill="#2f84c9" d="M 312.5,364.5 C 313.812,366.743 314.478,369.41 314.5,372.5C 314.167,375.167 313.833,377.833 313.5,380.5C 312.505,375.208 312.172,369.875 312.5,364.5 Z"/></g>
<g><path style="opacity:1" fill="#a1adb7" d="M 335.5,362.5 C 337.167,362.5 338.833,362.5 340.5,362.5C 340.5,368.833 340.5,375.167 340.5,381.5C 338.833,381.5 337.167,381.5 335.5,381.5C 335.5,375.167 335.5,368.833 335.5,362.5 Z"/></g>
<g><path style="opacity:1" fill="#4887bd" d="M 279.5,362.5 C 280.978,362.238 282.311,362.571 283.5,363.5C 284.651,367.423 285.485,371.423 286,375.5C 286.993,371.558 287.66,367.558 288,363.5C 289.356,362.62 290.856,362.286 292.5,362.5C 291.606,368.866 290.606,375.199 289.5,381.5C 287.167,381.5 284.833,381.5 282.5,381.5C 281.822,375.101 280.822,368.768 279.5,362.5 Z"/></g>
<g><path style="opacity:1" fill="#4782bb" d="M 327.5,377.5 C 328.833,377.5 330.167,377.5 331.5,377.5C 331.5,378.833 331.5,380.167 331.5,381.5C 330.167,381.5 328.833,381.5 327.5,381.5C 327.5,380.167 327.5,378.833 327.5,377.5 Z"/></g>
<g><path style="opacity:1" fill="#4d86bb" d="M 248.5,362.5 C 249.833,362.5 251.167,362.5 252.5,362.5C 252.334,367.511 252.501,372.511 253,377.5C 254,378.833 255,378.833 256,377.5C 256.499,372.511 256.666,367.511 256.5,362.5C 257.833,362.5 259.167,362.5 260.5,362.5C 260.5,368.833 260.5,375.167 260.5,381.5C 258.856,381.714 257.356,381.38 256,380.5C 253.667,383.167 251.333,383.167 249,380.5C 248.501,374.509 248.334,368.509 248.5,362.5 Z"/></g>
<g><path style="opacity:1" fill="#93a0a8" d="M 403.5,362.5 C 409.686,361.042 413.019,363.375 413.5,369.5C 410.509,369.67 408.509,368.337 407.5,365.5C 406.914,365.709 406.414,366.043 406,366.5C 405.501,370.486 405.334,374.486 405.5,378.5C 408.5,378.833 409.833,377.5 409.5,374.5C 410.833,374.5 412.167,374.5 413.5,374.5C 413.016,380.795 409.683,382.961 403.5,381C 401.083,378.521 400.083,375.521 400.5,372C 400.109,368.329 401.109,365.162 403.5,362.5 Z"/></g>
<g><path style="opacity:1" fill="#29609b" d="M 527.5,379.5 C 528.791,379.263 529.791,379.596 530.5,380.5C 530.756,382.792 530.423,384.959 529.5,387C 533.536,386.759 537.536,385.926 541.5,384.5C 544.98,384.877 545.98,386.544 544.5,389.5C 526.783,398.003 508.449,399.67 489.5,394.5C 489.5,393.5 489.5,392.5 489.5,391.5C 495.549,390.71 503.549,389.543 513.5,388C 514.5,387.667 515.5,387.333 516.5,387C 519.188,382.995 522.854,380.495 527.5,379.5 Z"/></g>
<g><path style="opacity:1" fill="#31669d" d="M 444.5,364.5 C 444.342,368.412 446.008,371.079 449.5,372.5C 452.959,378.298 457.626,382.632 463.5,385.5C 470.644,391.333 478.644,395.666 487.5,398.5C 485.81,398.856 484.81,399.856 484.5,401.5C 460.065,392.732 443.731,376.065 435.5,351.5C 435.351,350.448 435.517,349.448 436,348.5C 438.938,353.843 441.771,359.176 444.5,364.5 Z"/></g>
<g><path style="opacity:1" fill="#3b72a5" d="M 489.5,394.5 C 508.449,399.67 526.783,398.003 544.5,389.5C 545.209,390.404 546.209,390.737 547.5,390.5C 546.657,392.173 545.324,393.34 543.5,394C 525.298,401.61 506.631,403.11 487.5,398.5C 478.644,395.666 470.644,391.333 463.5,385.5C 463.5,385.167 463.5,384.833 463.5,384.5C 464.251,383.427 465.251,383.26 466.5,384C 470.336,386.084 474.003,388.417 477.5,391C 481.403,392.381 485.403,393.548 489.5,394.5 Z"/></g>
</svg>
